<svg width="18" height="18" viewBox="0 0 18 18" fill="none" xmlns="http://www.w3.org/2000/svg">
<path d="M16.9 18L10.325 11.425C9.825 11.8583 9.242 12.1958 8.576 12.4375C7.91 12.6792 7.20133 12.8 6.45 12.8C4.64733 12.8 3.12167 12.175 1.873 10.925C0.624333 9.675 0 8.16667 0 6.4C0 4.63333 0.625 3.125 1.875 1.875C3.125 0.625 4.6375 0 6.4125 0C8.1875 0 9.69583 0.625 10.9375 1.875C12.1792 3.125 12.8 4.63458 12.8 6.40375C12.8 7.11792 12.6833 7.80833 12.45 8.475C12.2167 9.14167 11.8667 9.76667 11.4 10.35L18 16.9L16.9 18ZM6.425 11.3C7.77917 11.3 8.93025 10.8208 9.87825 9.8625C10.8261 8.90417 11.3 7.75 11.3 6.4C11.3 5.05 10.8261 3.89583 9.87825 2.9375C8.93025 1.97917 7.77917 1.5 6.425 1.5C5.057 1.5 3.89417 1.97917 2.9365 2.9375C1.97883 3.89583 1.5 5.05 1.5 6.4C1.5 7.75 1.97883 8.90417 2.9365 9.8625C3.89417 10.8208 5.057 11.3 6.425 11.3Z" fill="#CCC8C8"/>
</svg>
