<svg width="187" height="201" version="1.1" xmlns="http://www.w3.org/2000/svg" desc="Created with imagetracer.js version 1.2.6" ><path fill="rgb(86,60,51)" stroke="rgb(86,60,51)" stroke-width="1" opacity="0.9725490196078431" d="M 95.5 23 Q 104.5 21.5 107 26.5 L 105 27 L 106 34.5 L 108 39 Q 110.7 40.1 110 37.5 L 111 37.5 L 112.5 41 L 113 38.5 L 112 36.5 L 116 39.5 L 116.5 41 L 117 38.5 L 114 31.5 L 117 33.5 L 117.5 36 L 119.5 36 L 122 34.5 L 120 31.5 L 123 33.5 L 127 41.5 L 127 43.5 L 128 48.5 L 124.5 57 L 124 53 Q 118 53.2 115.5 58 L 111.5 52 L 108.5 51 Q 106.7 53.8 105 49.5 L 104 40.5 L 102 37 L 99.5 37 L 94.5 33 L 91.5 33 L 85.5 36 L 87.5 33 L 100 30 L 99 26.5 L 99.5 25 Q 94.9 24.4 93.5 27 L 89.5 25 L 84 24.5 L 89.5 24 L 93.5 25 L 95.5 23 Z M 104 28 L 103 36 L 105 37 L 105 36 L 105 34 L 104 28 Z M 100 31 L 99 34 L 100 34 L 100 31 Z M 126 43 L 125 49 L 127 49 L 126 43 Z M 115 44 L 113 49 L 114 52 Q 113 54 116 53 L 115 51 L 116 49 L 115 44 Z M 120 45 L 119 48 L 120 48 L 120 45 Z " /><path fill="rgb(86,60,51)" stroke="rgb(86,60,51)" stroke-width="1" opacity="0.9725490196078431" d="M 82.5 25 L 82.5 27 L 84 27.5 Q 81.2 29.2 82 34.5 L 82.5 36 L 80 37.5 L 82 42.5 L 80 46 L 77.5 45 L 76 48 Q 73.3 49.1 74 46.5 Q 71.8 45.3 73 40.5 L 77 36.5 Q 76 28.5 80.5 26 L 82.5 25 Z M 81 27 L 79 29 L 80 31 L 82 28 L 81 27 Z " /><path fill="rgb(86,60,51)" stroke="rgb(86,60,51)" stroke-width="1" opacity="0.9725490196078431" d="M 92.5 50 L 97 50.5 L 92.5 51 L 92.5 50 Z " /><path fill="rgb(86,60,51)" stroke="rgb(86,60,51)" stroke-width="1" opacity="0.9725490196078431" d="M 76.5 51 L 80 51.5 L 76.5 52 L 76.5 51 Z " /><path fill="rgb(86,60,51)" stroke="rgb(86,60,51)" stroke-width="1" opacity="0.9725490196078431" d="M 93.5 53 L 95 53.5 L 92 55.5 L 93.5 53 Z " /><path fill="rgb(86,60,51)" stroke="rgb(86,60,51)" stroke-width="1" opacity="0.9725490196078431" d="M 78.5 54 L 82 54.5 L 77.5 57 L 77 55.5 L 78.5 54 Z " /><path fill="rgb(86,60,51)" stroke="rgb(86,60,51)" stroke-width="1" opacity="0.9725490196078431" d="M 97.5 54 L 101 55.5 L 96.5 56 L 97.5 54 Z " /><path fill="rgb(86,60,51)" stroke="rgb(86,60,51)" stroke-width="1" opacity="0.9725490196078431" d="M 83.5 75 L 87 80.5 L 83 77.5 L 83.5 75 Z " /><path fill="rgb(86,60,51)" stroke="rgb(86,60,51)" stroke-width="1" opacity="0.9725490196078431" d="M 96.5 76 L 95.5 78 L 96.5 76 Z " /><path fill="rgb(86,60,51)" stroke="rgb(86,60,51)" stroke-width="1" opacity="0.9725490196078431" d="M 89 77 L 94 77 L 94 79 L 88.5 80 L 89 78.5 L 89 77 Z " /><path fill="rgb(86,60,51)" stroke="rgb(86,60,51)" stroke-width="1" opacity="0.9725490196078431" d="M 128.5 91 L 132.5 96 L 128.5 91 Z " /><path fill="rgb(86,60,51)" stroke="rgb(86,60,51)" stroke-width="1" opacity="0.9725490196078431" d="M 133.5 97 L 145 104.5 L 143.5 105 Q 135.8 102.1 133.5 97 Z " /><path fill="rgb(86,60,51)" stroke="rgb(86,60,51)" stroke-width="1" opacity="0.9725490196078431" d="M 91.5 101 L 92 104.5 L 91 104.5 L 91.5 101 Z " /><path fill="rgb(86,60,51)" stroke="rgb(86,60,51)" stroke-width="1" opacity="0.9725490196078431" d="M 51.5 103 L 48.5 107 L 51.5 103 Z " /><path fill="rgb(86,60,51)" stroke="rgb(86,60,51)" stroke-width="1" opacity="0.9725490196078431" d="M 97.5 103 L 98.5 105 L 97.5 103 Z " /><path fill="rgb(86,60,51)" stroke="rgb(86,60,51)" stroke-width="1" opacity="0.9725490196078431" d="M 81.5 104 L 84 104.5 L 81.5 105 L 81.5 104 Z " /><path fill="rgb(86,60,51)" stroke="rgb(86,60,51)" stroke-width="1" opacity="0.9725490196078431" d="M 146.5 105 L 152 107.5 L 150.5 108 Q 146.5 107.5 146.5 105 Z " /><path fill="rgb(86,60,51)" stroke="rgb(86,60,51)" stroke-width="1" opacity="0.9725490196078431" d="M 100 107 L 104 109.5 Q 104.8 111.8 102.5 111 L 99.5 112 L 95 113.5 L 97 116.5 L 94 117.5 L 93 120.5 L 97.5 127 L 99 126.5 L 98.5 129 L 96.5 129 L 95 129.5 L 99 130.5 L 99 134.5 Q 99.8 136.8 97.5 136 L 97.5 137 L 99 137.5 L 94 141.5 L 93.5 139 L 92 139.5 L 91 137.5 L 92 135.5 L 90 135.5 Q 89 131.8 92 133 L 92 129 L 90 128.5 L 90.5 126 L 92.5 125 L 94.5 126 L 94 124.5 L 93.5 123 L 91.5 123 Q 88.9 123.8 90 120.5 L 91 117.5 L 92 113.5 L 90.5 111 L 92.5 112 L 92 110.5 Q 91.3 108.3 93.5 109 L 93.5 111 L 95.5 110 L 95.5 112 Q 98.5 112.7 97 109 L 100 109 L 100 107 Z M 97 132 L 95 135 L 94 135 Q 95 132 92 133 L 95 137 L 97 136 L 97 134 L 97 132 Z M 96 137 L 97 139 Q 98 136 96 137 Z " /><path fill="rgb(86,60,51)" stroke="rgb(86,60,51)" stroke-width="1" opacity="0.9725490196078431" d="M 155.5 109 L 167 116.5 L 165.5 117 L 157.5 112 L 155.5 109 Z " /><path fill="rgb(86,60,51)" stroke="rgb(86,60,51)" stroke-width="1" opacity="0.9725490196078431" d="M 104.5 112 L 103.5 114 L 104.5 112 Z " /><path fill="rgb(86,60,51)" stroke="rgb(86,60,51)" stroke-width="1" opacity="0.9725490196078431" d="M 107.5 112 L 109 112.5 L 105.5 115 L 107.5 112 Z " /><path fill="rgb(86,60,51)" stroke="rgb(86,60,51)" stroke-width="1" opacity="0.9725490196078431" d="M 99.5 113 Q 101.8 112.3 101 114.5 L 98 114.5 L 99.5 113 Z " /><path fill="rgb(86,60,51)" stroke="rgb(86,60,51)" stroke-width="1" opacity="0.9725490196078431" d="M 43.5 114 L 42.5 116 L 43.5 114 Z " /><path fill="rgb(86,60,51)" stroke="rgb(86,60,51)" stroke-width="1" opacity="0.9725490196078431" d="M 102.5 116 L 101.5 118 L 102.5 116 Z " /><path fill="rgb(86,60,51)" stroke="rgb(86,60,51)" stroke-width="1" opacity="0.9725490196078431" d="M 40.5 119 L 40 120.5 L 37.5 124 L 38 122.5 L 40.5 119 Z " /><path fill="rgb(86,60,51)" stroke="rgb(86,60,51)" stroke-width="1" opacity="0.9725490196078431" d="M 169.5 120 L 170 123.5 L 169 123.5 L 169.5 120 Z " /><path fill="rgb(86,60,51)" stroke="rgb(86,60,51)" stroke-width="1" opacity="0.9725490196078431" d="M 48.5 121 L 48 122.5 Q 48.8 124.8 46.5 124 L 48.5 121 Z " /><path fill="rgb(86,60,51)" stroke="rgb(86,60,51)" stroke-width="1" opacity="0.9725490196078431" d="M 44.5 125 L 45.5 127 Q 42.7 127.7 44.5 125 Z " /><path fill="rgb(86,60,51)" stroke="rgb(86,60,51)" stroke-width="1" opacity="0.9725490196078431" d="M 107.5 126 L 106.5 128 L 107.5 126 Z " /><path fill="rgb(86,60,51)" stroke="rgb(86,60,51)" stroke-width="1" opacity="0.9725490196078431" d="M 34.5 131 L 35 132.5 L 32 137 L 30 136.5 L 34.5 131 Z " /><path fill="rgb(86,60,51)" stroke="rgb(86,60,51)" stroke-width="1" opacity="0.9725490196078431" d="M 171.5 131 L 172 133.5 L 170 132.5 L 171.5 131 Z " /><path fill="rgb(86,60,51)" stroke="rgb(86,60,51)" stroke-width="1" opacity="0.9725490196078431" d="M 173.5 142 L 174 154.5 L 173 154.5 L 172 151.5 L 173 150.5 L 173.5 142 Z " /><path fill="rgb(86,60,51)" stroke="rgb(86,60,51)" stroke-width="1" opacity="0.9725490196078431" d="M 25.5 148 L 26 150.5 L 25 150.5 L 25.5 148 Z " /><path fill="rgb(86,60,51)" stroke="rgb(86,60,51)" stroke-width="1" opacity="0.9725490196078431" d="M 24.5 152 L 25 154.5 L 24 154.5 L 24.5 152 Z " /><path fill="rgb(86,60,51)" stroke="rgb(86,60,51)" stroke-width="1" opacity="0.9725490196078431" d="M 175.5 159 L 176 164.5 L 175 164.5 L 175.5 159 Z " /><path fill="rgb(86,60,51)" stroke="rgb(86,60,51)" stroke-width="1" opacity="0.9725490196078431" d="M 60.5 180 L 61 182.5 L 60 182.5 L 60.5 180 Z " /><path fill="rgb(86,60,51)" stroke="rgb(86,60,51)" stroke-width="1" opacity="0.9725490196078431" d="M 59.5 187 L 60 189.5 L 59 189.5 L 59.5 187 Z " /><path fill="rgb(154,117,102)" stroke="rgb(154,117,102)" stroke-width="1" opacity="0.9725490196078431" d="M 91.5 20 L 95.5 21 L 97.5 20 L 102.5 21 L 109.5 25 L 114.5 25 L 123 30.5 L 127 38.5 L 125 37.5 L 123.5 35 L 120.5 36 L 118.5 35 L 117 35.5 L 115.5 32 L 115 34.5 L 117 40.5 L 116 40.5 L 112.5 36 L 112 37.5 L 113 40.5 L 111 39.5 L 110.5 37 L 110 39 Q 107.3 40.1 108 37.5 L 106 34.5 L 105 27 L 107 26.5 Q 104.5 21.5 95.5 23 Q 94.7 25.8 90.5 25 Q 89.2 22.7 84.5 24 L 78.5 28 L 81.5 24 L 91.5 20 Z " /><path fill="rgb(154,117,102)" stroke="rgb(154,117,102)" stroke-width="1" opacity="0.9725490196078431" d="M 103.5 28 L 105 33.5 L 105 35.5 L 104.5 37 L 103 35.5 L 103.5 28 Z " /><path fill="rgb(154,117,102)" stroke="rgb(154,117,102)" stroke-width="1" opacity="0.9725490196078431" d="M 77.5 29 L 78 30.5 Q 75.7 31.7 77 36.5 L 74.5 39 L 73 38.5 L 77.5 29 Z " /><path fill="rgb(154,117,102)" stroke="rgb(154,117,102)" stroke-width="1" opacity="0.9725490196078431" d="M 91.5 33 L 94.5 33 L 99.5 37 L 102 37 L 104 40.5 L 104 44.5 L 103 44.5 Q 104.3 39.7 101 41 L 102 48.5 L 102 50.5 Q 102.8 52.8 100.5 52 L 98.5 52 Q 93 51 92 54.5 L 92.5 56 Q 93 52.5 97.5 53 L 97.5 54 Q 94.9 53.3 96 56 L 98 56.5 L 96 57.5 L 96.5 59 L 90 55.5 L 88 51.5 Q 91.3 47.1 100 49 L 98.5 40 L 96.5 44 L 96 38.5 L 96 36.5 Q 96.8 33.9 93.5 35 L 91.5 35 L 86.5 36 L 86.5 35 L 91.5 33 Z M 93 50 L 93 51 L 97 51 L 93 50 Z " /><path fill="rgb(154,117,102)" stroke="rgb(154,117,102)" stroke-width="1" opacity="0.9725490196078431" d="M 81.5 36 L 85 36.5 L 82 41.5 L 83.5 44 L 81 45.5 Q 81.8 48.1 78.5 47 L 77 46.5 L 75.5 49 L 74 48.5 L 76 48 L 77.5 45 L 80 46 L 82 42.5 L 80 37.5 L 81.5 36 Z " /><path fill="rgb(154,117,102)" stroke="rgb(154,117,102)" stroke-width="1" opacity="0.9725490196078431" d="M 127.5 41 L 128 46.5 L 127 46.5 L 126 42.5 L 127.5 41 Z " /><path fill="rgb(154,117,102)" stroke="rgb(154,117,102)" stroke-width="1" opacity="0.9725490196078431" d="M 104.5 46 L 105 48.5 L 104 48.5 L 104.5 46 Z " /><path fill="rgb(154,117,102)" stroke="rgb(154,117,102)" stroke-width="1" opacity="0.9725490196078431" d="M 127.5 49 L 128 50.5 L 126.5 53 L 126 51.5 L 127.5 49 Z " /><path fill="rgb(154,117,102)" stroke="rgb(154,117,102)" stroke-width="1" opacity="0.9725490196078431" d="M 75 50 Q 80.4 48.5 82 51.5 L 84 54.5 L 82.5 55 L 78.5 54 L 77 54.5 L 77.5 53 Q 73.3 54.1 75 50 Z M 77 51 L 77 52 L 80 52 L 77 51 Z " /><path fill="rgb(154,117,102)" stroke="rgb(154,117,102)" stroke-width="1" opacity="0.9725490196078431" d="M 105.5 50 L 109.5 52 L 113 53.5 L 115.5 58 L 120.5 54 L 120.5 55 L 115 59.5 Q 115.7 62.1 113 61 Q 114 55.3 110.5 53 Q 105 53.7 105.5 50 Z " /><path fill="rgb(154,117,102)" stroke="rgb(154,117,102)" stroke-width="1" opacity="0.9725490196078431" d="M 99.5 54 L 102 55.5 Q 102.8 57.8 100.5 57 L 100.5 55 L 99.5 54 Z " /><path fill="rgb(154,117,102)" stroke="rgb(154,117,102)" stroke-width="1" opacity="0.9725490196078431" d="M 122.5 54 Q 125.2 55.2 123 56.5 L 122.5 58 L 122 56.5 L 122.5 54 Z " /><path fill="rgb(154,117,102)" stroke="rgb(154,117,102)" stroke-width="1" opacity="0.9725490196078431" d="M 79.5 55 L 80 57 L 84 57.5 Q 83.3 60.8 78.5 60 L 78.5 58 L 77 57.5 L 79.5 55 Z " /><path fill="rgb(154,117,102)" stroke="rgb(154,117,102)" stroke-width="1" opacity="0.9725490196078431" d="M 125.5 55 L 126 56.5 L 124 57.5 L 125.5 55 Z " /><path fill="rgb(154,117,102)" stroke="rgb(154,117,102)" stroke-width="1" opacity="0.9725490196078431" d="M 118.5 59 L 119 61 L 117 60.5 L 118.5 59 Z " /><path fill="rgb(154,117,102)" stroke="rgb(154,117,102)" stroke-width="1" opacity="0.9725490196078431" d="M 72.5 60 L 73 62.5 L 68.5 75 L 68 72.5 Q 70.3 71.2 69 66.5 L 72.5 60 Z " /><path fill="rgb(154,117,102)" stroke="rgb(154,117,102)" stroke-width="1" opacity="0.9725490196078431" d="M 81.5 67 Q 85.5 66.5 86 69.5 L 83.5 71 L 82.5 69 L 81 73.5 L 82.5 73 L 92 73.5 L 85 74.5 L 85.5 76 L 83.5 75 L 83 77.5 Q 86.8 78.8 86 83 Q 90.1 81.3 89 85.5 L 86 87 Q 86.8 83.6 84 82.5 Q 86.5 81 83 79.5 L 78 69.5 L 80 69.5 L 81.5 67 Z " /><path fill="rgb(154,117,102)" stroke="rgb(154,117,102)" stroke-width="1" opacity="0.9725490196078431" d="M 119.5 69 L 120 70.5 L 118.5 73 L 118 71 L 116 70.5 L 119.5 69 Z " /><path fill="rgb(154,117,102)" stroke="rgb(154,117,102)" stroke-width="1" opacity="0.9725490196078431" d="M 93.5 74 Q 97.3 73.3 98 75.5 L 96.5 75 Q 92.5 75.8 93.5 74 Z " /><path fill="rgb(154,117,102)" stroke="rgb(154,117,102)" stroke-width="1" opacity="0.9725490196078431" d="M 94.5 78 L 93.5 80 L 87 82 Q 85.7 78.3 91.5 80 L 94.5 78 Z " /><path fill="rgb(154,117,102)" stroke="rgb(154,117,102)" stroke-width="1" opacity="0.9725490196078431" d="M 81.5 79 L 80 81.5 L 79.5 84 L 79 81.5 L 81.5 79 Z " /><path fill="rgb(154,117,102)" stroke="rgb(154,117,102)" stroke-width="1" opacity="0.9725490196078431" d="M 121 88 L 123 88.5 L 121 89.5 L 121 88 Z " /><path fill="rgb(154,117,102)" stroke="rgb(154,117,102)" stroke-width="1" opacity="0.9725490196078431" d="M 87.5 91 L 90 92.5 L 88.5 93 L 87.5 91 Z " /><path fill="rgb(154,117,102)" stroke="rgb(154,117,102)" stroke-width="1" opacity="0.9725490196078431" d="M 101.5 91 L 99 94.5 Q 99.5 100.1 103.5 102 L 107.5 99 L 101.5 106 L 99 106.5 L 99.5 108 L 96 106.5 L 99 106 L 97.5 103 L 94 100.5 Q 95.3 94.8 92 93.5 Q 98.3 93.8 101.5 91 Z " /><path fill="rgb(154,117,102)" stroke="rgb(154,117,102)" stroke-width="1" opacity="0.9725490196078431" d="M 91.5 105 L 92.5 108 L 94.5 107 L 94.5 108 L 92 109.5 L 91.5 112 L 91.5 105 Z " /><path fill="rgb(154,117,102)" stroke="rgb(154,117,102)" stroke-width="1" opacity="0.9725490196078431" d="M 69.5 106 L 69 107.5 L 70 109.5 L 66.5 111 L 66.5 110 Q 69.1 110.8 68 107.5 L 69.5 106 Z " /><path fill="rgb(154,117,102)" stroke="rgb(154,117,102)" stroke-width="1" opacity="0.9725490196078431" d="M 108.5 111 L 112 113.5 L 106.5 115 L 107.5 113 L 109 112.5 L 108.5 111 Z " /><path fill="rgb(154,117,102)" stroke="rgb(154,117,102)" stroke-width="1" opacity="0.9725490196078431" d="M 65.5 113 L 64.5 115 L 65.5 113 Z " /><path fill="rgb(154,117,102)" stroke="rgb(154,117,102)" stroke-width="1" opacity="0.9725490196078431" d="M 104.5 115 L 103.5 117 L 104.5 115 Z " /><path fill="rgb(154,117,102)" stroke="rgb(154,117,102)" stroke-width="1" opacity="0.9725490196078431" d="M 114.5 116 L 113.5 118 L 114.5 116 Z " /><path fill="rgb(154,117,102)" stroke="rgb(154,117,102)" stroke-width="1" opacity="0.9725490196078431" d="M 100.5 118 L 98.5 121 L 100.5 118 Z " /><path fill="rgb(154,117,102)" stroke="rgb(154,117,102)" stroke-width="1" opacity="0.9725490196078431" d="M 93.5 123 L 95 125.5 L 93.5 126 Q 90.5 124.5 93.5 123 Z " /><path fill="rgb(154,117,102)" stroke="rgb(154,117,102)" stroke-width="1" opacity="0.9725490196078431" d="M 97.5 128 L 98 130 L 96 129.5 L 97.5 128 Z " /><path fill="rgb(154,117,102)" stroke="rgb(154,117,102)" stroke-width="1" opacity="0.9725490196078431" d="M 93.5 129 L 95 131.5 L 94 131.5 L 93.5 129 Z " /><path fill="rgb(154,117,102)" stroke="rgb(154,117,102)" stroke-width="1" opacity="0.9725490196078431" d="M 103.5 131 L 102.5 133 L 103.5 131 Z " /><path fill="rgb(154,117,102)" stroke="rgb(154,117,102)" stroke-width="1" opacity="0.9725490196078431" d="M 96.5 132 L 98 134.5 L 95 136 L 96.5 132 Z " /><path fill="rgb(154,117,102)" stroke="rgb(154,117,102)" stroke-width="1" opacity="0.9725490196078431" d="M 100.5 135 L 99.5 137 L 98 136.5 L 100.5 135 Z " /><path fill="rgb(0,0,0)" stroke="rgb(0,0,0)" stroke-width="1" opacity="0" d="M 0 0 L 187 0 L 187 201 L 176.5 201 L 176 199.5 L 177 197.5 L 177 195.5 L 177 169.5 L 176 165.5 Q 178.3 164.3 177 159.5 L 174 154.5 L 174 146.5 L 174 144.5 L 174 139.5 Q 171.3 138.8 172 134.5 Q 174.3 133.3 173 128.5 L 170 122.5 L 170 118.5 L 166.5 115 Q 155.6 106.4 140.5 102 L 134 96.5 L 129.5 90 Q 122.3 89.8 120 84.5 L 119 73.5 L 129 50.5 L 129 42.5 L 123 29 L 118.5 26 L 108.5 24 L 99.5 19 L 90.5 19 L 83.5 22 L 77 27.5 L 72 39.5 L 72 45.5 L 76 57.5 L 74 56.5 L 74 55 L 70 55 L 68.5 58 L 68 55 L 64 54 L 61.5 62 Q 60.4 59.3 57 60 L 53 79.5 L 53 89.5 Q 55.6 92.4 55 98.5 L 52 100 L 37 121.5 L 35 129.5 L 29 136.5 L 26 146.5 L 23 151.5 L 23 153.5 L 23 159.5 L 26 167 L 31.5 169 L 40.5 170 Q 50.7 167.7 57.5 162 L 61 162 Q 62.6 173.5 59 180.5 L 59 182.5 Q 59.4 192.9 55 198.5 Q 57.2 199.8 54.5 201 L 0.5 201 L 0 200.5 L 0 0 Z " /><path fill="rgb(0,0,0)" stroke="rgb(0,0,0)" stroke-width="1" opacity="0" d="M 75.5 65 Q 75.4 73.6 80 77.5 L 75 80.5 Q 75.7 83.1 73 82 L 75.5 65 Z " /><path fill="rgb(0,0,0)" stroke="rgb(0,0,0)" stroke-width="1" opacity="0" d="M 81.5 81 Q 84.8 84.8 85 91.5 L 87.5 94 L 92 94.5 Q 89.8 95.7 91 100.5 L 88.5 103 L 74.5 104 L 71 105 Q 69.9 102.3 72.5 103 L 78 98.5 L 80 93.5 L 81.5 81 Z " /><path fill="rgb(234,205,194)" stroke="rgb(234,205,194)" stroke-width="1" opacity="0.9529411764705882" d="M 90.5 19 L 91 21 L 89 20.5 L 90.5 19 Z " /><path fill="rgb(234,205,194)" stroke="rgb(234,205,194)" stroke-width="1" opacity="0.9529411764705882" d="M 93.5 20 L 96 20.5 L 93.5 21 L 93.5 20 Z " /><path fill="rgb(234,205,194)" stroke="rgb(234,205,194)" stroke-width="1" opacity="0.9529411764705882" d="M 98.5 20 Q 103 19 104 21.5 L 102.5 21 Q 97.5 22 98.5 20 Z " /><path fill="rgb(234,205,194)" stroke="rgb(234,205,194)" stroke-width="1" opacity="0.9529411764705882" d="M 86.5 21 L 85.5 23 L 86.5 21 Z " /><path fill="rgb(234,205,194)" stroke="rgb(234,205,194)" stroke-width="1" opacity="0.9529411764705882" d="M 83.5 22 L 84 24 L 82 23.5 L 83.5 22 Z " /><path fill="rgb(234,205,194)" stroke="rgb(234,205,194)" stroke-width="1" opacity="0.9529411764705882" d="M 92.5 34 L 96 35 L 97 37.5 Q 94.7 38.8 96 43.5 L 97 43.5 L 98.5 40 L 100 49 Q 91.3 47.1 88 51.5 L 91.5 57 L 96.5 59 L 96.5 57 L 99.5 56 L 102 57 L 100.5 54 L 94 52.5 L 99.5 51 L 102 52 L 101 49.5 L 102 46.5 L 101 41 Q 104.3 39.7 103 44.5 L 105 50.5 L 107.5 53 Q 111.3 52.3 112 54.5 L 113 61 Q 115.7 62.1 115 59.5 L 121.5 54 L 125 59.5 L 120.5 69 L 116 70.5 L 118 71 L 119 73.5 L 120 84.5 L 124.5 89 Q 127.1 88.2 126 91.5 L 127 93.5 L 115 115.5 L 99.5 136 L 99 123.5 L 98 121.5 Q 102 114.5 112 113.5 L 101.5 107 L 96.5 106 L 92.5 108 L 91 100.5 L 91 98.5 L 92 94 Q 87 94.8 85 91.5 Q 85.7 83.8 81.5 81 Q 78.7 85.2 80 93.5 L 78 98.5 L 74.5 102 L 71 103 L 66 110.5 L 67.5 111 L 69.5 110 L 68.5 112 L 60.5 116 L 58 115 L 53 102.5 Q 55.7 100.2 55 94.5 L 53 89.5 L 54 87.5 Q 51.5 86 53 80.5 L 56 69.5 L 56 62.5 L 58.5 60 L 61.5 62 L 64 54 L 68 55 L 68.5 58 L 70 55 L 74 55 L 74 56.5 L 76 57.5 L 75 53 L 78 53.5 L 77 58 L 79 58.5 L 78.5 60 Q 83.3 60.8 84 57.5 L 84 54.5 L 80.5 50 L 75 49.5 L 77.5 46 L 81 47 L 82.5 44 L 84 43.5 Q 80.5 42 83 40.5 L 85.5 36 L 92.5 34 Z M 119 59 L 117 61 L 119 61 L 119 59 Z M 73 60 L 71 63 L 72 65 L 73 63 L 73 60 Z M 71 65 L 69 67 L 70 72 L 71 68 L 71 65 Z M 76 65 Q 73 68 74 76 L 73 79 Q 71 84 75 83 L 76 80 L 80 78 L 76 71 L 76 65 Z M 87 66 L 87 67 L 90 67 L 87 66 Z M 82 67 L 80 70 L 78 70 L 83 80 Q 86 81 84 83 Q 87 84 86 87 L 89 86 L 89 83 Q 85 84 86 82 L 88 82 L 94 80 L 98 76 L 97 74 L 90 75 L 87 76 L 85 75 L 92 74 L 83 73 L 81 74 L 83 69 L 84 71 L 86 70 Q 85 66 82 67 Z M 69 72 L 68 75 L 69 75 L 69 72 Z M 80 81 L 79 84 L 80 84 L 80 81 Z M 121 88 L 121 90 L 123 89 L 121 88 Z M 99 92 L 92 94 Q 95 95 94 101 L 100 106 L 102 106 L 106 101 L 104 102 L 99 96 L 101 93 L 99 92 Z " /><path fill="rgb(27,22,33)" stroke="rgb(27,22,33)" stroke-width="1" opacity="0.9921568627450981" d="M 100.5 24 L 102 24.5 L 99.5 26 L 100.5 24 Z " /><path fill="rgb(27,22,33)" stroke="rgb(27,22,33)" stroke-width="1" opacity="0.9921568627450981" d="M 83.5 25 L 85.5 26 L 89.5 25 L 93.5 27 L 97.5 25 L 97.5 27 L 100 28.5 Q 100.8 30.8 98.5 30 Q 95.8 32.8 89.5 32 L 83.5 36 Q 80 34 84.5 32 L 95 29.5 L 91 29 L 89.5 26 L 88 26.5 L 90 29.5 L 86.5 27 L 84 28.5 L 82.5 32 L 82 30.5 L 84 27.5 L 82.5 27 L 78.5 32 L 79 30.5 L 80.5 27 L 83.5 25 Z " /><path fill="rgb(27,22,33)" stroke="rgb(27,22,33)" stroke-width="1" opacity="0.9921568627450981" d="M 99.5 31 L 100 33.5 L 99 33.5 L 99.5 31 Z " /><path fill="rgb(27,22,33)" stroke="rgb(27,22,33)" stroke-width="1" opacity="0.9921568627450981" d="M 124.5 41 L 127 49 Q 123 50.4 125 43.5 L 124.5 41 Z " /><path fill="rgb(27,22,33)" stroke="rgb(27,22,33)" stroke-width="1" opacity="0.9921568627450981" d="M 114.5 44 L 116 49 Q 113 48 114 51 Q 117 50 116 53 Q 113.3 54.1 114 51.5 L 113 48.5 L 114.5 44 Z " /><path fill="rgb(27,22,33)" stroke="rgb(27,22,33)" stroke-width="1" opacity="0.9921568627450981" d="M 119.5 45 L 120 47.5 L 119 47.5 L 119.5 45 Z " /><path fill="rgb(27,22,33)" stroke="rgb(27,22,33)" stroke-width="1" opacity="0.9921568627450981" d="M 122.5 53 Q 124.8 52.3 124 54.5 L 122.5 53 Z " /><path fill="rgb(27,22,33)" stroke="rgb(27,22,33)" stroke-width="1" opacity="0.9921568627450981" d="M 93.5 75 L 95 75.5 Q 94 78 89.5 77 L 89.5 76 L 93.5 75 Z " /><path fill="rgb(27,22,33)" stroke="rgb(27,22,33)" stroke-width="1" opacity="0.9921568627450981" d="M 88.5 78 L 87.5 80 L 88.5 78 Z " /><path fill="rgb(27,22,33)" stroke="rgb(27,22,33)" stroke-width="1" opacity="0.9921568627450981" d="M 127.5 92 L 133 96.5 L 135.5 100 L 147.5 107 L 154.5 109 L 165.5 117 L 168 117 L 169 123.5 L 172 127.5 L 172 130.5 Q 168.5 132 171 133.5 Q 170.2 138.8 173 140.5 L 173 150.5 Q 171.5 153.5 170 150.5 L 166 144.5 L 167.5 145 L 171 144 L 168 136.5 L 163 129.5 L 169 125.5 L 166 124 L 165 120 L 157.5 123 L 157 121.5 L 159 118.5 L 154 121.5 L 153.5 120 L 152.5 122 L 151 119 L 148.5 120 L 148 118 L 145.5 117 L 139.5 119 L 141 116.5 L 138 113.5 Q 138.8 111.3 136.5 112 L 136.5 111 L 140 110 Q 141.3 107 137.5 108 L 129.5 112 L 129 110 Q 124 110.8 122 107.5 L 121 104.5 L 123 104.5 L 122 102.5 L 124 102.5 L 126 98.5 L 125.5 97 L 127 96.5 L 126.5 95 Q 128.8 95.8 128 93.5 L 127.5 92 Z M 125 107 L 126 108 L 127 109 Q 128 106 125 107 Z M 170 126 L 169 128 L 171 129 L 170 126 Z " /><path fill="rgb(27,22,33)" stroke="rgb(27,22,33)" stroke-width="1" opacity="0.9921568627450981" d="M 52.5 102 L 54 107.5 L 53.5 109 L 55 109.5 L 54.5 111 L 56 111.5 L 56 113.5 L 48.5 123 Q 47.3 120.7 46 123.5 L 47 126 L 42 124 Q 40.9 126.7 43.5 126 Q 46.3 127.3 44 128.5 L 41.5 134 L 40 133.5 L 42 132.5 L 40 132 L 42 126.5 L 41 124 Q 38 122.8 39 126.5 L 37 126.5 L 36.5 129 L 36 126.5 L 52.5 102 Z " /><path fill="rgb(27,22,33)" stroke="rgb(27,22,33)" stroke-width="1" opacity="0.9921568627450981" d="M 87 103 L 90 104.5 L 88 111 Q 84.2 109.5 85 112.5 L 82 110.5 L 85 110 L 87 103 Z " /><path fill="rgb(27,22,33)" stroke="rgb(27,22,33)" stroke-width="1" opacity="0.9921568627450981" d="M 74.5 105 L 82 105.5 Q 78.3 108.8 71.5 109 L 69 108.5 L 70 106 L 74.5 105 Z " /><path fill="rgb(27,22,33)" stroke="rgb(27,22,33)" stroke-width="1" opacity="0.9921568627450981" d="M 96 107 L 100 108.5 L 95 110.5 L 95.5 112 L 93.5 111 L 92 111.5 Q 95.1 109.8 93.5 108 L 95.5 109 L 96 107 Z " /><path fill="rgb(27,22,33)" stroke="rgb(27,22,33)" stroke-width="1" opacity="0.9921568627450981" d="M 104.5 109 L 106 110.5 L 105 113.5 L 103.5 116 L 101.5 116 L 100 116.5 L 100.5 118 Q 98.3 117.3 99 119.5 L 97.5 127 L 95 126.5 L 96 123.5 L 93 120.5 L 94.5 117 Q 95.8 119.3 97 116.5 L 95.5 114 L 94 114.5 L 100.5 111 L 102.5 111 Q 105 111.7 104.5 109 Z M 100 113 Q 100 117 102 114 L 100 113 Z " /><path fill="rgb(27,22,33)" stroke="rgb(27,22,33)" stroke-width="1" opacity="0.9921568627450981" d="M 119.5 111 L 122 112.5 Q 122.7 115.1 120 114 L 119.5 111 Z " /><path fill="rgb(27,22,33)" stroke="rgb(27,22,33)" stroke-width="1" opacity="0.9921568627450981" d="M 90.5 112 L 91.5 114 L 90.5 112 Z " /><path fill="rgb(27,22,33)" stroke="rgb(27,22,33)" stroke-width="1" opacity="0.9921568627450981" d="M 87.5 113 L 88 115.5 L 86 118.5 L 87 119.5 L 84 122.5 Q 85.5 126.9 82.5 126 L 79 127 L 79 124 Q 82 125.3 81 121.5 L 87.5 113 Z " /><path fill="rgb(27,22,33)" stroke="rgb(27,22,33)" stroke-width="1" opacity="0.9921568627450981" d="M 131.5 113 L 137 115.5 L 135.5 118 L 134.5 115 Q 130.8 114.7 131.5 113 Z " /><path fill="rgb(27,22,33)" stroke="rgb(27,22,33)" stroke-width="1" opacity="0.9921568627450981" d="M 126.5 117 L 132 119 L 132.5 121 L 135 119.5 L 127.5 130 L 128 128.5 L 132 121.5 L 127.5 119 L 126.5 117 Z " /><path fill="rgb(27,22,33)" stroke="rgb(27,22,33)" stroke-width="1" opacity="0.9921568627450981" d="M 113.5 118 L 114.5 120 L 113.5 118 Z " /><path fill="rgb(27,22,33)" stroke="rgb(27,22,33)" stroke-width="1" opacity="0.9921568627450981" d="M 89 123 Q 93.1 121.3 92 125.5 Q 96 127.5 92 129.5 L 90.5 133 Q 87.9 133.8 89 130.5 L 89 128.5 L 89 123 Z M 91 126 L 91 129 L 93 128 L 91 126 Z " /><path fill="rgb(27,22,33)" stroke="rgb(27,22,33)" stroke-width="1" opacity="0.9921568627450981" d="M 125.5 132 L 124.5 134 L 125.5 132 Z " /><path fill="rgb(27,22,33)" stroke="rgb(27,22,33)" stroke-width="1" opacity="0.9921568627450981" d="M 34.5 133 L 35 135.5 L 33.5 143 L 32.5 140 L 30.5 145 L 28 144 L 26 153.5 L 27 156.5 L 27 165.5 L 28.5 167 L 33 168.5 L 31.5 169 L 26 165.5 L 24 155.5 L 25 152.5 L 24.5 151 Q 27.5 151.9 26 147.5 L 27 144.5 L 30.5 137 Q 32.8 137.8 32 135.5 L 34.5 133 Z " /><path fill="rgb(27,22,33)" stroke="rgb(27,22,33)" stroke-width="1" opacity="0.9921568627450981" d="M 92 133 Q 94.7 131.9 94 134.5 L 95 137 L 97.5 136 L 97 137.5 L 96.5 139 Q 95.3 136.8 94 139.5 L 94.5 142 L 97 140.5 L 96 143 Q 93 142 94 145 L 91 145 L 90 140.5 L 91.5 140 L 93 140.5 L 95 137.5 L 92 135.5 L 91.5 137 L 91 135.5 L 92 133 Z M 92 142 L 92 144 L 94 143 L 92 142 Z " /><path fill="rgb(27,22,33)" stroke="rgb(27,22,33)" stroke-width="1" opacity="0.9921568627450981" d="M 99.5 137 L 98.5 139 L 99.5 137 Z " /><path fill="rgb(27,22,33)" stroke="rgb(27,22,33)" stroke-width="1" opacity="0.9921568627450981" d="M 89.5 152 L 91 152.5 L 89.5 156 L 88 153.5 L 89.5 152 Z " /><path fill="rgb(27,22,33)" stroke="rgb(27,22,33)" stroke-width="1" opacity="0.9921568627450981" d="M 172.5 153 L 175 158.5 L 175 168.5 Q 177.7 170.8 177 176.5 L 175 187.5 L 176 188.5 L 176 198.5 L 174.5 201 L 164 186.5 L 166 187.5 L 168 190.5 L 174.5 196 L 175 188.5 L 174 182 Q 171.3 183.1 172 180.5 L 171.5 178 Q 169.3 178.8 170 176.5 L 173 173.5 L 174 169.5 L 173.5 167 Q 170.9 167.8 172 164.5 L 171 161.5 L 168 156.5 Q 169.3 153.8 170.5 156 Q 173.4 156.7 172.5 153 Z " /><path fill="rgb(27,22,33)" stroke="rgb(27,22,33)" stroke-width="1" opacity="0.9921568627450981" d="M 61.5 169 L 63 195.5 L 61.5 198 L 60.5 194 L 59 199.5 L 64 200.5 L 56 201 L 60 189.5 L 61.5 169 Z " /><path fill="rgb(27,22,33)" stroke="rgb(27,22,33)" stroke-width="1" opacity="0.9921568627450981" d="M 84.5 188 L 87 189.5 L 85.5 193 L 82 191.5 L 84.5 188 Z " /><path fill="rgb(27,22,33)" stroke="rgb(27,22,33)" stroke-width="1" opacity="0.9921568627450981" d="M 145.5 198 L 146 200.5 L 145 200.5 L 145.5 198 Z " /><path fill="rgb(113,69,67)" stroke="rgb(113,69,67)" stroke-width="1" opacity="0.20392156862745098" d="M 91.5 19 L 100 19.5 L 91.5 20 L 91.5 19 Z " /><path fill="rgb(113,69,67)" stroke="rgb(113,69,67)" stroke-width="1" opacity="0.20392156862745098" d="M 104.5 21 L 108 23.5 L 106.5 24 L 104.5 21 Z " /><path fill="rgb(113,69,67)" stroke="rgb(113,69,67)" stroke-width="1" opacity="0.20392156862745098" d="M 80.5 24 L 78.5 27 L 80.5 24 Z " /><path fill="rgb(113,69,67)" stroke="rgb(113,69,67)" stroke-width="1" opacity="0.20392156862745098" d="M 118.5 26 L 120.5 29 L 118.5 26 Z " /><path fill="rgb(113,69,67)" stroke="rgb(113,69,67)" stroke-width="1" opacity="0.20392156862745098" d="M 77.5 28 L 77 29.5 L 76.5 31 L 76 29.5 L 77.5 28 Z " /><path fill="rgb(113,69,67)" stroke="rgb(113,69,67)" stroke-width="1" opacity="0.20392156862745098" d="M 123.5 31 L 124.5 33 L 123.5 31 Z " /><path fill="rgb(113,69,67)" stroke="rgb(113,69,67)" stroke-width="1" opacity="0.20392156862745098" d="M 125.5 34 L 127 37.5 L 126 37.5 L 125.5 34 Z " /><path fill="rgb(113,69,67)" stroke="rgb(113,69,67)" stroke-width="1" opacity="0.20392156862745098" d="M 72 39 L 74 39.5 Q 71.8 40.7 73 45.5 Q 75.7 47.8 75 53.5 L 74 53.5 L 72 39 Z " /><path fill="rgb(113,69,67)" stroke="rgb(113,69,67)" stroke-width="1" opacity="0.20392156862745098" d="M 126.5 39 Q 128.8 38.3 128 40.5 L 126.5 39 Z " /><path fill="rgb(113,69,67)" stroke="rgb(113,69,67)" stroke-width="1" opacity="0.20392156862745098" d="M 128.5 42 L 129 50.5 L 126.5 56 L 126 53.5 L 128 50.5 L 128.5 42 Z " /><path fill="rgb(113,69,67)" stroke="rgb(113,69,67)" stroke-width="1" opacity="0.20392156862745098" d="M 80.5 84 L 81 86.5 L 80 86.5 L 80.5 84 Z " /><path fill="rgb(113,69,67)" stroke="rgb(113,69,67)" stroke-width="1" opacity="0.20392156862745098" d="M 128.5 90 L 131 91.5 L 135.5 98 L 140 101.5 L 136.5 99 L 133 96.5 L 128.5 90 Z " /><path fill="rgb(113,69,67)" stroke="rgb(113,69,67)" stroke-width="1" opacity="0.20392156862745098" d="M 53.5 100 L 48 106.5 L 38 121.5 L 36.5 126 L 36 123.5 L 47 106.5 L 53.5 100 Z " /><path fill="rgb(113,69,67)" stroke="rgb(113,69,67)" stroke-width="1" opacity="0.20392156862745098" d="M 90.5 101 L 89.5 103 L 90.5 101 Z " /><path fill="rgb(113,69,67)" stroke="rgb(113,69,67)" stroke-width="1" opacity="0.20392156862745098" d="M 141.5 102 L 151 106.5 L 149.5 106 L 141.5 103 L 141.5 102 Z " /><path fill="rgb(113,69,67)" stroke="rgb(113,69,67)" stroke-width="1" opacity="0.20392156862745098" d="M 84.5 103 L 87 103.5 L 84.5 104 L 84.5 103 Z " /><path fill="rgb(113,69,67)" stroke="rgb(113,69,67)" stroke-width="1" opacity="0.20392156862745098" d="M 74.5 104 L 81 104.5 L 74.5 105 L 74.5 104 Z " /><path fill="rgb(113,69,67)" stroke="rgb(113,69,67)" stroke-width="1" opacity="0.20392156862745098" d="M 152.5 107 Q 163.4 110.6 170 118.5 L 169.5 120 L 166.5 116 L 152.5 108 L 152.5 107 Z " /><path fill="rgb(113,69,67)" stroke="rgb(113,69,67)" stroke-width="1" opacity="0.20392156862745098" d="M 170.5 123 L 172 126.5 L 171 126.5 L 170.5 123 Z " /><path fill="rgb(113,69,67)" stroke="rgb(113,69,67)" stroke-width="1" opacity="0.20392156862745098" d="M 172.5 128 L 173 133.5 L 171.5 137 L 171 134.5 L 172.5 128 Z " /><path fill="rgb(113,69,67)" stroke="rgb(113,69,67)" stroke-width="1" opacity="0.20392156862745098" d="M 34.5 130 L 34 131.5 L 28.5 139 L 29 137.5 L 34.5 130 Z " /><path fill="rgb(113,69,67)" stroke="rgb(113,69,67)" stroke-width="1" opacity="0.20392156862745098" d="M 172.5 138 L 174 141.5 L 173 141.5 L 172.5 138 Z " /><path fill="rgb(113,69,67)" stroke="rgb(113,69,67)" stroke-width="1" opacity="0.20392156862745098" d="M 24.5 149 L 25 150.5 L 23 151.5 L 24.5 149 Z " /><path fill="rgb(113,69,67)" stroke="rgb(113,69,67)" stroke-width="1" opacity="0.20392156862745098" d="M 23.5 153 L 24 159.5 L 23 159.5 L 23.5 153 Z " /><path fill="rgb(113,69,67)" stroke="rgb(113,69,67)" stroke-width="1" opacity="0.20392156862745098" d="M 174.5 155 Q 177.9 157.6 177 164.5 L 176 168.5 L 177 171.5 L 176 171.5 L 175 165.5 Q 177.2 164.3 176 159.5 L 174.5 155 Z " /><path fill="rgb(113,69,67)" stroke="rgb(113,69,67)" stroke-width="1" opacity="0.20392156862745098" d="M 60.5 175 L 61 179.5 L 59 180.5 L 60.5 175 Z " /><path fill="rgb(113,69,67)" stroke="rgb(113,69,67)" stroke-width="1" opacity="0.20392156862745098" d="M 176.5 178 L 177 195.5 L 176 195.5 L 176.5 178 Z " /><path fill="rgb(113,69,67)" stroke="rgb(113,69,67)" stroke-width="1" opacity="0.20392156862745098" d="M 59.5 182 L 60 186.5 L 59 186.5 L 59.5 182 Z " /><path fill="rgb(113,69,67)" stroke="rgb(113,69,67)" stroke-width="1" opacity="0.20392156862745098" d="M 58.5 188 L 59 190.5 L 58 190.5 L 58.5 188 Z " /><path fill="rgb(113,69,67)" stroke="rgb(113,69,67)" stroke-width="1" opacity="0.20392156862745098" d="M 56.5 196 L 57 197.5 L 55 198.5 L 56.5 196 Z " /><path fill="rgb(14,11,22)" stroke="rgb(14,11,22)" stroke-width="1" opacity="0.9921568627450981" d="M 85 27 L 87 27.5 Q 84.5 29 88 30.5 L 87.5 32 Q 84.3 30.8 85 27 Z " /><path fill="rgb(14,11,22)" stroke="rgb(14,11,22)" stroke-width="1" opacity="0.9921568627450981" d="M 90.5 29 L 95 29.5 L 89.5 31 L 90.5 29 Z " /><path fill="rgb(14,11,22)" stroke="rgb(14,11,22)" stroke-width="1" opacity="0.9921568627450981" d="M 86.5 105 L 85 107.5 Q 86.3 111.3 82.5 110 L 84.5 113 L 85 111 Q 88.7 112.5 88 109.5 L 89.5 107 L 91 109.5 L 89 109.5 L 89 117.5 L 86 128.5 L 86 135 L 82 135 L 82 133 Q 78.3 134.5 79 131.5 L 79.5 130 L 76.5 131 L 73 126.5 L 73 122.5 L 74.5 118 L 75.5 123 L 80.5 116 L 84 114.5 L 81 109 L 86.5 105 Z M 88 113 L 86 115 L 88 116 L 88 113 Z M 86 115 L 81 122 Q 82 125 79 124 L 79 127 L 83 126 Q 86 127 84 123 L 87 120 L 87 118 L 86 115 Z " /><path fill="rgb(14,11,22)" stroke="rgb(14,11,22)" stroke-width="1" opacity="0.9921568627450981" d="M 80.5 106 L 78.5 109 L 75 110 L 73 113.5 L 72.5 119 L 72 109 L 80.5 106 Z " /><path fill="rgb(14,11,22)" stroke="rgb(14,11,22)" stroke-width="1" opacity="0.9921568627450981" d="M 121.5 106 L 123.5 109 L 129 110 L 129.5 112 L 132 110.5 L 131.5 112 L 135.5 111 L 138 112 L 141 116.5 L 140.5 118 L 145.5 117 L 148 118 L 148.5 120 L 151 119 L 152.5 122 L 153.5 120 L 154.5 122 L 159 118.5 L 157 122.5 L 158.5 122 L 165 120 L 166 124 L 171 127.5 L 170.5 129 L 168.5 126 L 163 129.5 L 168 136.5 L 171 144 L 167.5 145 L 166 144.5 L 172 152.5 L 172 156 L 169.5 155 Q 166.8 156.3 169 157.5 L 172 162.5 L 172 164.5 Q 170.9 167.8 173.5 167 L 173 170.5 Q 173.8 174.8 171 175.5 L 171.5 177 L 170 176.5 Q 169.3 178.8 171.5 178 L 172 180.5 L 172 182 L 174 182.5 L 174 187.5 Q 176.8 189.3 175 195.5 L 170.5 192 L 168 190.5 Q 168.8 188.3 166.5 189 L 167 190.5 L 174 201 L 158 200.5 Q 160.5 199 157 197.5 L 156 194 L 154 194 L 154 189 L 156 189 L 156 191 Q 158.7 189.9 158 192.5 L 161 198 L 164 198.5 L 163.5 200 L 173 199.5 L 171 199 Q 168.9 192.1 162.5 188 Q 160.3 188.8 161 186.5 L 153 176.5 L 151 166.5 L 149 163.5 L 149 159 L 153 160 Q 154.1 157.3 151.5 158 L 149 157.5 L 148 152.5 L 150 153.5 Q 148.9 156.8 151.5 156 L 153 155.5 L 154 164.5 L 156 168.5 Q 153.8 169.7 156.5 171 L 160 172 L 159 176 L 166 174.5 L 161 170.5 L 156 164.5 L 158 160.5 L 157.5 158 L 156 158.5 Q 155.3 154.3 158 153.5 L 153 150.5 L 153.5 149 Q 151.3 148.3 152 150.5 L 151 150.5 Q 149.9 146.3 154 148 L 154 144.5 L 153 144.5 L 152.5 146 L 152 144 Q 147.9 142.3 149 146.5 L 148 146.5 Q 147 142 149.5 141 Q 151.2 143.8 153 139.5 L 154 136.5 L 150 134.5 Q 153.6 132.6 153 126.5 L 152 126.5 L 149.5 131 L 147.5 128 Q 144.5 128.9 146 124.5 L 144 125.5 L 145 135 Q 148 133.8 147 137.5 L 145.5 137 L 144 137.5 L 146 141.5 L 144 141.5 L 141.5 151 L 140.5 148 L 138.5 151 L 135 151.5 L 137.5 153 L 139 152.5 L 140 156.5 L 136.5 163 Q 133.5 162.5 135 169.5 L 135.5 171 L 134 170.5 Q 134.9 173.5 130.5 172 L 125.5 176 L 125 173 L 128 171.5 L 127 169.5 L 128 167 L 125.5 168 L 124.5 165 L 120.5 165 L 117 166.5 L 116.5 169 L 114.5 169 L 112.5 168 L 112 170 Q 108.7 171.1 110 167 Q 113.8 168.5 113 165.5 L 113 163.5 Q 112.3 161.3 114.5 162 L 116.5 163 L 118 160.5 L 117 155 L 115 155.5 L 116 159 L 113 159 L 113 154 L 115 154 L 115 152 Q 117.7 153.1 117 150.5 Q 121 149.1 120 144 L 125.5 145 L 128.5 144 L 129.5 145 L 141.5 145 L 141.5 144 L 124.5 142 L 122 143 L 135 121.5 L 132 121.5 L 133 123.5 L 130 124.5 L 131 126.5 L 128 127.5 L 129 129.5 L 109 155.5 L 109 157.5 L 97.5 171 L 98 169.5 L 102 164.5 L 97.5 164 L 97.5 166 L 95.5 167 L 93 166 L 104 136 L 102 135.5 L 109 126.5 L 108.5 125 L 110 125.5 L 111.5 123 L 113 122.5 L 111 121.5 L 115 120 L 117 114 L 119 113.5 L 118.5 112 Q 121.1 111.3 120 114 L 122 114 L 120.5 111 L 119 110.5 L 121.5 106 Z M 132 113 L 132 114 L 137 117 L 137 116 L 132 113 Z M 127 117 Q 127 120 132 121 L 132 119 L 127 117 Z M 137 118 L 134 120 Q 136 123 137 120 L 137 118 Z M 154 131 L 152 133 L 154 133 L 154 131 Z M 120 152 L 119 156 L 119 157 Q 121 158 120 155 Q 122 153 120 152 Z M 122 155 Q 119 161 123 163 Q 125 162 123 161 L 124 158 L 124 160 L 125 160 Q 126 155 122 157 L 122 155 Z M 101 162 L 101 163 L 103 163 L 101 162 Z M 153 162 L 152 166 L 153 166 L 153 162 Z " /><path fill="rgb(14,11,22)" stroke="rgb(14,11,22)" stroke-width="1" opacity="0.9921568627450981" d="M 69.5 107 L 70.5 109 L 69.5 107 Z " /><path fill="rgb(14,11,22)" stroke="rgb(14,11,22)" stroke-width="1" opacity="0.9921568627450981" d="M 124.5 107 Q 127.8 105.9 127 108.5 L 125.5 108 L 124.5 107 Z " /><path fill="rgb(14,11,22)" stroke="rgb(14,11,22)" stroke-width="1" opacity="0.9921568627450981" d="M 55.5 112 L 56.5 114 L 55.5 112 Z " /><path fill="rgb(14,11,22)" stroke="rgb(14,11,22)" stroke-width="1" opacity="0.9921568627450981" d="M 74.5 114 L 78 114.5 L 75.5 116 L 74.5 114 Z " /><path fill="rgb(14,11,22)" stroke="rgb(14,11,22)" stroke-width="1" opacity="0.9921568627450981" d="M 55.5 115 L 54.5 117 L 55.5 115 Z " /><path fill="rgb(14,11,22)" stroke="rgb(14,11,22)" stroke-width="1" opacity="0.9921568627450981" d="M 98.5 116 L 100 118.5 L 98 117.5 L 98.5 116 Z " /><path fill="rgb(14,11,22)" stroke="rgb(14,11,22)" stroke-width="1" opacity="0.9921568627450981" d="M 50.5 121 L 47.5 125 L 50.5 121 Z " /><path fill="rgb(14,11,22)" stroke="rgb(14,11,22)" stroke-width="1" opacity="0.9921568627450981" d="M 39 124 Q 41.7 122.9 41 125.5 L 42 125.5 Q 41.3 123.3 43.5 124 L 42 126.5 Q 39.2 129.5 40 135 L 43 135.5 L 35.5 147 L 34 146.5 L 35 149.5 L 33 153.5 L 36 156.5 L 35 157.5 L 33.5 161 L 31.5 162 L 32 160.5 L 33 156.5 L 30 158.5 L 29 161.5 Q 32.1 163.3 30.5 165 L 34.5 164 L 34.5 165 Q 31.9 164.2 33 167.5 L 35.5 168 Q 40.3 166.7 39 170 L 31 168 L 30.5 166 L 28.5 167 L 27 165.5 L 27 156.5 L 26 155.5 L 27 152.5 L 28 149.5 L 27 147.5 L 28 144 L 31.5 146 L 32 144.5 L 31 142.5 L 32.5 140 L 33.5 143 Q 33.6 132.6 37.5 126 L 39 126.5 L 39 124 Z " /><path fill="rgb(14,11,22)" stroke="rgb(14,11,22)" stroke-width="1" opacity="0.9921568627450981" d="M 46.5 126 L 45 128.5 L 44.5 130 L 44 128.5 L 46.5 126 Z " /><path fill="rgb(14,11,22)" stroke="rgb(14,11,22)" stroke-width="1" opacity="0.9921568627450981" d="M 89.5 129 L 92 132.5 L 90 131.5 L 89.5 129 Z " /><path fill="rgb(14,11,22)" stroke="rgb(14,11,22)" stroke-width="1" opacity="0.9921568627450981" d="M 89.5 133 L 91 137.5 L 90 137.5 L 89.5 133 Z " /><path fill="rgb(14,11,22)" stroke="rgb(14,11,22)" stroke-width="1" opacity="0.9921568627450981" d="M 150.5 136 L 150 137.5 L 149.5 139 L 149 137.5 L 150.5 136 Z " /><path fill="rgb(14,11,22)" stroke="rgb(14,11,22)" stroke-width="1" opacity="0.9921568627450981" d="M 90.5 139 L 93 140.5 L 91.5 140 L 90.5 139 Z " /><path fill="rgb(14,11,22)" stroke="rgb(14,11,22)" stroke-width="1" opacity="0.9921568627450981" d="M 97.5 139 L 101 139.5 L 99 143 L 96.5 144 L 97 142.5 L 98 140.5 L 97.5 139 Z " /><path fill="rgb(14,11,22)" stroke="rgb(14,11,22)" stroke-width="1" opacity="0.9921568627450981" d="M 84.5 141 L 85 147.5 L 84 147.5 L 84.5 141 Z " /><path fill="rgb(14,11,22)" stroke="rgb(14,11,22)" stroke-width="1" opacity="0.9921568627450981" d="M 90.5 143 L 91 145 L 94 145.5 L 91.5 146 L 90.5 143 Z " /><path fill="rgb(14,11,22)" stroke="rgb(14,11,22)" stroke-width="1" opacity="0.9921568627450981" d="M 84.5 150 L 85 153.5 L 84 153.5 L 84.5 150 Z " /><path fill="rgb(14,11,22)" stroke="rgb(14,11,22)" stroke-width="1" opacity="0.9921568627450981" d="M 90.5 151 L 92 154 L 90 153.5 L 90.5 151 Z " /><path fill="rgb(14,11,22)" stroke="rgb(14,11,22)" stroke-width="1" opacity="0.9921568627450981" d="M 39.5 153 L 38.5 155 L 39.5 153 Z " /><path fill="rgb(14,11,22)" stroke="rgb(14,11,22)" stroke-width="1" opacity="0.9921568627450981" d="M 90.5 155 L 91.5 157 L 90.5 155 Z " /><path fill="rgb(14,11,22)" stroke="rgb(14,11,22)" stroke-width="1" opacity="0.9921568627450981" d="M 61.5 164 L 62 168.5 L 61 168.5 L 61.5 164 Z " /><path fill="rgb(14,11,22)" stroke="rgb(14,11,22)" stroke-width="1" opacity="0.9921568627450981" d="M 71.5 166 L 72 170.5 L 71 170.5 L 71.5 166 Z " /><path fill="rgb(14,11,22)" stroke="rgb(14,11,22)" stroke-width="1" opacity="0.9921568627450981" d="M 92.5 167 L 95 168 L 96 172.5 L 91.5 178 Q 89.3 177.3 90 179.5 L 83 185.5 Q 86.8 184.2 86 180 Q 88.7 181.1 88 178.5 L 90 175 L 93 174.5 L 92.5 173 L 94 173.5 L 95 171.5 L 92.5 170 L 91 170.5 L 92.5 167 Z " /><path fill="rgb(14,11,22)" stroke="rgb(14,11,22)" stroke-width="1" opacity="0.9921568627450981" d="M 89 172 L 91 172.5 L 89 173.5 L 89 172 Z " /><path fill="rgb(14,11,22)" stroke="rgb(14,11,22)" stroke-width="1" opacity="0.9921568627450981" d="M 121.5 175 L 124 175.5 L 123.5 183 L 123 181 L 121 180.5 L 123 180 Q 124.3 176.7 119.5 178 L 121.5 175 Z " /><path fill="rgb(14,11,22)" stroke="rgb(14,11,22)" stroke-width="1" opacity="0.9921568627450981" d="M 62.5 177 L 64 190.5 L 63 190.5 L 62 188.5 L 62.5 177 Z " /><path fill="rgb(14,11,22)" stroke="rgb(14,11,22)" stroke-width="1" opacity="0.9921568627450981" d="M 126.5 186 L 127 191 L 125 190.5 L 126.5 186 Z " /><path fill="rgb(14,11,22)" stroke="rgb(14,11,22)" stroke-width="1" opacity="0.9921568627450981" d="M 128 186 L 133 186.5 Q 131.8 189.3 130.5 187 L 129 187.5 L 130 189.5 L 128 188.5 L 128 186 Z " /><path fill="rgb(14,11,22)" stroke="rgb(14,11,22)" stroke-width="1" opacity="0.9921568627450981" d="M 83.5 188 L 82.5 190 L 83.5 188 Z " /><path fill="rgb(14,11,22)" stroke="rgb(14,11,22)" stroke-width="1" opacity="0.9921568627450981" d="M 63.5 192 L 65 198.5 L 64.5 200 L 74 200.5 L 64.5 201 L 59 199.5 L 60.5 194 L 61.5 198 L 63.5 192 Z " /><path fill="rgb(14,11,22)" stroke="rgb(14,11,22)" stroke-width="1" opacity="0.9921568627450981" d="M 126.5 194 L 127 196.5 L 126 196.5 L 126.5 194 Z " /><path fill="rgb(14,11,22)" stroke="rgb(14,11,22)" stroke-width="1" opacity="0.9921568627450981" d="M 145.5 194 L 146 197.5 L 144.5 201 L 144 197.5 L 145.5 194 Z " /><path fill="rgb(14,11,22)" stroke="rgb(14,11,22)" stroke-width="1" opacity="0.9921568627450981" d="M 80 195 Q 82.7 193.9 82 196.5 L 80 197.5 L 80 195 Z " /><path fill="rgb(14,11,22)" stroke="rgb(14,11,22)" stroke-width="1" opacity="0.9921568627450981" d="M 79.5 199 L 87 200.5 L 79 201 L 79.5 199 Z " /><path fill="rgb(7,6,12)" stroke="rgb(7,6,12)" stroke-width="1" opacity="0.9921568627450981" d="M 84.5 105 L 86 105.5 Q 84 109.2 82 107.5 L 80.5 110 L 80 108.5 L 84.5 105 Z " /><path fill="rgb(7,6,12)" stroke="rgb(7,6,12)" stroke-width="1" opacity="0.9921568627450981" d="M 77.5 110 L 79 110.5 L 78.5 113 L 76.5 112 L 75 112.5 L 77.5 110 Z " /><path fill="rgb(7,6,12)" stroke="rgb(7,6,12)" stroke-width="1" opacity="0.9921568627450981" d="M 69.5 112 L 71 114.5 L 71 121.5 L 73 129.5 L 72 129.5 L 70.5 125 L 68.5 125 L 65.5 124 L 63 132 L 60.5 131 L 57 133 L 58 137 L 54.5 137 L 48 140.5 L 51.5 141 L 55.5 141 L 57 141.5 L 50 150.5 L 50 152.5 L 49 154.5 L 50 156.5 L 47.5 162 L 45 163.5 L 45.5 165 L 51 161.5 L 53 158.5 L 56 160.5 L 55.5 162 L 57.5 161 L 56.5 163 L 54.5 164 Q 53 161.5 51.5 165 L 48.5 164 L 46 165 L 43.5 169 L 40.5 170 L 40.5 167 L 42.5 168 L 42.5 165 L 39.5 166 L 39.5 165 L 43 163.5 Q 41.2 159.3 39.5 162 L 37.5 161 L 35.5 162 L 36.5 160 L 41 158.5 L 38 158 Q 36.9 155.3 39.5 156 L 47.5 151 L 49 151.5 L 53 146.5 L 50.5 143 L 50 144.5 L 50.5 146 L 48.5 147 Q 47.3 144.8 42.5 146 L 42.5 148 L 40 147 Q 38.5 143.2 41.5 144 L 44 142.5 L 43.5 144 L 48 141.5 Q 45.7 140.3 48.5 139 L 54 137 Q 52.5 133.3 55.5 134 L 57 131.5 L 55.5 132 L 52.5 133 L 50.5 133 Q 47.2 134.1 48 131.5 L 46.5 132 L 44 130.5 L 47 128.5 L 46.5 127 L 48 126.5 Q 45.3 124.7 49.5 123 L 48 125.5 L 50 127.5 L 48.5 129 L 47 129.5 L 50 131 L 51 127 L 54 125.5 L 53.5 124 L 56 125 Q 54.8 122 58.5 123 L 60 120 L 66 117.5 L 65.5 116 L 64 116.5 Q 63.3 114.3 65.5 115 L 68 113.5 Q 64.3 115.3 67.5 117 Q 69.8 117.8 69 115.5 L 69 113.5 L 69.5 112 Z M 68 122 L 69 124 Q 70 121 68 122 Z " /><path fill="rgb(7,6,12)" stroke="rgb(7,6,12)" stroke-width="1" opacity="0.9921568627450981" d="M 55.5 117 L 54.5 119 L 55.5 117 Z " /><path fill="rgb(7,6,12)" stroke="rgb(7,6,12)" stroke-width="1" opacity="0.9921568627450981" d="M 89.5 118 L 89.5 121 Q 86.5 119.5 89.5 118 Z " /><path fill="rgb(7,6,12)" stroke="rgb(7,6,12)" stroke-width="1" opacity="0.9921568627450981" d="M 52.5 119 L 53.5 121 L 52.5 119 Z " /><path fill="rgb(7,6,12)" stroke="rgb(7,6,12)" stroke-width="1" opacity="0.9921568627450981" d="M 51.5 124 L 50.5 126 L 51.5 124 Z " /><path fill="rgb(7,6,12)" stroke="rgb(7,6,12)" stroke-width="1" opacity="0.9921568627450981" d="M 130 127 L 132 127.5 L 130 128.5 L 130 127 Z " /><path fill="rgb(7,6,12)" stroke="rgb(7,6,12)" stroke-width="1" opacity="0.9921568627450981" d="M 86.5 130 L 87.5 132 L 89 131.5 L 90 136.5 L 88.5 136 L 86 134.5 L 86.5 130 Z " /><path fill="rgb(7,6,12)" stroke="rgb(7,6,12)" stroke-width="1" opacity="0.9921568627450981" d="M 127 131 L 129 131.5 L 126 133.5 L 127 131 Z " /><path fill="rgb(7,6,12)" stroke="rgb(7,6,12)" stroke-width="1" opacity="0.9921568627450981" d="M 43.5 132 L 46 133.5 L 43 134.5 Q 46.5 136 44 137.5 L 40.5 142 L 41 140.5 L 43 137.5 L 43 133.5 L 43.5 132 Z " /><path fill="rgb(7,6,12)" stroke="rgb(7,6,12)" stroke-width="1" opacity="0.9921568627450981" d="M 73.5 132 L 74 134.5 L 73 134.5 L 73.5 132 Z " /><path fill="rgb(7,6,12)" stroke="rgb(7,6,12)" stroke-width="1" opacity="0.9921568627450981" d="M 149.5 134 L 150 135.5 L 148 136.5 L 149.5 134 Z " /><path fill="rgb(7,6,12)" stroke="rgb(7,6,12)" stroke-width="1" opacity="0.9921568627450981" d="M 74.5 136 L 75.5 140 L 77 137.5 L 76.5 136 L 79 137 Q 77.5 140.8 80.5 140 L 82 141.5 L 84 163.5 L 85.5 165 L 87 164.5 L 86 167.5 L 88 175.5 L 85.5 180 L 84 176.5 L 87 175.5 L 85 175 L 84.5 173 L 83 173.5 Q 82.3 171.3 84.5 172 L 84 170.5 L 85 167.5 L 83 166.5 L 82.5 171 L 74 141.5 L 74.5 136 Z M 77 141 L 76 144 L 77 144 L 77 141 Z " /><path fill="rgb(7,6,12)" stroke="rgb(7,6,12)" stroke-width="1" opacity="0.9921568627450981" d="M 100.5 137 L 99.5 139 L 100.5 137 Z " /><path fill="rgb(7,6,12)" stroke="rgb(7,6,12)" stroke-width="1" opacity="0.9921568627450981" d="M 123 137 L 125 137.5 L 121.5 142 L 121 140.5 L 123 137 Z " /><path fill="rgb(7,6,12)" stroke="rgb(7,6,12)" stroke-width="1" opacity="0.9921568627450981" d="M 147.5 138 L 148 141.5 L 146.5 144 L 146 142.5 L 147.5 138 Z " /><path fill="rgb(7,6,12)" stroke="rgb(7,6,12)" stroke-width="1" opacity="0.9921568627450981" d="M 62.5 139 L 64 139.5 L 63 142 L 65 142.5 L 64.5 144 Q 66.8 143.3 66 145.5 L 67 145.5 Q 66.3 143.3 68.5 144 L 70 143.5 L 71 153.5 L 73 161 Q 76 159.8 75 163.5 L 80 172.5 L 80 180 Q 84.1 178.3 83 182.5 L 85 182.5 L 84 184.5 L 90 180.5 L 84.5 186 Q 83.3 183.8 82 186.5 L 82 190.5 L 81.5 193 L 80 192.5 L 79.5 196 L 78.5 194 L 77 199 Q 74.3 200.9 67.5 200 L 67.5 199 L 69 199 L 69 196 Q 71.7 197.1 71 194.5 L 71.5 193 Q 65.4 194.3 66 191.5 L 64 181.5 L 65 178.5 L 64 176 L 67 175.5 L 64 175 L 64 169.5 Q 61.3 168.8 62 164.5 Q 65.5 163 63 161.5 L 62 144.5 L 63 142.5 Q 59.3 140.8 62.5 139 Z M 67 157 L 65 160 L 67 168 Q 70 169 68 171 L 70 174 Q 69 176 72 175 L 71 180 L 74 180 Q 76 179 75 182 L 79 184 L 80 185 L 80 181 L 78 178 Q 79 171 76 169 L 73 166 L 74 165 L 72 160 L 71 160 L 67 159 L 67 157 Z " /><path fill="rgb(7,6,12)" stroke="rgb(7,6,12)" stroke-width="1" opacity="0.9921568627450981" d="M 88.5 143 L 91 146.5 L 88 148.5 L 89 146.5 L 88.5 143 Z " /><path fill="rgb(7,6,12)" stroke="rgb(7,6,12)" stroke-width="1" opacity="0.9921568627450981" d="M 120.5 143 L 119 145.5 L 114.5 152 L 113 151.5 L 116 149.5 Q 113.7 148.3 116.5 147 Q 118.8 147.8 118 145.5 L 120.5 143 Z " /><path fill="rgb(7,6,12)" stroke="rgb(7,6,12)" stroke-width="1" opacity="0.9921568627450981" d="M 125.5 143 L 129 143.5 L 125.5 144 L 125.5 143 Z " /><path fill="rgb(7,6,12)" stroke="rgb(7,6,12)" stroke-width="1" opacity="0.9921568627450981" d="M 145 145 L 147 145.5 L 146 147.5 L 147 149.5 L 145 148.5 L 145 145 Z " /><path fill="rgb(7,6,12)" stroke="rgb(7,6,12)" stroke-width="1" opacity="0.9921568627450981" d="M 96.5 148 L 99 148.5 L 98 152 L 96 152.5 L 96 154.5 L 92 167 L 88 165.5 L 87 155.5 L 88.5 156 L 90 156.5 L 89.5 158 L 94 157 Q 95.1 154.3 92.5 155 L 91 155.5 Q 90.3 152.9 93 154 L 93 151.5 L 91 151.5 L 90.5 150 L 87.5 152 L 87.5 151 L 91.5 149 Q 92.6 151.8 96 151 L 96.5 148 Z M 90 160 Q 87 165 91 164 L 92 161 L 90 160 Z " /><path fill="rgb(7,6,12)" stroke="rgb(7,6,12)" stroke-width="1" opacity="0.9921568627450981" d="M 42.5 149 L 41.5 151 L 40 150.5 L 42.5 149 Z " /><path fill="rgb(7,6,12)" stroke="rgb(7,6,12)" stroke-width="1" opacity="0.9921568627450981" d="M 144.5 150 L 145 152.5 L 144 157 L 142 156.5 L 144.5 150 Z " /><path fill="rgb(7,6,12)" stroke="rgb(7,6,12)" stroke-width="1" opacity="0.9921568627450981" d="M 146.5 151 Q 149.3 153.7 148 160.5 L 147 160.5 L 146 154.5 L 146 152.5 L 146.5 151 Z " /><path fill="rgb(7,6,12)" stroke="rgb(7,6,12)" stroke-width="1" opacity="0.9921568627450981" d="M 111.5 154 L 113 154.5 L 110 156.5 L 107.5 160 L 109 157.5 L 111.5 154 Z " /><path fill="rgb(7,6,12)" stroke="rgb(7,6,12)" stroke-width="1" opacity="0.9921568627450981" d="M 142.5 158 L 143 165.5 L 140 176.5 L 140 178.5 L 140 198.5 L 138.5 199 L 138.5 200 L 142 199.5 L 141 196.5 L 142 196.5 L 142.5 198 L 144 197.5 L 144 201 L 134.5 201 Q 131.8 199.8 134 198.5 Q 136.8 196.8 136 191.5 Q 132 189.5 136 187.5 L 137 182.5 L 136 179 Q 139.5 180.1 138 172.5 Q 140.7 169.2 140 162.5 L 142.5 158 Z " /><path fill="rgb(7,6,12)" stroke="rgb(7,6,12)" stroke-width="1" opacity="0.9921568627450981" d="M 147.5 162 L 149 164.5 L 147 163.5 L 147.5 162 Z " /><path fill="rgb(7,6,12)" stroke="rgb(7,6,12)" stroke-width="1" opacity="0.9921568627450981" d="M 104.5 163 L 107 163.5 L 102.5 171 L 100 172.5 L 99 174.5 L 102 175.5 L 94 180.5 Q 94.8 182.8 92.5 182 L 93 183.5 L 94 190 L 90.5 191 L 89 190.5 L 90 192.5 L 87 193.5 L 87.5 195 L 86 192 Q 88.7 193.1 88 190.5 L 88 188.5 L 89 186.5 L 89 184.5 L 105 164.5 L 104.5 163 Z " /><path fill="rgb(7,6,12)" stroke="rgb(7,6,12)" stroke-width="1" opacity="0.9921568627450981" d="M 35.5 165 L 38 166.5 L 33.5 167 L 33.5 166 L 35.5 165 Z " /><path fill="rgb(7,6,12)" stroke="rgb(7,6,12)" stroke-width="1" opacity="0.9921568627450981" d="M 148.5 166 L 151 177.5 L 154 181.5 L 152 182.5 L 153 180 Q 149 178.6 151 185.5 L 152 187.5 L 152 189.5 Q 153 196.5 158 199.5 L 156.5 199 Q 153.2 200.1 154 197.5 L 151 192.5 L 149 177.5 L 149 175.5 L 148.5 166 Z " /><path fill="rgb(7,6,12)" stroke="rgb(7,6,12)" stroke-width="1" opacity="0.9921568627450981" d="M 100.5 168 L 99.5 170 L 100.5 168 Z " /><path fill="rgb(7,6,12)" stroke="rgb(7,6,12)" stroke-width="1" opacity="0.9921568627450981" d="M 93.5 176 L 91.5 179 L 93.5 176 Z " /><path fill="rgb(7,6,12)" stroke="rgb(7,6,12)" stroke-width="1" opacity="0.9921568627450981" d="M 95.5 182 L 97 184.5 L 96 184.5 L 95.5 182 Z " /><path fill="rgb(7,6,12)" stroke="rgb(7,6,12)" stroke-width="1" opacity="0.9921568627450981" d="M 155.5 182 L 161 189 L 164 190.5 L 162.5 190 Q 160.3 189.3 161 191.5 L 158 189.5 L 156 186.5 Q 152.5 185 155 183.5 L 155.5 182 Z " /><path fill="rgb(7,6,12)" stroke="rgb(7,6,12)" stroke-width="1" opacity="0.9921568627450981" d="M 116.5 183 L 117 185.5 L 116 185.5 L 116.5 183 Z " /><path fill="rgb(7,6,12)" stroke="rgb(7,6,12)" stroke-width="1" opacity="0.9921568627450981" d="M 84.5 193 L 85 195 L 83 194.5 L 84.5 193 Z " /><path fill="rgb(7,6,12)" stroke="rgb(7,6,12)" stroke-width="1" opacity="0.9921568627450981" d="M 144.5 193 L 145 194.5 L 143 195.5 L 144.5 193 Z " /><path fill="rgb(7,6,12)" stroke="rgb(7,6,12)" stroke-width="1" opacity="0.9921568627450981" d="M 164.5 194 L 166.5 194 L 171 198.5 L 171 200 L 167 200 L 167 198 L 164 198 Q 165.1 195.3 162.5 196 L 162.5 195 L 164.5 194 Z " /><path fill="rgb(7,6,12)" stroke="rgb(7,6,12)" stroke-width="1" opacity="0.9921568627450981" d="M 83.5 199 L 86 199.5 L 83.5 200 L 83.5 199 Z " /><path fill="rgb(7,6,12)" stroke="rgb(7,6,12)" stroke-width="1" opacity="0.9921568627450981" d="M 90.5 199 L 93 199.5 L 90.5 200 L 90.5 199 Z " /><path fill="rgb(7,6,12)" stroke="rgb(7,6,12)" stroke-width="1" opacity="0.9921568627450981" d="M 97.5 199 L 100 200.5 L 98.5 200 L 97.5 199 Z " /><path fill="rgb(7,6,12)" stroke="rgb(7,6,12)" stroke-width="1" opacity="0.9921568627450981" d="M 104.5 199 L 107 199.5 L 104.5 200 L 104.5 199 Z " /><path fill="rgb(7,6,12)" stroke="rgb(7,6,12)" stroke-width="1" opacity="0.9921568627450981" d="M 146.5 200 L 156 200.5 L 146.5 201 L 146.5 200 Z " /><path fill="rgb(3,2,6)" stroke="rgb(3,2,6)" stroke-width="1" opacity="0.996078431372549" d="M 86.5 28 L 89 29.5 L 88.5 31 L 88 29 L 86.5 28 Z " /><path fill="rgb(3,2,6)" stroke="rgb(3,2,6)" stroke-width="1" opacity="0.996078431372549" d="M 83 30 L 86 30.5 L 83.5 32 L 83 30 Z " /><path fill="rgb(3,2,6)" stroke="rgb(3,2,6)" stroke-width="1" opacity="0.996078431372549" d="M 95 75 L 97 75.5 L 95 76.5 L 95 75 Z " /><path fill="rgb(3,2,6)" stroke="rgb(3,2,6)" stroke-width="1" opacity="0.996078431372549" d="M 87.5 76 L 88 78.5 L 86 79.5 L 85 77.5 L 87.5 76 Z " /><path fill="rgb(3,2,6)" stroke="rgb(3,2,6)" stroke-width="1" opacity="0.996078431372549" d="M 90.5 105 L 91 108.5 L 90 108.5 L 90.5 105 Z " /><path fill="rgb(3,2,6)" stroke="rgb(3,2,6)" stroke-width="1" opacity="0.996078431372549" d="M 79.5 109 L 82.5 113 Q 78.8 113.8 78 111.5 L 79.5 109 Z " /><path fill="rgb(3,2,6)" stroke="rgb(3,2,6)" stroke-width="1" opacity="0.996078431372549" d="M 133.5 110 L 135 110.5 L 132.5 112 L 133.5 110 Z " /><path fill="rgb(3,2,6)" stroke="rgb(3,2,6)" stroke-width="1" opacity="0.996078431372549" d="M 56.5 114 L 60 116.5 L 58.5 117 L 56.5 114 Z " /><path fill="rgb(3,2,6)" stroke="rgb(3,2,6)" stroke-width="1" opacity="0.996078431372549" d="M 89.5 115 L 90 117.5 L 89 117.5 L 89.5 115 Z " /><path fill="rgb(3,2,6)" stroke="rgb(3,2,6)" stroke-width="1" opacity="0.996078431372549" d="M 55.5 116 L 54 118.5 L 48.5 128 L 49 126.5 L 55.5 116 Z " /><path fill="rgb(3,2,6)" stroke="rgb(3,2,6)" stroke-width="1" opacity="0.996078431372549" d="M 89.5 119 L 89 120.5 Q 90.2 128.2 87.5 132 L 87 126.5 Q 89.2 125.3 88 120.5 L 89.5 119 Z " /><path fill="rgb(3,2,6)" stroke="rgb(3,2,6)" stroke-width="1" opacity="0.996078431372549" d="M 113.5 119 L 112.5 121 L 113.5 119 Z " /><path fill="rgb(3,2,6)" stroke="rgb(3,2,6)" stroke-width="1" opacity="0.996078431372549" d="M 67.5 122 Q 69.8 121.3 69 123.5 L 67.5 122 Z " /><path fill="rgb(3,2,6)" stroke="rgb(3,2,6)" stroke-width="1" opacity="0.996078431372549" d="M 111.5 122 L 109.5 125 L 111.5 122 Z " /><path fill="rgb(3,2,6)" stroke="rgb(3,2,6)" stroke-width="1" opacity="0.996078431372549" d="M 65.5 124 L 69.5 126 L 71 125.5 L 74 135.5 L 74 141.5 L 85 177.5 L 85 181.5 L 83 182.5 L 83 180 L 80 179.5 L 80 172.5 L 78 170.5 L 75 161 Q 71.7 162.3 73 157.5 L 71 153.5 Q 72 146.5 69.5 143 L 67 144 L 66.5 146 L 66 144 L 64 143.5 L 64.5 142 Q 62.3 141.3 63 143.5 L 62 144.5 L 62 153.5 L 64 162.5 L 62 163.5 L 61 160 Q 58.3 158.9 59 161.5 L 56.5 162 L 54.5 163 L 56 160.5 L 53.5 158 L 53 160 Q 50.3 158.9 51 161.5 L 41.5 168 L 41.5 167 L 45 164.5 L 46 162.5 Q 43.3 160.7 47.5 159 L 46.5 162 L 49 160.5 L 50 155.5 L 50 153.5 L 51 151.5 L 50 150.5 L 55 145.5 L 57 141.5 L 55.5 141 L 51.5 141 L 48.5 141 L 43.5 144 L 44.5 142 L 54.5 137 L 58 137 L 57 133 L 60.5 131 L 63 132 L 65.5 124 Z M 63 139 Q 60 141 63 142 L 64 140 L 63 139 Z " /><path fill="rgb(3,2,6)" stroke="rgb(3,2,6)" stroke-width="1" opacity="0.996078431372549" d="M 108.5 126 L 106.5 129 L 108.5 126 Z " /><path fill="rgb(3,2,6)" stroke="rgb(3,2,6)" stroke-width="1" opacity="0.996078431372549" d="M 47.5 129 L 46.5 131 L 47.5 129 Z " /><path fill="rgb(3,2,6)" stroke="rgb(3,2,6)" stroke-width="1" opacity="0.996078431372549" d="M 129.5 129 L 128.5 131 L 129.5 129 Z " /><path fill="rgb(3,2,6)" stroke="rgb(3,2,6)" stroke-width="1" opacity="0.996078431372549" d="M 105.5 130 L 104.5 132 L 105.5 130 Z " /><path fill="rgb(3,2,6)" stroke="rgb(3,2,6)" stroke-width="1" opacity="0.996078431372549" d="M 44.5 134 L 45 135.5 L 42.5 139 L 42 137.5 L 44.5 134 Z " /><path fill="rgb(3,2,6)" stroke="rgb(3,2,6)" stroke-width="1" opacity="0.996078431372549" d="M 102.5 134 L 101.5 136 L 102.5 134 Z " /><path fill="rgb(3,2,6)" stroke="rgb(3,2,6)" stroke-width="1" opacity="0.996078431372549" d="M 86.5 135 Q 89.3 136.3 87 137.5 L 89 147.5 L 87 151.5 L 87 155.5 L 88 165.5 L 89.5 167 L 91 167.5 L 86.5 176 L 87 174.5 L 86 165.5 L 86 163.5 L 86.5 135 Z " /><path fill="rgb(3,2,6)" stroke="rgb(3,2,6)" stroke-width="1" opacity="0.996078431372549" d="M 120.5 142 L 118.5 145 L 120.5 142 Z " /><path fill="rgb(3,2,6)" stroke="rgb(3,2,6)" stroke-width="1" opacity="0.996078431372549" d="M 116.5 148 L 114.5 151 L 116.5 148 Z " /><path fill="rgb(3,2,6)" stroke="rgb(3,2,6)" stroke-width="1" opacity="0.996078431372549" d="M 145.5 149 Q 148.3 150.3 146 151.5 L 147 153.5 L 146 156.5 L 148 161.5 L 147 163.5 L 150 176.5 Q 147.7 177.8 149 182.5 L 151 192.5 Q 154.2 194.5 154 199 L 157 199.5 L 146 200 L 145.5 191 L 143 195.5 Q 145.3 196.8 142.5 198 L 141.5 196 L 141 198.5 L 141.5 200 L 138 199.5 L 140 199 L 140 178.5 L 141 177.5 L 141 175.5 Q 140.3 168.8 143 165.5 L 143 157.5 L 145.5 149 Z " /><path fill="rgb(3,2,6)" stroke="rgb(3,2,6)" stroke-width="1" opacity="0.996078431372549" d="M 92.5 151 L 93 153.5 L 92 153.5 L 92.5 151 Z " /><path fill="rgb(3,2,6)" stroke="rgb(3,2,6)" stroke-width="1" opacity="0.996078431372549" d="M 113.5 152 L 112.5 154 L 113.5 152 Z " /><path fill="rgb(3,2,6)" stroke="rgb(3,2,6)" stroke-width="1" opacity="0.996078431372549" d="M 111.5 155 L 110.5 157 L 111.5 155 Z " /><path fill="rgb(3,2,6)" stroke="rgb(3,2,6)" stroke-width="1" opacity="0.996078431372549" d="M 109.5 158 L 108 160.5 L 88 185.5 L 88 187.5 L 89 189.5 L 87.5 192 L 85.5 187 L 81.5 190 L 90 180.5 Q 89.3 178.3 91.5 179 L 109.5 158 Z " /><path fill="rgb(3,2,6)" stroke="rgb(3,2,6)" stroke-width="1" opacity="0.996078431372549" d="M 43.5 162 L 42.5 164 L 36.5 166 L 36.5 165 L 43.5 162 Z " /><path fill="rgb(3,2,6)" stroke="rgb(3,2,6)" stroke-width="1" opacity="0.996078431372549" d="M 82.5 192 L 83.5 194 Q 80.7 194.7 82.5 192 Z " /><path fill="rgb(3,2,6)" stroke="rgb(3,2,6)" stroke-width="1" opacity="0.996078431372549" d="M 78.5 194 L 79 200 L 75 199.5 L 77 199 L 78.5 194 Z " /><path fill="rgb(10,8,17)" stroke="rgb(10,8,17)" stroke-width="1" opacity="0.996078431372549" d="M 83.5 32 L 83.5 35 Q 80.5 33.5 83.5 32 Z " /><path fill="rgb(10,8,17)" stroke="rgb(10,8,17)" stroke-width="1" opacity="0.996078431372549" d="M 81.5 106 L 78.5 110 L 75 112.5 L 81.5 114 Q 82.8 111.8 84 114.5 L 78 118.5 L 75.5 123 L 74.5 118 L 72.5 126 L 70.5 114 L 69 117 L 66.5 116 L 64.5 119 L 63 119.5 L 63.5 121 L 60 120 L 58.5 123 L 56 123 Q 57.1 125.7 54.5 125 L 51 127 L 50 131 Q 47 130 48 133 L 51.5 132 L 53.5 133 L 56.5 131 L 57 132.5 L 54 134 Q 55.5 137.8 52.5 137 L 39 144.5 L 40 147 Q 42.1 145.4 47.5 146 L 49.5 146 L 51 145.5 L 50 143.5 L 52 144.5 L 53 146.5 L 48.5 151 L 38 156 Q 36.8 159 40.5 158 L 40.5 159 L 35 161.5 L 36.5 162 L 38.5 162 L 40.5 161 L 41.5 162 L 44 160.5 L 38.5 164 L 36.5 163 L 36.5 165 L 33.5 166 L 30 164.5 Q 32.5 163 29 161.5 L 32.5 156 L 33 158.5 L 32 161 L 35 159.5 L 36 156.5 L 33 152.5 L 35 148.5 L 34 146.5 L 36 146.5 L 40.5 140 Q 42.2 142.8 44 138.5 L 46 132.5 Q 52.8 125.3 56.5 115 L 57.5 118 L 59.5 117 L 62.5 118 L 67.5 114 L 70 114 L 71 110.5 L 70.5 109 L 72 109.5 L 72 118.5 L 73 118.5 L 74 116.5 L 73 113.5 L 75 110 L 81.5 106 Z M 75 114 L 76 116 L 78 115 L 75 114 Z " /><path fill="rgb(10,8,17)" stroke="rgb(10,8,17)" stroke-width="1" opacity="0.996078431372549" d="M 135.5 109 L 136.5 111 L 135.5 109 Z " /><path fill="rgb(10,8,17)" stroke="rgb(10,8,17)" stroke-width="1" opacity="0.996078431372549" d="M 117.5 113 L 117 114.5 L 116.5 116 L 116 114.5 L 117.5 113 Z " /><path fill="rgb(10,8,17)" stroke="rgb(10,8,17)" stroke-width="1" opacity="0.996078431372549" d="M 102.5 115 L 101.5 117 L 100 116.5 L 102.5 115 Z " /><path fill="rgb(10,8,17)" stroke="rgb(10,8,17)" stroke-width="1" opacity="0.996078431372549" d="M 134.5 121 L 133.5 123 L 134.5 121 Z " /><path fill="rgb(10,8,17)" stroke="rgb(10,8,17)" stroke-width="1" opacity="0.996078431372549" d="M 49.5 124 L 47.5 127 L 49.5 124 Z " /><path fill="rgb(10,8,17)" stroke="rgb(10,8,17)" stroke-width="1" opacity="0.996078431372549" d="M 145.5 124 L 146 128 L 149 129.5 L 149.5 131 L 153.5 125 L 153 126.5 L 152 131.5 L 154 131.5 Q 154.8 133.8 152.5 133 L 151 132.5 Q 151.8 134.8 149.5 134 L 148 136.5 L 150.5 135 L 154 136.5 L 150.5 142 Q 149.3 139.8 148 142.5 L 148.5 147 L 149 144 Q 152.7 142.5 152 145.5 L 153 145.5 L 153.5 144 L 154 148 Q 149.9 146.3 151 150.5 L 152 150.5 Q 151.3 148.3 153.5 149 L 153.5 151 L 158 153.5 Q 155.3 154.2 156 158.5 L 158 158.5 L 156 162.5 L 156 164.5 L 161 169.5 L 162.5 172 L 166 174.5 L 159 176 L 160 172 L 157.5 173 L 157.5 171 L 155 169.5 L 156 167.5 L 154 164.5 Q 155.3 157.7 152.5 155 L 150 156 L 148.5 152 L 147 152.5 L 146.5 142 L 142 156.5 Q 144.5 158 141 159.5 L 138 172.5 L 138 179 Q 135 177.8 136 181.5 L 136 183.5 Q 137 188.5 134 189.5 Q 137 190.5 136 195.5 L 133 199.5 L 133.5 201 L 131.5 200 L 130.5 201 L 100.5 201 L 98.5 201 L 87.5 201 L 83.5 199 L 80.5 200 L 79 198.5 L 79.5 196 L 80.5 198 L 82 195 Q 79 196.3 80 192.5 L 83.5 195 L 90 192.5 L 89 190.5 L 91.5 190 Q 96.1 191.3 94 185.5 L 92 185.5 L 93 183.5 L 92.5 182 Q 94.8 182.8 94 180.5 L 102 175.5 L 99 174.5 L 101.5 171 L 104 169.5 L 107 162 L 109 161.5 Q 106.5 160 110 158.5 L 112.5 155 L 113 159 Q 117.1 160.7 116 156.5 L 115.5 155 Q 118.9 154.1 117 159.5 L 118 161.5 L 115.5 163 L 113 162 L 112 164.5 L 113 167 Q 108.5 165.5 110 170 Q 112.7 171.1 112 168.5 L 113.5 169 L 115.5 168 L 117 168.5 L 118.5 165 L 121.5 164 Q 123.2 167.1 125 165.5 L 125.5 168 L 128 167 L 127 169.5 L 128 171.5 L 125 173 L 125.5 176 Q 127.7 171.1 134 172 Q 135.9 169.2 135 163 L 138 161.5 L 140 155.5 L 138.5 152 L 136.5 152 L 135 151.5 L 140 149.5 L 140.5 148 L 141.5 151 L 144.5 141 L 146 141.5 L 144 137.5 L 145.5 137 L 147 137.5 L 147 135 L 145 134.5 L 145 128.5 L 144 125.5 L 145.5 124 Z M 148 138 L 147 142 L 148 142 L 148 138 Z M 122 175 L 120 178 Q 124 177 123 180 L 121 181 L 123 181 L 124 183 L 124 176 L 122 175 Z M 117 183 L 116 186 L 117 186 L 117 183 Z M 127 186 L 125 191 L 127 191 L 127 186 Z M 128 186 L 128 189 L 130 190 L 129 188 L 131 187 Q 132 189 133 187 L 128 186 Z M 127 194 L 126 197 L 127 197 L 127 194 Z M 91 199 L 91 200 L 93 200 L 91 199 Z M 105 199 L 105 200 L 107 200 L 105 199 Z " /><path fill="rgb(10,8,17)" stroke="rgb(10,8,17)" stroke-width="1" opacity="0.996078431372549" d="M 73.5 127 L 76.5 131 L 79.5 130 L 82 131.5 L 80.5 132 L 79 131.5 Q 78.2 134.5 82 133 L 82 135 L 86 135 L 86 147.5 L 86 149.5 L 85.5 165 L 84 163.5 L 83 147.5 Q 80.8 146.3 82 141.5 L 80.5 140 L 79 140 Q 80.5 136.3 77.5 137 L 75.5 140 L 73 131.5 L 73.5 127 Z M 85 141 L 84 148 L 85 148 L 85 141 Z M 85 150 L 84 154 L 85 154 L 85 150 Z " /><path fill="rgb(10,8,17)" stroke="rgb(10,8,17)" stroke-width="1" opacity="0.996078431372549" d="M 107.5 128 L 106.5 130 L 105 129.5 L 107.5 128 Z " /><path fill="rgb(10,8,17)" stroke="rgb(10,8,17)" stroke-width="1" opacity="0.996078431372549" d="M 129.5 128 Q 132.5 129.5 129.5 131 L 129.5 128 Z " /><path fill="rgb(10,8,17)" stroke="rgb(10,8,17)" stroke-width="1" opacity="0.996078431372549" d="M 45.5 130 L 45 131.5 L 44.5 133 L 44 131.5 L 45.5 130 Z " /><path fill="rgb(10,8,17)" stroke="rgb(10,8,17)" stroke-width="1" opacity="0.996078431372549" d="M 127.5 133 L 126.5 135 L 125 135.5 L 125.5 137 Q 122.5 135.5 125.5 134 L 127.5 133 Z " /><path fill="rgb(10,8,17)" stroke="rgb(10,8,17)" stroke-width="1" opacity="0.996078431372549" d="M 40.5 134 L 39.5 136 L 40.5 134 Z " /><path fill="rgb(10,8,17)" stroke="rgb(10,8,17)" stroke-width="1" opacity="0.996078431372549" d="M 104.5 135 L 104 136.5 L 93 166 L 95.5 167 L 98 165.5 L 97.5 164 L 102.5 165 L 104 164.5 L 99.5 169 L 98 168.5 L 99 170.5 L 93.5 176 L 92.5 175 Q 89.2 173.9 90 176.5 L 88 180 Q 85 178.8 86 182.5 L 84 183.5 L 87 178.5 Q 84.7 177.3 87.5 176 L 89 175.5 L 88.5 174 L 91 172.5 L 90 170.5 L 94 169.5 L 93.5 171 L 95 171.5 L 94 173.5 L 96 172.5 L 95 168 L 92.5 167 L 91.5 169 L 91 167.5 L 98 149.5 L 96 148.5 Q 97.3 152.3 93.5 151 L 90.5 149 L 88.5 153 L 88 150.5 L 91 146.5 Q 87.1 144.4 88 139 L 90.5 138 L 89 140.5 L 90 141.5 Q 89.3 145.3 91.5 146 L 94 146 L 94 143 Q 96.7 144.1 96 141.5 L 98 140.5 L 97 143 Q 99.7 144.1 99 141.5 Q 102.1 139.8 100.5 138 L 102 137.5 L 100 136.5 L 104.5 135 Z " /><path fill="rgb(10,8,17)" stroke="rgb(10,8,17)" stroke-width="1" opacity="0.996078431372549" d="M 76.5 141 L 77 143.5 L 76 143.5 L 76.5 141 Z " /><path fill="rgb(10,8,17)" stroke="rgb(10,8,17)" stroke-width="1" opacity="0.996078431372549" d="M 120.5 141 L 123.5 143 L 123.5 141 L 128.5 142 L 130 141.5 L 129.5 143 L 142 144.5 L 129 145 Q 130.3 141.7 125.5 143 L 125.5 145 L 121 144 L 120.5 142 L 118 143.5 L 120.5 141 Z " /><path fill="rgb(10,8,17)" stroke="rgb(10,8,17)" stroke-width="1" opacity="0.996078431372549" d="M 119.5 145 L 120 147.5 L 117 152 L 115 152 Q 116.1 154.7 113.5 154 L 112.5 153 L 109 155.5 L 118 148.5 L 119.5 145 Z " /><path fill="rgb(10,8,17)" stroke="rgb(10,8,17)" stroke-width="1" opacity="0.996078431372549" d="M 119.5 152 Q 122.3 153.3 120 154.5 Q 121.1 157.8 118.5 157 L 119 155.5 L 119.5 152 Z " /><path fill="rgb(10,8,17)" stroke="rgb(10,8,17)" stroke-width="1" opacity="0.996078431372549" d="M 92 155 Q 95 154 94 157 L 89.5 158 L 90.5 156 L 92 156.5 L 92 155 Z " /><path fill="rgb(10,8,17)" stroke="rgb(10,8,17)" stroke-width="1" opacity="0.996078431372549" d="M 121.5 155 L 122 157 Q 126.1 155.3 125 159.5 L 124 159.5 L 123.5 158 L 123 160.5 Q 125.2 161.7 122.5 163 Q 119.1 161.1 121.5 155 Z " /><path fill="rgb(10,8,17)" stroke="rgb(10,8,17)" stroke-width="1" opacity="0.996078431372549" d="M 148.5 155 L 149.5 158 L 151.5 158 Q 154.1 157.3 153 160 L 150.5 161 L 150.5 159 Q 147.1 158.1 149 163.5 L 151 163.5 L 150 165.5 L 153 176.5 L 161 186.5 L 155 182.5 L 154 184.5 L 156 188 Q 158.7 186.9 158 189.5 L 159.5 189 L 162.5 188 L 171 197.5 L 166.5 194 L 162 195.5 L 164 196 L 164 198 Q 167.8 196.5 167 199.5 L 164.5 200 L 163 199.5 L 163.5 198 Q 160.2 199.1 161 196.5 L 158 191 L 154 189 L 154 194 Q 156.7 192.9 156 195.5 L 159 199.5 L 156.5 201 L 156.5 200 L 158 199.5 L 154 195.5 L 151 188.5 L 152 186.5 L 151 180 L 153 179.5 L 151 177.5 L 148 165.5 L 148 163.5 L 148.5 155 Z M 160 190 L 161 192 Q 162 189 160 190 Z " /><path fill="rgb(10,8,17)" stroke="rgb(10,8,17)" stroke-width="1" opacity="0.996078431372549" d="M 66.5 157 L 67 159 L 70.5 160 L 72 159.5 L 74 164.5 L 73 165.5 L 76 168.5 Q 78.6 171.4 78 177.5 L 80 180.5 L 80 184.5 L 78.5 184 L 75 181.5 Q 75.8 179.3 73.5 180 L 71 179.5 L 72 175 Q 69.3 176.1 70 173.5 L 68 170.5 Q 70.5 169 67 167.5 L 65 159.5 L 66.5 157 Z M 72 166 L 71 171 L 72 171 L 72 166 Z " /><path fill="rgb(10,8,17)" stroke="rgb(10,8,17)" stroke-width="1" opacity="0.996078431372549" d="M 89.5 160 L 92 160.5 L 91 164 Q 87.2 165.2 89.5 160 Z " /><path fill="rgb(10,8,17)" stroke="rgb(10,8,17)" stroke-width="1" opacity="0.996078431372549" d="M 106.5 160 L 105.5 162 L 106.5 160 Z " /><path fill="rgb(10,8,17)" stroke="rgb(10,8,17)" stroke-width="1" opacity="0.996078431372549" d="M 100.5 162 L 103 162.5 L 100.5 163 L 100.5 162 Z " /><path fill="rgb(10,8,17)" stroke="rgb(10,8,17)" stroke-width="1" opacity="0.996078431372549" d="M 152.5 162 L 153 165.5 L 152 165.5 L 152.5 162 Z " /><path fill="rgb(10,8,17)" stroke="rgb(10,8,17)" stroke-width="1" opacity="0.996078431372549" d="M 43.5 164 L 41.5 167 L 41 165 L 43.5 164 Z " /><path fill="rgb(10,8,17)" stroke="rgb(10,8,17)" stroke-width="1" opacity="0.996078431372549" d="M 48.5 164 L 49 167 L 45.5 168 L 46 166.5 Q 45.3 164.3 47.5 165 L 48.5 164 Z " /><path fill="rgb(10,8,17)" stroke="rgb(10,8,17)" stroke-width="1" opacity="0.996078431372549" d="M 38.5 166 Q 40.8 165.3 40 167.5 Q 42.3 168.8 39.5 170 L 39 168 L 35 167.5 L 38.5 166 Z " /><path fill="rgb(10,8,17)" stroke="rgb(10,8,17)" stroke-width="1" opacity="0.996078431372549" d="M 83.5 166 L 86 169.5 L 85 169.5 L 84.5 168 L 84 170.5 L 84.5 172 L 83 171.5 L 83.5 166 Z " /><path fill="rgb(10,8,17)" stroke="rgb(10,8,17)" stroke-width="1" opacity="0.996078431372549" d="M 62.5 168 Q 65.5 169.6 64 175 L 67 175.5 L 64 176 L 65 180.5 L 64 182.5 L 66 193 L 72 193.5 L 71 196 L 69 196 Q 70.5 199.7 67.5 199 L 64.5 200 L 64 197.5 Q 65.3 192.8 63 191.5 L 64 189.5 L 63 188.5 Q 64.4 179.6 62 174.5 L 63 172.5 L 62.5 168 Z " /><path fill="rgb(10,8,17)" stroke="rgb(10,8,17)" stroke-width="1" opacity="0.996078431372549" d="M 84.5 173 L 86 175.5 L 84 176 L 84.5 173 Z " /></svg>