<svg width="199" height="199" version="1.1" xmlns="http://www.w3.org/2000/svg" desc="Created with imagetracer.js version 1.2.6" ><path fill="rgb(169,11,13)" stroke="rgb(169,11,13)" stroke-width="1" opacity="1" d="M 89.5 19 L 100 19.5 L 89.5 20 L 89.5 19 Z " /><path fill="rgb(169,11,13)" stroke="rgb(169,11,13)" stroke-width="1" opacity="1" d="M 84.5 21 L 86 21.5 L 81.5 24 L 82.5 22 L 84.5 21 Z " /><path fill="rgb(169,11,13)" stroke="rgb(169,11,13)" stroke-width="1" opacity="1" d="M 103.5 21 L 104.5 23 L 103.5 21 Z " /><path fill="rgb(169,11,13)" stroke="rgb(169,11,13)" stroke-width="1" opacity="1" d="M 117.5 26 L 118.5 28 L 117.5 26 Z " /><path fill="rgb(169,11,13)" stroke="rgb(169,11,13)" stroke-width="1" opacity="1" d="M 76.5 28 L 76 29.5 L 75.5 31 L 75 29.5 L 76.5 28 Z " /><path fill="rgb(169,11,13)" stroke="rgb(169,11,13)" stroke-width="1" opacity="1" d="M 121.5 30 L 124 33.5 L 123 33.5 L 121.5 30 Z " /><path fill="rgb(169,11,13)" stroke="rgb(169,11,13)" stroke-width="1" opacity="1" d="M 125.5 37 L 127 42.5 L 126 42.5 L 125.5 37 Z " /><path fill="rgb(169,11,13)" stroke="rgb(169,11,13)" stroke-width="1" opacity="1" d="M 71.5 40 L 72 43.5 L 71 43.5 L 71.5 40 Z " /><path fill="rgb(169,11,13)" stroke="rgb(169,11,13)" stroke-width="1" opacity="1" d="M 126.5 49 L 127 51.5 L 125.5 54 L 125 52.5 L 126.5 49 Z " /><path fill="rgb(169,11,13)" stroke="rgb(169,11,13)" stroke-width="1" opacity="1" d="M 70.5 54 L 69.5 56 L 70.5 54 Z " /><path fill="rgb(169,11,13)" stroke="rgb(169,11,13)" stroke-width="1" opacity="1" d="M 73.5 56 L 76 57 L 75.5 59 L 73.5 56 Z " /><path fill="rgb(169,11,13)" stroke="rgb(169,11,13)" stroke-width="1" opacity="1" d="M 58.5 59 L 59.5 61 L 58.5 59 Z " /><path fill="rgb(169,11,13)" stroke="rgb(169,11,13)" stroke-width="1" opacity="1" d="M 55.5 63 L 56 66.5 L 55 66.5 L 55.5 63 Z " /><path fill="rgb(169,11,13)" stroke="rgb(169,11,13)" stroke-width="1" opacity="1" d="M 74.5 63 L 75 65.5 L 74 65.5 L 74.5 63 Z " /><path fill="rgb(169,11,13)" stroke="rgb(169,11,13)" stroke-width="1" opacity="1" d="M 120.5 66 L 119.5 68 L 120.5 66 Z " /><path fill="rgb(169,11,13)" stroke="rgb(169,11,13)" stroke-width="1" opacity="1" d="M 73.5 68 L 74 72.5 L 73 72.5 L 73.5 68 Z " /><path fill="rgb(169,11,13)" stroke="rgb(169,11,13)" stroke-width="1" opacity="1" d="M 75.5 68 L 77 70.5 L 75 69.5 L 75.5 68 Z " /><path fill="rgb(169,11,13)" stroke="rgb(169,11,13)" stroke-width="1" opacity="1" d="M 118.5 69 L 119 71.5 L 118 71.5 L 118.5 69 Z " /><path fill="rgb(169,11,13)" stroke="rgb(169,11,13)" stroke-width="1" opacity="1" d="M 72.5 74 L 74 83.5 L 73 83.5 Q 70.6 80.2 72.5 74 Z " /><path fill="rgb(169,11,13)" stroke="rgb(169,11,13)" stroke-width="1" opacity="1" d="M 117.5 74 L 118 77.5 L 117 77.5 L 117.5 74 Z " /><path fill="rgb(169,11,13)" stroke="rgb(169,11,13)" stroke-width="1" opacity="1" d="M 79.5 77 L 82 80.5 L 79 78.5 L 79.5 77 Z " /><path fill="rgb(169,11,13)" stroke="rgb(169,11,13)" stroke-width="1" opacity="1" d="M 52.5 79 L 53 85.5 L 52 85.5 L 52.5 79 Z " /><path fill="rgb(169,11,13)" stroke="rgb(169,11,13)" stroke-width="1" opacity="1" d="M 83.5 85 L 84 87.5 L 83 87.5 L 83.5 85 Z " /><path fill="rgb(169,11,13)" stroke="rgb(169,11,13)" stroke-width="1" opacity="1" d="M 79.5 88 L 80 90.5 L 79 90.5 L 79.5 88 Z " /><path fill="rgb(169,11,13)" stroke="rgb(169,11,13)" stroke-width="1" opacity="1" d="M 84.5 89 L 87 92.5 L 84 90.5 L 84.5 89 Z " /><path fill="rgb(169,11,13)" stroke="rgb(169,11,13)" stroke-width="1" opacity="1" d="M 129.5 91 L 131.5 94 L 129.5 91 Z " /><path fill="rgb(169,11,13)" stroke="rgb(169,11,13)" stroke-width="1" opacity="1" d="M 54.5 93 L 55 97.5 L 54 97.5 L 54.5 93 Z " /><path fill="rgb(169,11,13)" stroke="rgb(169,11,13)" stroke-width="1" opacity="1" d="M 90.5 95 L 91 98.5 L 90 98.5 L 90.5 95 Z " /><path fill="rgb(169,11,13)" stroke="rgb(169,11,13)" stroke-width="1" opacity="1" d="M 132.5 95 L 134.5 98 L 132.5 95 Z " /><path fill="rgb(169,11,13)" stroke="rgb(169,11,13)" stroke-width="1" opacity="1" d="M 51.5 100 L 49 103.5 L 45.5 108 L 48 104.5 L 51.5 100 Z " /><path fill="rgb(169,11,13)" stroke="rgb(169,11,13)" stroke-width="1" opacity="1" d="M 71.5 101 L 71.5 103 L 75 103.5 L 70.5 105 L 70 102.5 L 71.5 101 Z " /><path fill="rgb(169,11,13)" stroke="rgb(169,11,13)" stroke-width="1" opacity="1" d="M 77.5 102 L 85 102.5 L 77.5 103 L 77.5 102 Z " /><path fill="rgb(169,11,13)" stroke="rgb(169,11,13)" stroke-width="1" opacity="1" d="M 143.5 102 L 148 104.5 L 146.5 105 L 143.5 102 Z " /><path fill="rgb(169,11,13)" stroke="rgb(169,11,13)" stroke-width="1" opacity="1" d="M 152.5 106 L 153.5 108 L 152.5 106 Z " /><path fill="rgb(169,11,13)" stroke="rgb(169,11,13)" stroke-width="1" opacity="1" d="M 155.5 108 L 159 110.5 L 157.5 110 L 155.5 108 Z " /><path fill="rgb(169,11,13)" stroke="rgb(169,11,13)" stroke-width="1" opacity="1" d="M 44.5 109 L 43.5 111 L 44.5 109 Z " /><path fill="rgb(169,11,13)" stroke="rgb(169,11,13)" stroke-width="1" opacity="1" d="M 160.5 111 L 161.5 113 L 160.5 111 Z " /><path fill="rgb(169,11,13)" stroke="rgb(169,11,13)" stroke-width="1" opacity="1" d="M 42.5 112 L 41.5 114 L 42.5 112 Z " /><path fill="rgb(169,11,13)" stroke="rgb(169,11,13)" stroke-width="1" opacity="1" d="M 163.5 113 L 168 116.5 L 170 123.5 L 168 122.5 Q 168.8 116.7 165.5 115 L 163.5 113 Z " /><path fill="rgb(169,11,13)" stroke="rgb(169,11,13)" stroke-width="1" opacity="1" d="M 40.5 116 L 37.5 120 L 40.5 116 Z " /><path fill="rgb(169,11,13)" stroke="rgb(169,11,13)" stroke-width="1" opacity="1" d="M 34.5 127 L 35 128.5 L 32.5 132 L 33 130.5 L 34.5 127 Z " /><path fill="rgb(169,11,13)" stroke="rgb(169,11,13)" stroke-width="1" opacity="1" d="M 29.5 135 L 28 137.5 L 27.5 139 L 27 137.5 L 29.5 135 Z " /><path fill="rgb(169,11,13)" stroke="rgb(169,11,13)" stroke-width="1" opacity="1" d="M 170.5 136 L 173 139.5 L 173 153.5 L 174 155.5 L 173 155.5 L 172 153.5 L 172 139.5 L 170.5 136 Z " /><path fill="rgb(169,11,13)" stroke="rgb(169,11,13)" stroke-width="1" opacity="1" d="M 25.5 145 L 25 146.5 L 23.5 152 L 23 148.5 L 25.5 145 Z " /><path fill="rgb(169,11,13)" stroke="rgb(169,11,13)" stroke-width="1" opacity="1" d="M 58.5 160 L 60 161.5 L 60 177.5 L 59 177.5 L 59 161.5 L 58.5 160 Z " /><path fill="rgb(169,11,13)" stroke="rgb(169,11,13)" stroke-width="1" opacity="1" d="M 24.5 161 L 27.5 166 L 29 166.5 L 27.5 167 L 24 162.5 L 24.5 161 Z " /><path fill="rgb(169,11,13)" stroke="rgb(169,11,13)" stroke-width="1" opacity="1" d="M 54.5 162 L 53.5 164 L 51.5 165 L 52.5 163 L 54.5 162 Z " /><path fill="rgb(169,11,13)" stroke="rgb(169,11,13)" stroke-width="1" opacity="1" d="M 174.5 163 L 175 167.5 L 174 167.5 L 174.5 163 Z " /><path fill="rgb(169,11,13)" stroke="rgb(169,11,13)" stroke-width="1" opacity="1" d="M 30.5 167 L 41.5 168 L 43.5 167 L 43.5 168 L 34.5 169 L 30.5 168 L 30.5 167 Z " /><path fill="rgb(169,11,13)" stroke="rgb(169,11,13)" stroke-width="1" opacity="1" d="M 58.5 182 L 59 185.5 L 56.5 194 L 56 191.5 L 58.5 182 Z " /><path fill="rgb(179,0,0)" stroke="rgb(179,0,0)" stroke-width="1" opacity="1" d="M 89.5 18 L 99 18.5 L 86.5 20 L 86.5 19 L 89.5 18 Z " /><path fill="rgb(179,0,0)" stroke="rgb(179,0,0)" stroke-width="1" opacity="1" d="M 79.5 23 L 76.5 27 L 79.5 23 Z " /><path fill="rgb(179,0,0)" stroke="rgb(179,0,0)" stroke-width="1" opacity="1" d="M 109.5 23 L 112 23.5 L 109.5 24 L 109.5 23 Z " /><path fill="rgb(179,0,0)" stroke="rgb(179,0,0)" stroke-width="1" opacity="1" d="M 118.5 26 L 122 28.5 L 120.5 28 L 118.5 26 Z " /><path fill="rgb(179,0,0)" stroke="rgb(179,0,0)" stroke-width="1" opacity="1" d="M 122.5 30 L 123.5 32 L 122.5 30 Z " /><path fill="rgb(179,0,0)" stroke="rgb(179,0,0)" stroke-width="1" opacity="1" d="M 73.5 32 L 74 33.5 L 72.5 36 L 72 34.5 L 73.5 32 Z " /><path fill="rgb(179,0,0)" stroke="rgb(179,0,0)" stroke-width="1" opacity="1" d="M 71.5 45 L 74 50.5 L 74 52.5 L 75 56.5 L 73 55.5 L 72 51.5 L 72 49.5 L 71.5 45 Z " /><path fill="rgb(179,0,0)" stroke="rgb(179,0,0)" stroke-width="1" opacity="1" d="M 63.5 53 L 67 53 Q 65.9 55.7 68.5 55 L 71.5 53 L 71.5 54 L 69 55.5 L 67.5 58 Q 69.2 56 65.5 54 Q 62.2 52.9 63 55.5 L 61.5 59 L 61 56.5 L 63.5 53 Z " /><path fill="rgb(179,0,0)" stroke="rgb(179,0,0)" stroke-width="1" opacity="1" d="M 124.5 57 L 125 59.5 L 123.5 62 L 123 59.5 L 124.5 57 Z " /><path fill="rgb(179,0,0)" stroke="rgb(179,0,0)" stroke-width="1" opacity="1" d="M 56.5 59 L 56 60.5 L 53.5 74 L 53 70.5 Q 55.8 68.8 54 62.5 L 56.5 59 Z " /><path fill="rgb(179,0,0)" stroke="rgb(179,0,0)" stroke-width="1" opacity="1" d="M 59.5 59 L 60.5 61 L 59.5 59 Z " /><path fill="rgb(179,0,0)" stroke="rgb(179,0,0)" stroke-width="1" opacity="1" d="M 122.5 63 L 123 64.5 L 120.5 68 L 121 66.5 L 122.5 63 Z " /><path fill="rgb(179,0,0)" stroke="rgb(179,0,0)" stroke-width="1" opacity="1" d="M 74.5 66 L 75 68.5 L 74 68.5 L 74.5 66 Z " /><path fill="rgb(179,0,0)" stroke="rgb(179,0,0)" stroke-width="1" opacity="1" d="M 76.5 72 L 79 77.5 L 76.5 78 L 75 77.5 L 77 77 L 76.5 72 Z " /><path fill="rgb(179,0,0)" stroke="rgb(179,0,0)" stroke-width="1" opacity="1" d="M 73.5 73 L 75 79.5 L 73.5 82 L 73.5 73 Z " /><path fill="rgb(179,0,0)" stroke="rgb(179,0,0)" stroke-width="1" opacity="1" d="M 52.5 75 L 53 78.5 L 52 78.5 L 52.5 75 Z " /><path fill="rgb(179,0,0)" stroke="rgb(179,0,0)" stroke-width="1" opacity="1" d="M 118.5 77 L 120 85 L 125 88.5 L 121.5 86 L 119 84.5 L 118.5 77 Z " /><path fill="rgb(179,0,0)" stroke="rgb(179,0,0)" stroke-width="1" opacity="1" d="M 50.5 80 L 51.5 82 L 50.5 80 Z " /><path fill="rgb(179,0,0)" stroke="rgb(179,0,0)" stroke-width="1" opacity="1" d="M 80.5 80 L 84 90 Q 80 91.4 82 84.5 L 81 84.5 L 80.5 86 L 80.5 80 Z " /><path fill="rgb(179,0,0)" stroke="rgb(179,0,0)" stroke-width="1" opacity="1" d="M 52.5 86 L 53 89.5 L 52 89.5 L 52.5 86 Z " /><path fill="rgb(179,0,0)" stroke="rgb(179,0,0)" stroke-width="1" opacity="1" d="M 84.5 91 L 89 93.5 L 86.5 94 L 84.5 91 Z " /><path fill="rgb(179,0,0)" stroke="rgb(179,0,0)" stroke-width="1" opacity="1" d="M 53.5 92 L 54 98.5 L 52 99.5 L 53.5 92 Z " /><path fill="rgb(179,0,0)" stroke="rgb(179,0,0)" stroke-width="1" opacity="1" d="M 78.5 94 L 79 95.5 L 75.5 101 L 70.5 104 L 72.5 101 L 76 100 L 78.5 94 Z " /><path fill="rgb(92,36,31)" stroke="rgb(92,36,31)" stroke-width="1" opacity="1" d="M 99.5 23 L 103 24 L 104 26.5 L 102 27 L 101.5 29 L 100 28.5 L 98.5 36 L 96.5 32 L 94.5 33 L 91 31.5 L 97 31 Q 96.4 26.4 100 24.5 L 99.5 23 Z M 101 25 L 99 28 L 101 27 L 101 25 Z " /><path fill="rgb(92,36,31)" stroke="rgb(92,36,31)" stroke-width="1" opacity="1" d="M 83.5 24 Q 89.8 23.2 92.5 26 L 93 24 L 97 24.5 Q 95.6 27.6 90.5 27 Q 89.3 23.8 83.5 25 L 83.5 24 Z " /><path fill="rgb(92,36,31)" stroke="rgb(92,36,31)" stroke-width="1" opacity="1" d="M 81.5 27 L 83 27.5 L 80 32.5 L 81 35 Q 77.3 33.6 79 39.5 L 81 42.5 L 79 43 Q 80 46 77 45 L 76.5 42 L 75 47 Q 72.3 48.1 73 45.5 Q 70.8 44.3 72 39.5 L 73 39.5 L 74.5 42 L 75 40 L 77 39.5 L 77 37.5 L 77 30.5 L 78.5 30 L 78.5 28 Q 80 30.5 81.5 27 Z " /><path fill="rgb(92,36,31)" stroke="rgb(92,36,31)" stroke-width="1" opacity="1" d="M 89.5 31 L 90 33 L 85.5 35 L 87.5 32 L 89.5 31 Z " /><path fill="rgb(92,36,31)" stroke="rgb(92,36,31)" stroke-width="1" opacity="1" d="M 101.5 32 L 102 38 Q 104.7 36.9 104 39.5 L 105 39.5 L 105.5 37 L 106 40 Q 109.8 38.5 109 41.5 L 112 43.5 L 112.5 38 L 116.5 46 L 117.5 40 L 118.5 42 L 119 38.5 L 118.5 37 Q 121.1 36.2 120 39.5 L 121 39.5 L 121.5 37 L 124 40.5 L 122 41.5 L 121.5 40 L 121 42.5 L 123 50.5 L 122.5 52 L 124.5 51 L 125 52.5 L 124 55 L 118.5 53 L 115 55 L 114.5 57 L 112 51 Q 105.7 52.5 104 48.5 L 103 39.5 L 100 34.5 L 101.5 32 Z M 114 44 L 112 51 L 114 52 L 114 44 Z " /><path fill="rgb(92,36,31)" stroke="rgb(92,36,31)" stroke-width="1" opacity="1" d="M 104.5 32 L 105 34.5 L 104 34.5 L 104.5 32 Z " /><path fill="rgb(92,36,31)" stroke="rgb(92,36,31)" stroke-width="1" opacity="1" d="M 124.5 42 L 125 43.5 L 123.5 46 L 123 43.5 L 124.5 42 Z " /><path fill="rgb(92,36,31)" stroke="rgb(92,36,31)" stroke-width="1" opacity="1" d="M 92.5 53 L 91.5 55 L 92.5 53 Z " /><path fill="rgb(92,36,31)" stroke="rgb(92,36,31)" stroke-width="1" opacity="1" d="M 77.5 54 L 76.5 56 L 77.5 54 Z " /><path fill="rgb(92,36,31)" stroke="rgb(92,36,31)" stroke-width="1" opacity="1" d="M 82.5 74 L 84 76.5 L 82 75.5 L 82.5 74 Z " /><path fill="rgb(92,36,31)" stroke="rgb(92,36,31)" stroke-width="1" opacity="1" d="M 88 75 L 93 76 Q 94.1 78.7 91.5 78 L 87.5 79 L 88 77.5 L 88 75 Z " /><path fill="rgb(92,36,31)" stroke="rgb(92,36,31)" stroke-width="1" opacity="1" d="M 95.5 75 L 94.5 77 L 95.5 75 Z " /><path fill="rgb(92,36,31)" stroke="rgb(92,36,31)" stroke-width="1" opacity="1" d="M 84.5 78 L 85.5 80 L 84.5 78 Z " /><path fill="rgb(92,36,31)" stroke="rgb(92,36,31)" stroke-width="1" opacity="1" d="M 126.5 89 L 129 90 L 134.5 98 L 144 103.5 L 142.5 103 L 138.5 102 L 131 95.5 L 126.5 89 Z " /><path fill="rgb(92,36,31)" stroke="rgb(92,36,31)" stroke-width="1" opacity="1" d="M 52.5 100 L 49.5 104 L 52.5 100 Z " /><path fill="rgb(92,36,31)" stroke="rgb(92,36,31)" stroke-width="1" opacity="1" d="M 88.5 101 L 87.5 103 L 85 102.5 L 88.5 101 Z " /><path fill="rgb(92,36,31)" stroke="rgb(92,36,31)" stroke-width="1" opacity="1" d="M 75.5 103 L 83 103.5 L 75.5 104 L 75.5 103 Z " /><path fill="rgb(92,36,31)" stroke="rgb(92,36,31)" stroke-width="1" opacity="1" d="M 47.5 106 L 45.5 109 L 47.5 106 Z " /><path fill="rgb(92,36,31)" stroke="rgb(92,36,31)" stroke-width="1" opacity="1" d="M 150.5 106 L 153 107.5 L 151.5 107 L 150.5 106 Z " /><path fill="rgb(92,36,31)" stroke="rgb(92,36,31)" stroke-width="1" opacity="1" d="M 100.5 107 L 102 109.5 L 101 109.5 L 100.5 107 Z " /><path fill="rgb(92,36,31)" stroke="rgb(92,36,31)" stroke-width="1" opacity="1" d="M 154.5 108 L 155.5 110 L 154.5 108 Z " /><path fill="rgb(92,36,31)" stroke="rgb(92,36,31)" stroke-width="1" opacity="1" d="M 98.5 109 L 97.5 111 L 98.5 109 Z " /><path fill="rgb(92,36,31)" stroke="rgb(92,36,31)" stroke-width="1" opacity="1" d="M 44.5 110 L 44 111.5 L 41.5 116 L 41 114.5 L 44.5 110 Z " /><path fill="rgb(92,36,31)" stroke="rgb(92,36,31)" stroke-width="1" opacity="1" d="M 91 111 L 93.5 112 L 95 111.5 L 93.5 113 L 91 112.5 L 91 111 Z " /><path fill="rgb(92,36,31)" stroke="rgb(92,36,31)" stroke-width="1" opacity="1" d="M 159.5 111 L 160.5 113 L 159.5 111 Z " /><path fill="rgb(92,36,31)" stroke="rgb(92,36,31)" stroke-width="1" opacity="1" d="M 162.5 113 L 163.5 115 L 162.5 113 Z " /><path fill="rgb(92,36,31)" stroke="rgb(92,36,31)" stroke-width="1" opacity="1" d="M 94 114 L 96 114.5 L 94 115.5 L 94 114 Z " /><path fill="rgb(92,36,31)" stroke="rgb(92,36,31)" stroke-width="1" opacity="1" d="M 165.5 115 L 166.5 117 L 165.5 115 Z " /><path fill="rgb(92,36,31)" stroke="rgb(92,36,31)" stroke-width="1" opacity="1" d="M 40.5 117 L 38 120.5 L 36.5 125 L 36 122.5 L 40.5 117 Z " /><path fill="rgb(92,36,31)" stroke="rgb(92,36,31)" stroke-width="1" opacity="1" d="M 168.5 123 Q 172 125 171 131.5 L 169.5 136 L 169 131.5 L 170 126.5 L 168.5 123 Z " /><path fill="rgb(92,36,31)" stroke="rgb(92,36,31)" stroke-width="1" opacity="1" d="M 91.5 130 L 92.5 132 L 91.5 130 Z " /><path fill="rgb(92,36,31)" stroke="rgb(92,36,31)" stroke-width="1" opacity="1" d="M 33.5 131 L 30.5 135 L 33.5 131 Z " /><path fill="rgb(92,36,31)" stroke="rgb(92,36,31)" stroke-width="1" opacity="1" d="M 29.5 136 L 28.5 138 L 29.5 136 Z " /><path fill="rgb(92,36,31)" stroke="rgb(92,36,31)" stroke-width="1" opacity="1" d="M 171.5 139 L 172 142.5 L 171 142.5 L 171.5 139 Z " /><path fill="rgb(92,36,31)" stroke="rgb(92,36,31)" stroke-width="1" opacity="1" d="M 26.5 142 L 27 144.5 L 26 144.5 L 26.5 142 Z " /><path fill="rgb(92,36,31)" stroke="rgb(92,36,31)" stroke-width="1" opacity="1" d="M 23.5 152 L 24 157.5 L 23 157.5 L 23.5 152 Z " /><path fill="rgb(92,36,31)" stroke="rgb(92,36,31)" stroke-width="1" opacity="1" d="M 173.5 156 Q 175.8 157.8 175 162.5 L 174 167.5 L 175 170.5 L 174 170.5 L 173 163.5 L 174 158.5 L 173.5 156 Z " /><path fill="rgb(92,36,31)" stroke="rgb(92,36,31)" stroke-width="1" opacity="1" d="M 26.5 164 L 27.5 166 L 26.5 164 Z " /><path fill="rgb(92,36,31)" stroke="rgb(92,36,31)" stroke-width="1" opacity="1" d="M 49.5 164 L 51 164.5 L 47.5 166 L 47.5 165 L 49.5 164 Z " /><path fill="rgb(92,36,31)" stroke="rgb(92,36,31)" stroke-width="1" opacity="1" d="M 60.5 165 L 61 176.5 L 60 176.5 L 60.5 165 Z " /><path fill="rgb(92,36,31)" stroke="rgb(92,36,31)" stroke-width="1" opacity="1" d="M 34.5 167 L 37 167.5 L 34.5 168 L 34.5 167 Z " /><path fill="rgb(92,36,31)" stroke="rgb(92,36,31)" stroke-width="1" opacity="1" d="M 175.5 172 L 176 174.5 L 175 174.5 L 175.5 172 Z " /><path fill="rgb(92,36,31)" stroke="rgb(92,36,31)" stroke-width="1" opacity="1" d="M 174.5 176 L 175 197.5 L 173.5 199 L 153.5 199 L 153.5 198 L 174 198 L 174.5 176 Z " /><path fill="rgb(92,36,31)" stroke="rgb(92,36,31)" stroke-width="1" opacity="1" d="M 59.5 178 L 60 182.5 L 59 182.5 L 59.5 178 Z " /><path fill="rgb(92,36,31)" stroke="rgb(92,36,31)" stroke-width="1" opacity="1" d="M 56.5 194 L 57 195.5 L 56 198 L 145 198.5 L 56.5 199 L 55 196.5 L 56.5 194 Z " /><path fill="rgb(128,88,75)" stroke="rgb(128,88,75)" stroke-width="1" opacity="1" d="M 88.5 20 L 94.5 21 L 97.5 20 L 99.5 20 L 106.5 24 L 116.5 26 L 121 29.5 L 125 36.5 L 127 43.5 L 127 48.5 L 125.5 52 L 123.5 52 L 122 51.5 L 123 48.5 L 120 37 L 118 37.5 L 119 41.5 L 118 41.5 L 117.5 40 L 116.5 46 L 112.5 38 L 111.5 44 L 109 40 Q 104.9 41.7 106 37.5 L 105 37.5 L 104.5 40 L 104 38 L 102 38.5 L 103 42.5 L 102 42.5 L 100.5 39 L 100 46.5 L 100 48.5 L 101 50.5 L 92 51.5 L 98.5 53 L 101 55.5 L 94 56 L 93.5 58 L 90 56 L 92 52.5 L 88 52 Q 86.9 49.3 89.5 50 L 90.5 49 L 99 49 L 98 39 Q 95 40.3 96 36.5 Q 94.8 32.8 88.5 34 L 86.5 35 L 86.5 34 L 93.5 32 L 95.5 32 L 98 33.5 L 98.5 36 L 100 28.5 L 99 26.5 L 101 25.5 L 100 27.5 L 102 28.5 Q 101.3 26.3 103.5 27 L 103 25.5 Q 103.8 23.3 101.5 24 L 99.5 23 L 93 24 L 92.5 26 Q 89.8 23.2 83.5 24 L 78 28.5 L 76 38.5 L 76.5 40 Q 74.3 39.3 75 41.5 L 73 40.5 Q 73.4 28.9 80.5 24 L 88.5 20 Z M 102 32 L 100 35 L 101 38 L 102 38 L 102 32 Z M 105 32 L 104 35 L 105 35 L 105 32 Z M 122 37 L 124 50 L 126 49 Q 126 41 122 37 Z M 96 54 L 96 55 L 99 55 L 96 54 Z " /><path fill="rgb(128,88,75)" stroke="rgb(128,88,75)" stroke-width="1" opacity="1" d="M 79 35 L 83.5 36 L 85 35.5 Q 83.8 38 80 37 Q 79.4 41.6 83 43.5 L 80 44 Q 81.3 47.3 76.5 46 L 75 49.5 L 77 50.5 L 77.5 49 L 81 51.5 L 83 54.5 L 81.5 54 Q 77.8 53 79 56 L 83 56.5 L 82 59 L 78 58.5 L 80 57.5 L 75 57 L 78 52.5 L 75.5 52 L 74 52.5 L 73 47.5 L 75 47 L 76.5 42 L 77 45 L 79 45 Q 77.9 42.3 80.5 43 L 80 41.5 L 79 35 Z " /><path fill="rgb(128,88,75)" stroke="rgb(128,88,75)" stroke-width="1" opacity="1" d="M 103.5 45 Q 103.3 49.7 106.5 51 Q 112.6 49.8 112 52.5 L 114.5 57 L 115 55 L 120.5 53 L 120.5 54 L 118.5 54 L 113.5 59 L 109.5 52 Q 103.8 52.8 103 48.5 L 103.5 45 Z " /><path fill="rgb(128,88,75)" stroke="rgb(128,88,75)" stroke-width="1" opacity="1" d="M 124.5 53 L 125 54.5 L 123.5 58 L 122 55.5 L 124 55 L 124.5 53 Z " /><path fill="rgb(128,88,75)" stroke="rgb(128,88,75)" stroke-width="1" opacity="1" d="M 64.5 54 L 67 55.5 L 65.5 55 L 63.5 56 L 64.5 54 Z " /><path fill="rgb(128,88,75)" stroke="rgb(128,88,75)" stroke-width="1" opacity="1" d="M 71.5 54 L 72.5 56 L 71.5 54 Z " /><path fill="rgb(128,88,75)" stroke="rgb(128,88,75)" stroke-width="1" opacity="1" d="M 74.5 58 L 76 59.5 L 76 67.5 L 75 67.5 L 74 61.5 L 75 59.5 L 74.5 58 Z " /><path fill="rgb(128,88,75)" stroke="rgb(128,88,75)" stroke-width="1" opacity="1" d="M 70.5 63 L 71 64.5 L 68.5 68 L 69 66.5 L 70.5 63 Z " /><path fill="rgb(128,88,75)" stroke="rgb(128,88,75)" stroke-width="1" opacity="1" d="M 85 65 Q 88.7 63.5 88 66.5 L 85 66.5 L 85 65 Z " /><path fill="rgb(128,88,75)" stroke="rgb(128,88,75)" stroke-width="1" opacity="1" d="M 82.5 67 L 83.5 69 L 82.5 67 Z " /><path fill="rgb(128,88,75)" stroke="rgb(128,88,75)" stroke-width="1" opacity="1" d="M 118.5 68 L 118 69.5 L 117.5 74 L 117 69.5 L 118.5 68 Z " /><path fill="rgb(128,88,75)" stroke="rgb(128,88,75)" stroke-width="1" opacity="1" d="M 80.5 69 L 79.5 71 L 80.5 69 Z " /><path fill="rgb(128,88,75)" stroke="rgb(128,88,75)" stroke-width="1" opacity="1" d="M 82.5 72 L 85 72.5 L 83.5 75 L 82 74.5 L 85 79.5 L 82 77.5 L 81 73.5 L 82.5 72 Z " /><path fill="rgb(128,88,75)" stroke="rgb(128,88,75)" stroke-width="1" opacity="1" d="M 86.5 72 L 89 72.5 L 86.5 73 L 86.5 72 Z " /><path fill="rgb(128,88,75)" stroke="rgb(128,88,75)" stroke-width="1" opacity="1" d="M 93.5 73 L 97 74.5 L 95.5 74 Q 92.5 74.5 93.5 73 Z " /><path fill="rgb(128,88,75)" stroke="rgb(128,88,75)" stroke-width="1" opacity="1" d="M 93.5 77 L 92.5 79 L 87.5 81 L 86.5 79 Q 91.8 79.8 93.5 77 Z " /><path fill="rgb(128,88,75)" stroke="rgb(128,88,75)" stroke-width="1" opacity="1" d="M 76.5 78 L 75.5 80 L 76.5 78 Z " /><path fill="rgb(128,88,75)" stroke="rgb(128,88,75)" stroke-width="1" opacity="1" d="M 79.5 79 L 80 84.5 L 79 84.5 L 79.5 79 Z " /><path fill="rgb(128,88,75)" stroke="rgb(128,88,75)" stroke-width="1" opacity="1" d="M 120.5 86 L 121 88.5 L 120 88.5 L 120.5 86 Z " /><path fill="rgb(128,88,75)" stroke="rgb(128,88,75)" stroke-width="1" opacity="1" d="M 122.5 87 L 124.5 90 L 122.5 87 Z " /><path fill="rgb(128,88,75)" stroke="rgb(128,88,75)" stroke-width="1" opacity="1" d="M 87.5 92 Q 91.3 91.3 92 93.5 L 90.5 93 Q 86.5 93.8 87.5 92 Z " /><path fill="rgb(128,88,75)" stroke="rgb(128,88,75)" stroke-width="1" opacity="1" d="M 94 93 Q 96.7 91.9 96 94.5 L 100.5 101 L 104 101.5 L 98 105.5 L 101.5 107 L 103 107.5 L 101 108 L 100.5 110 L 97.5 106 L 95 105.5 L 98 104.5 L 93 97.5 L 95 97.5 L 94 93 Z " /><path fill="rgb(128,88,75)" stroke="rgb(128,88,75)" stroke-width="1" opacity="1" d="M 54.5 98 L 53.5 100 L 54.5 98 Z " /><path fill="rgb(128,88,75)" stroke="rgb(128,88,75)" stroke-width="1" opacity="1" d="M 75.5 98 L 74.5 100 L 75.5 98 Z " /><path fill="rgb(128,88,75)" stroke="rgb(128,88,75)" stroke-width="1" opacity="1" d="M 52.5 101 L 53 103.5 L 52 103.5 L 52.5 101 Z " /><path fill="rgb(128,88,75)" stroke="rgb(128,88,75)" stroke-width="1" opacity="1" d="M 120.5 102 L 119.5 104 L 120.5 102 Z " /><path fill="rgb(128,88,75)" stroke="rgb(128,88,75)" stroke-width="1" opacity="1" d="M 90.5 103 L 92 109 L 90 109 L 90.5 103 Z " /><path fill="rgb(128,88,75)" stroke="rgb(128,88,75)" stroke-width="1" opacity="1" d="M 67.5 107 L 68 108.5 L 66 109.5 L 67.5 107 Z " /><path fill="rgb(128,88,75)" stroke="rgb(128,88,75)" stroke-width="1" opacity="1" d="M 96.5 108 Q 98.8 107.3 98 109.5 L 95 111 L 96.5 108 Z " /><path fill="rgb(128,88,75)" stroke="rgb(128,88,75)" stroke-width="1" opacity="1" d="M 93.5 110 L 94 111.5 L 92 112.5 L 93.5 110 Z " /><path fill="rgb(128,88,75)" stroke="rgb(128,88,75)" stroke-width="1" opacity="1" d="M 107.5 110 L 109.5 113 Q 104.5 112 103.5 115 L 105.5 112 Q 108 112.7 107.5 110 Z " /><path fill="rgb(128,88,75)" stroke="rgb(128,88,75)" stroke-width="1" opacity="1" d="M 63.5 113 L 62.5 115 L 63.5 113 Z " /><path fill="rgb(128,88,75)" stroke="rgb(128,88,75)" stroke-width="1" opacity="1" d="M 91.5 115 L 93 117.5 L 91 118.5 Q 94.4 120.6 94.5 126 Q 96.3 123.2 98 127.5 L 98 129.5 L 97.5 131 L 97 129 L 94 130.5 L 97 132.5 L 95.5 135 Q 93.3 135.8 94 133.5 L 93.5 131 L 91 129.5 L 92 127.5 L 91.5 126 L 94 127.5 L 90 121.5 L 90 118.5 L 91.5 115 Z " /><path fill="rgb(128,88,75)" stroke="rgb(128,88,75)" stroke-width="1" opacity="1" d="M 101.5 115 L 98.5 119 L 101.5 115 Z " /><path fill="rgb(128,88,75)" stroke="rgb(128,88,75)" stroke-width="1" opacity="1" d="M 110.5 119 L 109.5 121 L 110.5 119 Z " /><path fill="rgb(128,88,75)" stroke="rgb(128,88,75)" stroke-width="1" opacity="1" d="M 97.5 122 L 98 124.5 L 97 124.5 L 97.5 122 Z " /><path fill="rgb(128,88,75)" stroke="rgb(128,88,75)" stroke-width="1" opacity="1" d="M 107.5 123 L 106.5 125 L 107.5 123 Z " /><path fill="rgb(128,88,75)" stroke="rgb(128,88,75)" stroke-width="1" opacity="1" d="M 104.5 127 L 103.5 129 L 104.5 127 Z " /><path fill="rgb(128,88,75)" stroke="rgb(128,88,75)" stroke-width="1" opacity="1" d="M 101.5 131 L 100.5 133 L 101.5 131 Z " /><path fill="rgb(128,88,75)" stroke="rgb(128,88,75)" stroke-width="1" opacity="1" d="M 99.5 134 L 98.5 136 L 96.5 137 L 97.5 135 L 99.5 134 Z " /><path fill="rgb(128,88,75)" stroke="rgb(128,88,75)" stroke-width="1" opacity="1" d="M 92.5 135 L 95 138.5 L 94 138.5 Q 94.7 135.9 92 137 L 92.5 135 Z " /><path fill="rgb(184,0,0)" stroke="rgb(184,0,0)" stroke-width="1" opacity="1" d="M 18 13 L 179 13 L 179 198.5 L 176.5 199 Q 173.9 199.8 175 196.5 Q 177.2 195.3 176 190.5 L 175 189.5 L 175 178.5 Q 177.7 176.2 177 170.5 L 175 168.5 Q 176.7 157.3 173 151.5 L 174 146.5 Q 171.2 144.8 173 138.5 L 171 136.5 L 171 131.5 L 172 127.5 L 169 122.5 Q 169.6 117.1 168 115 L 149.5 104 L 138.5 100 L 132 94.5 L 128.5 89 L 120 85 L 118 75.5 L 120 71.5 L 119 69.5 L 123 64.5 L 129 46.5 L 126 35.5 L 120.5 27 L 116 26 Q 117.3 22.7 112.5 24 L 107.5 23 L 98.5 18 L 89.5 18 L 86 19 Q 87.1 21.7 84.5 21 Q 78.8 22.3 76 26.5 L 71 37.5 L 71 47.5 L 73 50.5 L 73 52.5 L 72.5 54 L 70.5 53 L 67 55 Q 68.3 51.7 63.5 53 L 60.5 60 L 56.5 59 L 54 62.5 L 54 69.5 L 51 81.5 L 52 82.5 L 53 99 Q 50.3 97.9 51 100.5 Q 43.3 107.1 40 117 Q 37.3 115.9 38 118.5 L 35.5 122 L 35 22 L 18 22 L 18 13 Z " /><path fill="rgb(184,0,0)" stroke="rgb(184,0,0)" stroke-width="1" opacity="1" d="M 74.5 69 Q 77.7 71.7 77 77 Q 74.3 75.9 75 78.5 L 74 78.5 L 74.5 69 Z " /><path fill="rgb(184,0,0)" stroke="rgb(184,0,0)" stroke-width="1" opacity="1" d="M 81.5 84 L 82 90 Q 84.7 88.9 84 91.5 Q 85.3 95 90 94 L 89 101 L 72.5 103 L 72.5 102 L 78 98.5 L 80 92.5 L 80 86.5 L 81.5 84 Z " /><path fill="rgb(184,0,0)" stroke="rgb(184,0,0)" stroke-width="1" opacity="1" d="M 34.5 123 L 35 124.5 L 33 130.5 Q 27.4 134.4 25 141.5 L 22 157.5 Q 23.1 164.9 28.5 168 L 42.5 169 L 58.5 161 L 59 162.5 L 59 164.5 L 59 174.5 L 58 175.5 L 57 189.5 L 55 196.5 L 52.5 199 L 50.5 198 L 20.5 198 Q 19.2 200.3 18 197.5 L 18 124.5 L 18.5 124 L 33.5 124 L 34.5 123 Z " /><path fill="rgb(183,3,2)" stroke="rgb(183,3,2)" stroke-width="1" opacity="1" d="M 0 0 L 199 0 L 199 199 L 179.5 199 L 179 198.5 L 179 13 L 18 13 L 18 22 L 34.5 22 L 35 22.5 L 35 121.5 L 36 123.5 L 33.5 124 L 18.5 124 L 18 124.5 L 18 197.5 L 18.5 199 L 0.5 199 L 0 198.5 L 0 0 Z " /><path fill="rgb(183,3,2)" stroke="rgb(183,3,2)" stroke-width="1" opacity="1" d="M 127.5 43 L 128 45.5 L 127 45.5 L 127.5 43 Z " /><path fill="rgb(183,3,2)" stroke="rgb(183,3,2)" stroke-width="1" opacity="1" d="M 74.5 102 L 77 102.5 L 74.5 103 L 74.5 102 Z " /><path fill="rgb(183,3,2)" stroke="rgb(183,3,2)" stroke-width="1" opacity="1" d="M 171.5 127 L 172 130.5 L 171 130.5 L 171.5 127 Z " /><path fill="rgb(183,3,2)" stroke="rgb(183,3,2)" stroke-width="1" opacity="1" d="M 31.5 132 L 29.5 135 L 31.5 132 Z " /><path fill="rgb(183,3,2)" stroke="rgb(183,3,2)" stroke-width="1" opacity="1" d="M 170.5 133 L 171 135.5 L 170 135.5 L 170.5 133 Z " /><path fill="rgb(183,3,2)" stroke="rgb(183,3,2)" stroke-width="1" opacity="1" d="M 25.5 141 L 26 144.5 L 25 144.5 L 25.5 141 Z " /><path fill="rgb(183,3,2)" stroke="rgb(183,3,2)" stroke-width="1" opacity="1" d="M 173.5 146 L 174 150.5 L 173 150.5 L 173.5 146 Z " /><path fill="rgb(183,3,2)" stroke="rgb(183,3,2)" stroke-width="1" opacity="1" d="M 57.5 161 L 56.5 163 L 54.5 164 L 55.5 162 L 57.5 161 Z " /><path fill="rgb(183,3,2)" stroke="rgb(183,3,2)" stroke-width="1" opacity="1" d="M 47.5 166 L 46.5 168 L 44 167.5 L 47.5 166 Z " /><path fill="rgb(183,3,2)" stroke="rgb(183,3,2)" stroke-width="1" opacity="1" d="M 58.5 177 L 59 181.5 L 58 181.5 L 58.5 177 Z " /><path fill="rgb(183,3,2)" stroke="rgb(183,3,2)" stroke-width="1" opacity="1" d="M 175.5 190 L 176 195.5 L 175 195.5 L 175.5 190 Z " /><path fill="rgb(183,3,2)" stroke="rgb(183,3,2)" stroke-width="1" opacity="1" d="M 54.5 197 L 55 199 L 53 198.5 L 54.5 197 Z " /><path fill="rgb(183,3,2)" stroke="rgb(183,3,2)" stroke-width="1" opacity="1" d="M 20.5 198 L 51 198.5 L 20.5 199 L 20.5 198 Z " /><path fill="rgb(230,199,189)" stroke="rgb(230,199,189)" stroke-width="1" opacity="1" d="M 93.5 20 L 97 21.5 L 95.5 22 L 93.5 20 Z " /><path fill="rgb(230,199,189)" stroke="rgb(230,199,189)" stroke-width="1" opacity="1" d="M 88.5 34 Q 94.8 32.8 96 36.5 L 96 39 L 98 39.5 L 98 44.5 L 99 49 Q 91.4 47.9 88 50 Q 86.7 53.3 91.5 52 L 92.5 51 L 101 50.5 L 100 48.5 L 100 46.5 L 100.5 39 Q 103.9 41.6 103 48.5 L 106.5 52 Q 110.3 51.3 111 53.5 L 113.5 59 L 118.5 54 L 122 54 L 123 59.5 Q 122 66.5 117 69.5 L 117 78.5 L 120.5 89 L 121.5 87 L 126 92.5 L 114 114.5 L 98.5 135 L 98 122.5 L 97 119 L 105.5 113 L 110 112.5 Q 105 106.6 95.5 105 L 91 107 L 91 94.5 L 92 93.5 Q 90.6 90.8 86 92 L 83 81.5 L 76 69.5 L 76 57 L 80 57.5 L 78 58.5 L 82 59 L 83 54.5 L 79.5 50 L 77.5 49 L 75 50 L 76.5 46 L 80 46 Q 78.8 43 82.5 44 L 81 41.5 L 80 37 L 83.5 37 L 88.5 34 Z M 93 52 L 90 55 Q 89 57 92 56 L 94 58 L 93 56 L 94 54 L 94 56 L 101 56 L 99 53 L 93 52 Z M 85 65 L 85 67 L 88 67 Q 89 63 85 65 Z M 83 72 L 81 74 L 82 78 L 88 81 L 93 79 L 97 75 L 96 73 Q 91 76 84 75 L 85 73 L 83 72 Z M 87 72 L 87 73 L 89 73 L 87 72 Z M 94 93 L 95 98 L 93 98 L 99 105 L 104 102 L 101 101 L 96 95 Q 97 92 94 93 Z " /><path fill="rgb(230,199,189)" stroke="rgb(230,199,189)" stroke-width="1" opacity="1" d="M 75 52 L 78 52.5 L 75 54.5 L 75 52 Z " /><path fill="rgb(230,199,189)" stroke="rgb(230,199,189)" stroke-width="1" opacity="1" d="M 64.5 55 L 67 56.5 L 66 59.5 L 69 57.5 L 70.5 55 L 74 57.5 L 75 60.5 L 72 72.5 L 72 82.5 L 73.5 85 Q 73.4 79.4 77.5 78 L 79 78.5 L 79 86.5 L 79 88.5 Q 78.8 96.8 73.5 100 L 69 103.5 L 66 109.5 L 69 108.5 L 67.5 111 L 60.5 115 L 56 111.5 L 53 105.5 L 53 100.5 Q 56.5 99 55 92.5 Q 52.1 87.9 53 79.5 L 57 60 L 60 61.5 L 60.5 64 L 64.5 55 Z " /><path fill="rgb(17,14,25)" stroke="rgb(17,14,25)" stroke-width="1" opacity="1" d="M 83.5 25 Q 88.9 23.1 88 26.5 L 86.5 26 Q 82.5 26.8 83.5 25 Z " /><path fill="rgb(17,14,25)" stroke="rgb(17,14,25)" stroke-width="1" opacity="1" d="M 94.5 27 L 92.5 30 L 94.5 27 Z " /><path fill="rgb(17,14,25)" stroke="rgb(17,14,25)" stroke-width="1" opacity="1" d="M 90.5 29 L 89.5 31 L 88 30.5 L 90.5 29 Z " /><path fill="rgb(17,14,25)" stroke="rgb(17,14,25)" stroke-width="1" opacity="1" d="M 81.5 33 L 82.5 35 L 81.5 33 Z " /><path fill="rgb(17,14,25)" stroke="rgb(17,14,25)" stroke-width="1" opacity="1" d="M 126.5 93 L 125.5 95 L 126.5 93 Z " /><path fill="rgb(17,14,25)" stroke="rgb(17,14,25)" stroke-width="1" opacity="1" d="M 121 105 L 123.5 105 L 128 109.5 L 128.5 111 L 131 109.5 L 130.5 111 L 138.5 107 L 137 109.5 L 137.5 112 L 140 111 L 140 115 L 141.5 115 L 147 116.5 L 146.5 118 Q 150.9 116.5 150 119.5 L 153 118.5 L 153.5 120 L 157.5 117 L 156.5 119 L 155 119.5 Q 156.3 122.3 157.5 120 L 163 119 L 165.5 123 L 169 125.5 L 168.5 127 L 163 126 L 162 130.5 L 168 137.5 L 167 138.5 L 170 141.5 Q 170.8 143.8 168.5 143 Q 163.8 145.3 168 147.5 L 170 150.5 L 169.5 152 Q 172.5 151.2 171 155 L 167.5 154 L 166.5 156 Q 168.8 155.3 168 157.5 L 173 169.5 Q 169.5 171 172 172.5 L 171 176.5 L 174 190.5 L 174 192.5 L 173.5 195 L 168 191 L 163.5 185 L 163 186.5 L 165.5 190 L 155 178.5 L 155 176 L 160 179.5 L 161.5 182 L 166 185.5 L 168.5 189 L 170 183.5 L 170 181.5 L 165 170 L 162 168.5 L 168 168 Q 169 162.9 165 161.5 L 165 159.5 L 166 157.5 L 160 148 L 164 146.5 L 159 145 L 160 132.5 L 159 127.5 L 156.5 125 L 152.5 126 L 153 124.5 Q 153.8 122.3 151.5 123 Q 150 125.5 148.5 122 L 145 123 L 143.5 120 L 139 120.5 L 139 122.5 L 138.5 124 L 136.5 123 Q 134 124.2 135 128 L 132.5 127 L 132 128.5 L 132.5 130 Q 131.3 127.7 130 130.5 L 130.5 132 L 129.5 131 L 127 132.5 L 137 115.5 L 134 114 L 135 116.5 L 133 117.5 L 133.5 119 L 132 118.5 L 131 120.5 L 131.5 122 L 130 121.5 L 129 123.5 Q 131.3 124.8 128.5 126 L 127 126.5 L 128 127.5 L 125 130.5 Q 125.8 132.8 123.5 132 Q 125.2 134.2 121 136.5 L 111.5 150 L 110 149.5 Q 113.6 147.6 113 143 L 107.5 141 L 106 141.5 L 105.5 140 Q 105 145.5 100.5 147 L 99 146.5 L 107 126.5 L 106.5 125 Q 107.8 127.3 109 124.5 L 115 115.5 L 114.5 114 L 116 114.5 L 117 111.5 L 116.5 110 Q 117.8 112.3 119 109.5 L 119 107 Q 122 108 121 105 Z M 130 112 L 130 115 L 133 115 L 131 114 L 133 113 L 130 112 Z M 126 116 Q 126 119 130 119 L 131 119 L 126 116 Z M 155 120 L 153 122 L 154 123 L 156 122 L 155 120 Z M 165 147 L 165 150 Q 168 149 165 147 Z " /><path fill="rgb(17,14,25)" stroke="rgb(17,14,25)" stroke-width="1" opacity="1" d="M 83.5 106 L 84 108.5 L 82 108.5 L 81.5 110 L 80.5 108 L 83.5 106 Z " /><path fill="rgb(17,14,25)" stroke="rgb(17,14,25)" stroke-width="1" opacity="1" d="M 73 107 L 76 107.5 L 73 109.5 L 72.5 111 L 72 109.5 L 73 107 Z " /><path fill="rgb(17,14,25)" stroke="rgb(17,14,25)" stroke-width="1" opacity="1" d="M 87.5 108 L 88 116.5 Q 85.2 119.5 86 125 L 80.5 128 L 78.5 128 L 76 126.5 Q 76.8 124.3 74.5 125 L 75 123.5 L 78 118 L 81 116.5 L 82.5 114 L 85 112.5 L 83 111.5 L 87.5 108 Z M 87 113 L 85 116 L 87 116 L 87 113 Z M 83 119 L 80 124 L 80 125 L 83 124 L 83 119 Z " /><path fill="rgb(17,14,25)" stroke="rgb(17,14,25)" stroke-width="1" opacity="1" d="M 104.5 109 L 105 112.5 L 104 112.5 L 104.5 109 Z " /><path fill="rgb(17,14,25)" stroke="rgb(17,14,25)" stroke-width="1" opacity="1" d="M 45.5 120 L 44 122.5 Q 44.7 125.1 42 124 L 42 126.5 L 40 126.5 L 39.5 130 L 37.5 130 L 35.5 131 L 35 129.5 L 37 124 L 43 123 Q 41.9 120.3 44.5 121 L 45.5 120 Z " /><path fill="rgb(17,14,25)" stroke="rgb(17,14,25)" stroke-width="1" opacity="1" d="M 49.5 120 L 48.5 122 L 49.5 120 Z " /><path fill="rgb(17,14,25)" stroke="rgb(17,14,25)" stroke-width="1" opacity="1" d="M 88.5 128 L 90.5 131 L 88.5 128 Z " /><path fill="rgb(17,14,25)" stroke="rgb(17,14,25)" stroke-width="1" opacity="1" d="M 136.5 135 Q 138.8 134.3 138 136.5 L 136.5 135 Z " /><path fill="rgb(17,14,25)" stroke="rgb(17,14,25)" stroke-width="1" opacity="1" d="M 31 139 Q 35.9 137.2 34 143.5 L 33 147 L 28 147 L 28 144.5 L 27 141.5 L 29.5 143 Q 31.8 142.3 31 144.5 L 32 144.5 L 31 139 Z " /><path fill="rgb(17,14,25)" stroke="rgb(17,14,25)" stroke-width="1" opacity="1" d="M 91.5 139 L 93.5 142 Q 91.8 138.9 90 140.5 L 91.5 139 Z " /><path fill="rgb(17,14,25)" stroke="rgb(17,14,25)" stroke-width="1" opacity="1" d="M 106.5 143 L 109 143.5 L 106.5 144 L 106.5 143 Z " /><path fill="rgb(17,14,25)" stroke="rgb(17,14,25)" stroke-width="1" opacity="1" d="M 26.5 149 L 27 154.5 L 26 154.5 L 26.5 149 Z " /><path fill="rgb(17,14,25)" stroke="rgb(17,14,25)" stroke-width="1" opacity="1" d="M 90.5 150 L 91 151.5 L 89 152.5 L 90.5 150 Z " /><path fill="rgb(17,14,25)" stroke="rgb(17,14,25)" stroke-width="1" opacity="1" d="M 27.5 156 L 28 157.5 L 27 159.5 L 27.5 163 Q 24.1 163.9 26 158.5 L 27.5 156 Z " /><path fill="rgb(17,14,25)" stroke="rgb(17,14,25)" stroke-width="1" opacity="1" d="M 61.5 169 L 62 181.5 L 61 181.5 L 61.5 169 Z " /><path fill="rgb(17,14,25)" stroke="rgb(17,14,25)" stroke-width="1" opacity="1" d="M 167.5 192 L 169.5 195 L 167.5 192 Z " /><path fill="rgb(17,14,25)" stroke="rgb(17,14,25)" stroke-width="1" opacity="1" d="M 59.5 193 L 63 198 Q 56.4 200.1 59.5 193 Z " /><path fill="rgb(17,14,25)" stroke="rgb(17,14,25)" stroke-width="1" opacity="1" d="M 157.5 196 L 161 197.5 L 157 198 L 157.5 196 Z " /><path fill="rgb(17,14,25)" stroke="rgb(17,14,25)" stroke-width="1" opacity="1" d="M 170.5 196 L 171.5 198 L 170.5 196 Z " /><path fill="rgb(24,20,33)" stroke="rgb(24,20,33)" stroke-width="1" opacity="1" d="M 88.5 25 L 89.5 27 L 88.5 25 Z " /><path fill="rgb(24,20,33)" stroke="rgb(24,20,33)" stroke-width="1" opacity="1" d="M 98.5 25 L 97.5 27 L 98.5 25 Z " /><path fill="rgb(24,20,33)" stroke="rgb(24,20,33)" stroke-width="1" opacity="1" d="M 85.5 26 L 89 28.5 L 86.5 27 L 85.5 26 Z " /><path fill="rgb(24,20,33)" stroke="rgb(24,20,33)" stroke-width="1" opacity="1" d="M 90.5 28 L 94 29.5 L 91.5 31 L 91.5 30 L 93 29.5 Q 89.7 29.6 90.5 28 Z " /><path fill="rgb(24,20,33)" stroke="rgb(24,20,33)" stroke-width="1" opacity="1" d="M 113.5 48 L 114 50.5 L 112 49.5 L 113.5 48 Z " /><path fill="rgb(24,20,33)" stroke="rgb(24,20,33)" stroke-width="1" opacity="1" d="M 126 94 Q 129.8 92.5 129 95.5 L 135 100 L 135.5 104 L 136 102 L 138 102 Q 136.9 104.7 139.5 104 L 145.5 109 L 148.5 109 L 155 112 Q 153.9 114.7 156.5 114 L 167 118.5 Q 167.8 120.8 165.5 120 L 167.5 124 L 163 120.5 Q 163.8 118.3 161.5 119 L 155.5 122 L 156 120.5 L 158 117.5 L 156.5 117 L 153 119.5 L 152.5 118 L 150 119.5 Q 150.9 116.5 146.5 118 L 146.5 116 L 140 115 L 140 111 L 138.5 111 L 137 111.5 L 139 107.5 L 137 107 L 136.5 105 L 134.5 108 L 128.5 111 L 125.5 107 L 124 107.5 Q 126.2 106.3 123.5 105 Q 120.2 103.9 121 106.5 L 120 106.5 L 123 100.5 L 122.5 99 L 125 97.5 L 126 94 Z " /><path fill="rgb(24,20,33)" stroke="rgb(24,20,33)" stroke-width="1" opacity="1" d="M 87.5 103 L 87 104.5 L 88 107.5 L 82 111 Q 81 108 84 109 L 84 106.5 L 87.5 103 Z " /><path fill="rgb(24,20,33)" stroke="rgb(24,20,33)" stroke-width="1" opacity="1" d="M 76.5 104 L 81 104.5 L 71.5 108 L 72.5 106 L 76.5 104 Z " /><path fill="rgb(24,20,33)" stroke="rgb(24,20,33)" stroke-width="1" opacity="1" d="M 92.5 107 Q 95.1 106.2 94 109.5 L 93 109.5 L 92.5 107 Z " /><path fill="rgb(24,20,33)" stroke="rgb(24,20,33)" stroke-width="1" opacity="1" d="M 47.5 108 L 48 110.5 L 47.5 112 Q 49.8 112.8 49 110.5 L 52.5 108 L 55 109.5 L 54.5 111 L 56 111.5 L 51 120 Q 48.3 121.1 49 118.5 L 47 119.5 L 45 123.5 L 47 123.5 L 41.5 131 L 43 128.5 L 45 124.5 L 42 125.5 L 45 121.5 L 43 121 Q 44.3 124.3 39.5 123 L 37.5 124 L 40 120.5 L 47.5 108 Z " /><path fill="rgb(24,20,33)" stroke="rgb(24,20,33)" stroke-width="1" opacity="1" d="M 103.5 109 L 104 111 L 97 112 L 98.5 115 L 100.5 114 L 100.5 115 Q 97.9 114.3 99 117 L 96.5 117 L 94 120.5 L 94.5 122 L 93 119.5 L 93.5 117 L 98 115.5 L 96 115 L 95 112.5 L 99.5 110 L 101.5 110 L 103.5 109 Z " /><path fill="rgb(24,20,33)" stroke="rgb(24,20,33)" stroke-width="1" opacity="1" d="M 103.5 112 L 104 114 L 102 113.5 L 103.5 112 Z " /><path fill="rgb(24,20,33)" stroke="rgb(24,20,33)" stroke-width="1" opacity="1" d="M 130.5 112 L 136 114 Q 137 117 134 116 L 132.5 113 Q 129.5 113.5 130.5 112 Z " /><path fill="rgb(24,20,33)" stroke="rgb(24,20,33)" stroke-width="1" opacity="1" d="M 86.5 113 L 87 116 L 83.5 117 L 83.5 116 L 86 114.5 L 86.5 113 Z " /><path fill="rgb(24,20,33)" stroke="rgb(24,20,33)" stroke-width="1" opacity="1" d="M 125.5 116 L 131 118.5 L 129.5 119 Q 125.5 118.5 125.5 116 Z " /><path fill="rgb(24,20,33)" stroke="rgb(24,20,33)" stroke-width="1" opacity="1" d="M 133.5 117 L 133 118.5 L 129.5 124 L 130 122.5 L 133.5 117 Z " /><path fill="rgb(24,20,33)" stroke="rgb(24,20,33)" stroke-width="1" opacity="1" d="M 82.5 119 L 83 123.5 L 79.5 125 L 80 123.5 L 82.5 119 Z " /><path fill="rgb(24,20,33)" stroke="rgb(24,20,33)" stroke-width="1" opacity="1" d="M 88 122 L 91 123.5 L 88 124 L 88 122 Z " /><path fill="rgb(24,20,33)" stroke="rgb(24,20,33)" stroke-width="1" opacity="1" d="M 95 123 L 97 123.5 L 95 124.5 L 95 123 Z " /><path fill="rgb(24,20,33)" stroke="rgb(24,20,33)" stroke-width="1" opacity="1" d="M 127.5 126 L 126.5 128 L 127.5 126 Z " /><path fill="rgb(24,20,33)" stroke="rgb(24,20,33)" stroke-width="1" opacity="1" d="M 163 126 L 168.5 127 L 170 126.5 L 169.5 129 L 167 128 L 171 141.5 L 171 145.5 L 169 145.5 L 170 149.5 L 168 148.5 L 166 145.5 L 170 143 L 167 138.5 L 168 136.5 L 162 130.5 L 162 128.5 L 163 126 Z " /><path fill="rgb(24,20,33)" stroke="rgb(24,20,33)" stroke-width="1" opacity="1" d="M 41.5 127 L 40.5 129 L 41.5 127 Z " /><path fill="rgb(24,20,33)" stroke="rgb(24,20,33)" stroke-width="1" opacity="1" d="M 91.5 127 L 90.5 129 L 89 129.5 L 92 133.5 L 91 133.5 L 89.5 131 Q 87.3 131.8 88 129.5 L 91.5 127 Z " /><path fill="rgb(24,20,33)" stroke="rgb(24,20,33)" stroke-width="1" opacity="1" d="M 32 135 Q 35.7 133.8 34 139 L 31 139 L 31 143 L 29.5 143 L 28 139.5 L 31 138.5 L 32 135 Z " /><path fill="rgb(24,20,33)" stroke="rgb(24,20,33)" stroke-width="1" opacity="1" d="M 89 138 L 93 138.5 L 89 140 L 89 138 Z " /><path fill="rgb(24,20,33)" stroke="rgb(24,20,33)" stroke-width="1" opacity="1" d="M 90.5 141 L 92 143.5 L 90 142.5 L 90.5 141 Z " /><path fill="rgb(24,20,33)" stroke="rgb(24,20,33)" stroke-width="1" opacity="1" d="M 26.5 145 L 27 148.5 L 26 148.5 L 26.5 145 Z " /><path fill="rgb(24,20,33)" stroke="rgb(24,20,33)" stroke-width="1" opacity="1" d="M 89.5 150 L 90 152 L 87.5 153 L 89.5 150 Z " /><path fill="rgb(24,20,33)" stroke="rgb(24,20,33)" stroke-width="1" opacity="1" d="M 25.5 151 L 27 157.5 L 25.5 161 L 24 155.5 L 25.5 151 Z " /><path fill="rgb(24,20,33)" stroke="rgb(24,20,33)" stroke-width="1" opacity="1" d="M 167.5 154 L 170.5 155 L 172 154.5 L 173 158.5 L 172 160.5 Q 174.5 162 173 167.5 L 172 167.5 L 168 156 L 166 155.5 L 167.5 154 Z " /><path fill="rgb(24,20,33)" stroke="rgb(24,20,33)" stroke-width="1" opacity="1" d="M 173.5 169 L 174 181.5 L 172.5 185 Q 173.1 177.4 170 173.5 L 172 173.5 L 171 171.5 L 173.5 169 Z " /><path fill="rgb(24,20,33)" stroke="rgb(24,20,33)" stroke-width="1" opacity="1" d="M 61.5 182 L 62 194.5 L 59 193.5 Q 61.1 199.3 56.5 198 L 57 196.5 L 61.5 182 Z " /><path fill="rgb(24,20,33)" stroke="rgb(24,20,33)" stroke-width="1" opacity="1" d="M 163.5 185 L 168 191 L 174 195.5 L 172 196.5 L 172.5 198 L 163 186.5 L 163.5 185 Z " /><path fill="rgb(24,20,33)" stroke="rgb(24,20,33)" stroke-width="1" opacity="1" d="M 83.5 186 L 86 187.5 L 84.5 191 L 81 190 L 83.5 186 Z " /><path fill="rgb(24,20,33)" stroke="rgb(24,20,33)" stroke-width="1" opacity="1" d="M 173.5 187 L 174 189.5 L 173 189.5 L 173.5 187 Z " /><path fill="rgb(45,35,44)" stroke="rgb(45,35,44)" stroke-width="1" opacity="1" d="M 97.5 24 L 100 24.5 L 97.5 25 L 97.5 24 Z " /><path fill="rgb(45,35,44)" stroke="rgb(45,35,44)" stroke-width="1" opacity="1" d="M 82.5 25 L 85 26.5 L 82 28.5 L 82 26.5 L 82.5 25 Z " /><path fill="rgb(45,35,44)" stroke="rgb(45,35,44)" stroke-width="1" opacity="1" d="M 95.5 25 L 96 27 L 99 28.5 L 96 29.5 L 96.5 31 L 93 30.5 L 96 29 Q 97.1 26.3 94.5 27 L 90.5 28 L 90.5 27 Q 94.8 27.8 95.5 25 Z " /><path fill="rgb(45,35,44)" stroke="rgb(45,35,44)" stroke-width="1" opacity="1" d="M 80.5 26 L 81 27.5 L 78 29.5 L 80.5 26 Z " /><path fill="rgb(45,35,44)" stroke="rgb(45,35,44)" stroke-width="1" opacity="1" d="M 87.5 31 L 89 31.5 L 84.5 35 Q 81.5 33.5 84.5 32 L 87.5 31 Z " /><path fill="rgb(45,35,44)" stroke="rgb(45,35,44)" stroke-width="1" opacity="1" d="M 124.5 44 L 126 49 Q 121.9 50.2 124.5 44 Z " /><path fill="rgb(45,35,44)" stroke="rgb(45,35,44)" stroke-width="1" opacity="1" d="M 112.5 50 L 113.5 52 L 112.5 50 Z " /><path fill="rgb(45,35,44)" stroke="rgb(45,35,44)" stroke-width="1" opacity="1" d="M 121.5 52 L 122.5 54 L 121.5 52 Z " /><path fill="rgb(45,35,44)" stroke="rgb(45,35,44)" stroke-width="1" opacity="1" d="M 81.5 54 L 82.5 56 L 81.5 54 Z " /><path fill="rgb(45,35,44)" stroke="rgb(45,35,44)" stroke-width="1" opacity="1" d="M 127.5 91 L 134.5 99 Q 142.3 105.2 153.5 108 L 167 117.5 L 165.5 117 L 155 114 Q 156.1 111.3 153.5 112 Q 151.6 108.4 145.5 109 L 138 104 Q 139 101 136 102 L 135.5 104 L 135 100 L 129 95.5 Q 129.7 92.9 127 94 L 127.5 91 Z " /><path fill="rgb(45,35,44)" stroke="rgb(45,35,44)" stroke-width="1" opacity="1" d="M 89.5 101 Q 91.8 100.3 91 102.5 L 89 102.5 L 87.5 107 L 87 104.5 L 89.5 101 Z " /><path fill="rgb(45,35,44)" stroke="rgb(45,35,44)" stroke-width="1" opacity="1" d="M 51.5 102 L 51 103.5 L 51.5 105 L 53 104.5 L 53 106.5 L 51.5 109 L 49 110.5 Q 49.8 112.8 47.5 112 L 48 110.5 L 47.5 108 L 44.5 112 L 45 110.5 L 51.5 102 Z " /><path fill="rgb(45,35,44)" stroke="rgb(45,35,44)" stroke-width="1" opacity="1" d="M 73.5 104 L 76 104.5 L 69 107.5 L 70 109.5 L 69 109.5 L 68 107.5 L 69 105 L 73.5 104 Z " /><path fill="rgb(45,35,44)" stroke="rgb(45,35,44)" stroke-width="1" opacity="1" d="M 94 106 L 98.5 107 L 100 106.5 L 99 108.5 L 104 111.5 L 98.5 115 L 97 112 L 95 112.5 L 95.5 114 Q 91.8 113 93 116 L 96.5 115 L 96.5 116 L 92 117 L 91.5 115 Q 87.8 117.2 93 119.5 L 90.5 123 Q 87.8 121.8 89 116.5 L 90 113 Q 93.8 114 95 111.5 L 94 106 Z M 97 108 L 95 111 L 101 113 L 101 112 Q 100 109 99 111 L 99 110 L 97 108 Z M 91 118 L 90 122 L 92 121 L 91 118 Z " /><path fill="rgb(45,35,44)" stroke="rgb(45,35,44)" stroke-width="1" opacity="1" d="M 92.5 108 L 93 111 L 90.5 112 L 89.5 110 Q 90.8 112.3 92 109.5 L 92.5 108 Z " /><path fill="rgb(45,35,44)" stroke="rgb(45,35,44)" stroke-width="1" opacity="1" d="M 102 108 L 104 108.5 L 102 109.5 L 102 108 Z " /><path fill="rgb(45,35,44)" stroke="rgb(45,35,44)" stroke-width="1" opacity="1" d="M 43.5 113 L 42.5 115 L 43.5 113 Z " /><path fill="rgb(45,35,44)" stroke="rgb(45,35,44)" stroke-width="1" opacity="1" d="M 52.5 115 L 51.5 117 L 52.5 115 Z " /><path fill="rgb(45,35,44)" stroke="rgb(45,35,44)" stroke-width="1" opacity="1" d="M 96.5 117 Q 98.8 116.3 98 118.5 L 96 121.5 L 96.5 123 Q 93.9 122.2 95 125.5 L 94 127.5 L 96.5 129 L 98 128.5 L 97 130.5 L 98 134.5 L 98 136.5 L 95 139.5 Q 95.8 141.8 93.5 141 L 92 140.5 L 93 142.5 L 91 143 L 92.5 139 Q 93.8 141.3 95 138.5 L 94.5 137 L 92.5 138 L 90 137 L 89 131.5 L 92.5 132 L 95 129.5 L 90 125.5 L 92 128.5 L 90 129.5 L 90.5 128 L 89 128 L 89 124 L 92 124 Q 91 127 94 126 L 95 121.5 L 94.5 120 L 96 120.5 L 95 118.5 L 96.5 117 Z M 95 131 L 92 137 L 94 137 Q 93 134 96 135 L 97 133 L 95 131 Z " /><path fill="rgb(45,35,44)" stroke="rgb(45,35,44)" stroke-width="1" opacity="1" d="M 40.5 118 L 40 119.5 L 37.5 123 L 38 121.5 L 40.5 118 Z " /><path fill="rgb(45,35,44)" stroke="rgb(45,35,44)" stroke-width="1" opacity="1" d="M 47 119 Q 49.7 117.9 49 120.5 L 47.5 123 L 46 122.5 L 41 130.5 L 41.5 132 Q 38.9 132.8 40 129.5 L 47 119 Z " /><path fill="rgb(45,35,44)" stroke="rgb(45,35,44)" stroke-width="1" opacity="1" d="M 167.5 119 L 168 122.5 L 165 120.5 L 167.5 119 Z " /><path fill="rgb(45,35,44)" stroke="rgb(45,35,44)" stroke-width="1" opacity="1" d="M 96.5 124 L 98 126.5 L 96 125.5 L 96.5 124 Z " /><path fill="rgb(45,35,44)" stroke="rgb(45,35,44)" stroke-width="1" opacity="1" d="M 167 128 L 170 129.5 L 168.5 133 L 167 128 Z " /><path fill="rgb(45,35,44)" stroke="rgb(45,35,44)" stroke-width="1" opacity="1" d="M 34.5 130 L 35 131.5 L 34 135 Q 31.3 133.9 32 136.5 L 30.5 139 L 28 138.5 L 34.5 130 Z " /><path fill="rgb(45,35,44)" stroke="rgb(45,35,44)" stroke-width="1" opacity="1" d="M 170.5 138 L 171 140.5 L 170 140.5 L 170.5 138 Z " /><path fill="rgb(45,35,44)" stroke="rgb(45,35,44)" stroke-width="1" opacity="1" d="M 171.5 143 L 172 153.5 L 171 153.5 L 169 145.5 L 171 145.5 L 171.5 143 Z " /><path fill="rgb(45,35,44)" stroke="rgb(45,35,44)" stroke-width="1" opacity="1" d="M 25.5 147 L 26 150.5 L 24.5 155 L 24 150.5 L 25.5 147 Z " /><path fill="rgb(45,35,44)" stroke="rgb(45,35,44)" stroke-width="1" opacity="1" d="M 173.5 158 L 174 162.5 L 173 162.5 L 172 159.5 L 173.5 158 Z " /><path fill="rgb(45,35,44)" stroke="rgb(45,35,44)" stroke-width="1" opacity="1" d="M 174.5 171 L 175 175.5 L 174 175.5 L 174.5 171 Z " /><path fill="rgb(45,35,44)" stroke="rgb(45,35,44)" stroke-width="1" opacity="1" d="M 60.5 177 L 61 184.5 L 59.5 187 L 59 183.5 L 60.5 177 Z " /><path fill="rgb(45,35,44)" stroke="rgb(45,35,44)" stroke-width="1" opacity="1" d="M 173.5 182 L 174 186.5 L 173 186.5 L 173.5 182 Z " /><path fill="rgb(45,35,44)" stroke="rgb(45,35,44)" stroke-width="1" opacity="1" d="M 58.5 188 L 59 191.5 L 58 191.5 L 58.5 188 Z " /><path fill="rgb(45,35,44)" stroke="rgb(45,35,44)" stroke-width="1" opacity="1" d="M 171.5 194 L 172 196 Q 174.7 194.9 174 197.5 L 171 195.5 L 171.5 194 Z " /><path fill="rgb(5,3,9)" stroke="rgb(5,3,9)" stroke-width="1" opacity="1" d="M 85.5 27 L 87.5 30 L 85.5 27 Z " /><path fill="rgb(5,3,9)" stroke="rgb(5,3,9)" stroke-width="1" opacity="1" d="M 83.5 29 L 84.5 31 L 82.5 32 L 82 30.5 L 83.5 29 Z " /><path fill="rgb(5,3,9)" stroke="rgb(5,3,9)" stroke-width="1" opacity="1" d="M 95.5 74 L 94.5 76 L 95.5 74 Z " /><path fill="rgb(5,3,9)" stroke="rgb(5,3,9)" stroke-width="1" opacity="1" d="M 84.5 76 L 88 76.5 L 85 78.5 L 84.5 76 Z " /><path fill="rgb(5,3,9)" stroke="rgb(5,3,9)" stroke-width="1" opacity="1" d="M 83.5 104 L 85 104.5 L 80 108.5 L 82 111.5 L 74.5 112 L 74.5 111 L 83.5 104 Z " /><path fill="rgb(5,3,9)" stroke="rgb(5,3,9)" stroke-width="1" opacity="1" d="M 89.5 104 L 90 108.5 L 89 108.5 L 89.5 104 Z " /><path fill="rgb(5,3,9)" stroke="rgb(5,3,9)" stroke-width="1" opacity="1" d="M 134.5 108 L 137 108.5 L 130.5 111 L 131.5 109 L 134.5 108 Z " /><path fill="rgb(5,3,9)" stroke="rgb(5,3,9)" stroke-width="1" opacity="1" d="M 68.5 111 L 66.5 114 L 62.5 116 L 62.5 115 L 68.5 111 Z " /><path fill="rgb(5,3,9)" stroke="rgb(5,3,9)" stroke-width="1" opacity="1" d="M 89.5 112 L 90 113.5 L 89 116.5 L 88 120.5 L 88 122.5 Q 86.6 131.4 89 136.5 L 88 136.5 L 87.5 134 L 87 141.5 L 89 145.5 L 87 149.5 L 89.5 148 L 93.5 150 L 96 149 L 96.5 147 L 97 149.5 L 92.5 159 L 92 156.5 L 94 153.5 L 91.5 153 L 90 153.5 L 91 150 L 87 151.5 Q 85.9 154.8 88.5 154 L 88.5 155 Q 86.3 154.3 87 156.5 L 87 158.5 Q 86 163 88.5 164 L 92 161.5 L 85.5 175 L 85 169.5 L 85 167.5 L 85 131.5 L 88 114.5 L 89.5 112 Z " /><path fill="rgb(5,3,9)" stroke="rgb(5,3,9)" stroke-width="1" opacity="1" d="M 56.5 113 L 60 115.5 L 58.5 116 Q 56.7 112.3 55 115.5 L 45 131.5 L 45 134.5 L 40.5 140 L 41 138.5 L 43 133.5 L 42.5 132 L 44 132.5 L 43 129.5 L 47 127.5 L 48 124.5 L 47.5 123 L 49 123.5 L 56.5 113 Z " /><path fill="rgb(5,3,9)" stroke="rgb(5,3,9)" stroke-width="1" opacity="1" d="M 68.5 114 L 71 119.5 L 71 121.5 L 73 136.5 L 76.5 148 L 78 144.5 L 77 141.5 L 78.5 142 Q 81.8 140.9 81 143.5 L 81 145.5 L 82 151.5 L 81 153.5 L 81 155.5 Q 84 157.8 83 163 Q 79.3 161.7 81 167.5 L 85 178.5 L 81 185.5 L 93 174.5 L 108 156.5 L 135.5 116 L 136 117.5 L 116 147.5 L 107 158.5 L 103 166.5 L 96 173.5 Q 98.3 174.8 95.5 176 Q 93.3 175.3 94 177.5 L 91 179 Q 92.1 181.7 89.5 181 L 89.5 183 L 88 183.5 L 91 184 L 92 188 L 88 188 L 88 189.5 L 88.5 191 L 83.5 193 L 81 192 Q 82 189 79 190 L 78 198 Q 72.4 200.2 74 194.5 L 75 192 L 72 191.5 L 73 188.5 L 72 186 L 69.5 187 Q 66.3 186.3 67 181.5 L 68 178.5 L 67 173 L 64 171.5 L 60 160.5 L 60.5 159 L 48.5 164 L 46.5 163 L 45.5 166 L 40.5 167 L 42.5 163 L 34.5 165 L 34.5 164 L 45 158.5 L 42 158 L 43 154.5 L 41.5 154 L 40 154.5 L 54 143.5 L 52.5 141 L 50.5 142 Q 49 139.5 47.5 143 L 44.5 144 L 42.5 144 L 40 143.5 L 54 134.5 L 56 131.5 L 59 130 L 58.5 128 L 51.5 131 L 49.5 131 L 48 130.5 L 50 130 L 51.5 127 L 60.5 120 L 63.5 120 L 67 118 L 68.5 114 Z M 63 150 L 64 154 Q 66 160 63 162 L 65 162 L 65 167 L 68 172 Q 67 175 70 174 L 71 180 L 79 184 L 80 182 L 78 173 L 72 161 L 72 158 Q 71 155 70 157 L 68 157 L 68 153 L 65 153 Q 66 149 63 150 Z M 75 186 Q 74 189 77 188 Q 78 185 75 186 Z M 83 186 L 81 188 Q 80 191 84 192 L 86 191 L 86 186 L 83 186 Z " /><path fill="rgb(5,3,9)" stroke="rgb(5,3,9)" stroke-width="1" opacity="1" d="M 114.5 115 L 113.5 117 L 114.5 115 Z " /><path fill="rgb(5,3,9)" stroke="rgb(5,3,9)" stroke-width="1" opacity="1" d="M 111.5 119 L 110.5 121 L 111.5 119 Z " /><path fill="rgb(5,3,9)" stroke="rgb(5,3,9)" stroke-width="1" opacity="1" d="M 109.5 122 L 108 124.5 L 104.5 129 L 107 125.5 L 109.5 122 Z " /><path fill="rgb(5,3,9)" stroke="rgb(5,3,9)" stroke-width="1" opacity="1" d="M 103.5 130 L 102.5 132 L 103.5 130 Z " /><path fill="rgb(5,3,9)" stroke="rgb(5,3,9)" stroke-width="1" opacity="1" d="M 101.5 133 L 98.5 137 L 101.5 133 Z " /><path fill="rgb(5,3,9)" stroke="rgb(5,3,9)" stroke-width="1" opacity="1" d="M 145.5 139 L 146 145.5 L 145 150.5 L 146 151.5 L 147 166.5 L 149 172.5 L 149 186.5 L 156 197.5 Q 152 200.2 145 199 L 144.5 190 L 143 191.5 L 142 198 L 134.5 198 L 134 196.5 L 133 194.5 Q 136 193.5 135 188.5 L 135 184.5 L 138 173.5 L 137 170.5 Q 139.8 168.5 139 164 L 141 163.5 L 140 159.5 L 142 156.5 L 141 154.5 L 144 147.5 L 145.5 139 Z " /><path fill="rgb(5,3,9)" stroke="rgb(5,3,9)" stroke-width="1" opacity="1" d="M 153 181 L 157 183.5 L 156.5 186 L 156 183 Q 151.9 184.3 153 181 Z " /><path fill="rgb(5,3,9)" stroke="rgb(5,3,9)" stroke-width="1" opacity="1" d="M 163.5 194 L 164.5 196 Q 161.7 196.7 163.5 194 Z " /><path fill="rgb(10,8,17)" stroke="rgb(10,8,17)" stroke-width="1" opacity="1" d="M 84.5 27 L 86 28.5 L 85.5 31 L 84 29.5 L 84.5 27 Z " /><path fill="rgb(10,8,17)" stroke="rgb(10,8,17)" stroke-width="1" opacity="1" d="M 121.5 102 L 120.5 104 L 121.5 102 Z " /><path fill="rgb(10,8,17)" stroke="rgb(10,8,17)" stroke-width="1" opacity="1" d="M 81.5 105 Q 84.5 106.5 81.5 108 L 81.5 105 Z " /><path fill="rgb(10,8,17)" stroke="rgb(10,8,17)" stroke-width="1" opacity="1" d="M 79.5 106 L 75.5 111 L 74 111.5 L 83 113.5 L 76 118.5 L 74.5 121 L 75 117.5 Q 73.5 113.1 76.5 114 L 76.5 113 Q 72.3 111.7 74 116.5 L 71.5 124 L 70 120.5 L 72 120 Q 70.4 110.8 76.5 108 L 79.5 106 Z " /><path fill="rgb(10,8,17)" stroke="rgb(10,8,17)" stroke-width="1" opacity="1" d="M 80.5 109 L 81.5 111 L 80.5 109 Z " /><path fill="rgb(10,8,17)" stroke="rgb(10,8,17)" stroke-width="1" opacity="1" d="M 88.5 109 L 89 111.5 L 88 111.5 L 88.5 109 Z " /><path fill="rgb(10,8,17)" stroke="rgb(10,8,17)" stroke-width="1" opacity="1" d="M 70.5 110 L 71 118.5 L 70 118.5 Q 70.8 114.8 68.5 114 L 67 118 L 63.5 120 L 60.5 120 L 50 128.5 L 51.5 131 L 58.5 128 L 59 130 L 56 131.5 L 54 134.5 L 45.5 140 L 42.5 139 L 42.5 140 L 44 140.5 L 40 143.5 L 42.5 144 L 45.5 143 L 49.5 141 L 51.5 142 Q 52.8 139.8 54 142.5 L 48.5 149 L 46.5 148 L 45.5 151 L 41 153.5 L 43 154.5 L 42 158 L 45 158.5 L 39.5 162 L 38 161.5 L 37.5 163 L 33.5 162 L 31.5 163 L 28 158.5 L 32 158 L 31 155.5 L 36.5 143 Q 38.8 143.8 38 141.5 L 40.5 138 Q 41.8 140.3 43 137.5 Q 45.6 136.1 45 131.5 L 44 131.5 L 43.5 133 L 43 131.5 L 50.5 120 L 49 122.5 L 47 127.5 L 49 126.5 L 53 118.5 L 52.5 117 Q 53.7 119.3 55 116.5 L 56.5 114 L 60.5 116 L 62.5 116 L 64 115.5 L 63.5 114 L 65.5 114 L 67 113.5 L 66.5 112 L 67.5 113 L 70.5 110 Z M 57 115 Q 54 120 58 119 L 57 115 Z M 47 128 L 45 131 L 47 130 L 47 128 Z M 35 153 L 36 155 L 38 154 L 35 153 Z " /><path fill="rgb(10,8,17)" stroke="rgb(10,8,17)" stroke-width="1" opacity="1" d="M 106.5 110 L 105.5 112 L 106.5 110 Z " /><path fill="rgb(10,8,17)" stroke="rgb(10,8,17)" stroke-width="1" opacity="1" d="M 88.5 113 L 89.5 115 L 88.5 113 Z " /><path fill="rgb(10,8,17)" stroke="rgb(10,8,17)" stroke-width="1" opacity="1" d="M 143.5 123 L 147 127.5 L 144 128.5 L 148.5 129 L 151.5 125 L 152 126.5 L 149 134 Q 153.5 132.3 152 137.5 L 148 140.5 Q 149.5 136.1 146.5 137 L 147 138.5 L 146.5 141 L 145.5 139 L 141 155.5 L 141 157.5 L 140 162.5 L 140.5 164 Q 137.5 163.1 139 167.5 L 137 172.5 L 138 174.5 L 135 184.5 L 135 188.5 Q 135.8 193.8 133 195.5 L 134 198 L 124.5 197 L 123.5 198 L 114.5 198 L 112.5 198 L 102.5 198 L 102 196.5 L 101 196.5 L 100.5 198 L 80 198 L 81 193 Q 77.7 194.1 79 190 L 81 190 Q 79.9 192.7 82.5 192 L 84.5 192 L 86 191.5 L 85.5 190 L 88.5 191 L 88 189.5 L 88 188 L 92 188 L 92 186.5 L 91 184 L 88 183.5 L 90 182.5 L 89.5 181 L 92.5 179 L 94 176 L 97 174.5 L 96 173.5 L 103 166.5 L 107 158.5 Q 104.8 157.3 107.5 156 Q 108.8 158.3 110 155.5 L 109.5 154 L 108 154.5 L 112 152.5 L 111 150.5 L 116 147.5 L 117 144.5 L 116.5 143 Q 118.2 145.8 120 141.5 L 119 139.5 L 122 139.5 L 121.5 141 Q 127 142.5 128.5 140 L 128.5 142 L 136.5 142 L 138 143.5 L 135.5 144 L 134.5 143 L 119 143 L 118 148 L 115 149.5 L 111 154.5 L 113.5 156 L 116 155 L 117 159.5 Q 115.6 162.3 111 161 L 111 166 L 109.5 166 L 110.5 168 L 116 167 Q 114.3 162.5 119.5 164 L 121 164.5 L 119.5 153 L 117.5 156 L 117 154.5 L 118.5 151 Q 123.6 153.4 125 159.5 L 122 163.5 L 124 164 L 124.5 167 L 125.5 165 L 126.5 167 L 125 167.5 L 127 168.5 L 126 172 L 129 172 Q 127.8 169 131.5 170 L 135.5 160 Q 138.1 160.8 137 157.5 L 139 153 L 137 153 Q 138.1 150.3 135.5 151 L 134.5 149 L 137.5 151 L 140 143.5 L 139 141 L 142.5 143 L 144 138.5 L 143 135.5 L 144.5 136 Q 147.1 136.7 146 134 L 143 132.5 L 143.5 123 Z M 141 146 L 139 149 L 141 150 L 141 146 Z M 123 157 L 121 161 L 123 161 L 123 157 Z M 125 171 L 124 176 L 125 176 L 125 171 Z M 123 173 L 122 175 L 120 176 L 120 177 L 123 176 L 123 173 Z M 123 177 L 119 179 L 123 180 L 123 177 Z M 128 183 L 126 187 Q 128 190 129 187 L 128 183 Z M 131 183 L 129 185 Q 128 187 131 186 L 131 183 Z M 125 184 L 124 189 L 126 189 L 125 184 Z M 124 191 Q 123 194 126 193 Q 127 190 124 191 Z " /><path fill="rgb(10,8,17)" stroke="rgb(10,8,17)" stroke-width="1" opacity="1" d="M 72.5 125 L 73 127 L 78.5 130 L 80.5 130 L 82.5 131 L 84 130.5 L 83 132.5 L 84 133.5 L 84 142.5 L 84 144.5 L 85 146.5 L 85 167.5 L 86 168.5 Q 83.8 169.7 85 174.5 L 87 173.5 Q 86.3 171.3 88.5 172 L 89 169.5 L 91 162.5 L 88.5 164 L 87 162.5 L 88 157.5 L 87 155 L 93.5 153 L 93 154.5 L 92 158.5 L 93 158.5 L 97 147.5 L 96 147.5 Q 96.8 149.8 94.5 149 L 92.5 150 L 89.5 148 L 87 149.5 L 89 144.5 Q 86.4 143.1 87 138.5 L 89.5 135 L 90 137.5 L 88 140.5 L 90 145 L 93 145 L 93 142 L 97 142 L 97 140.5 Q 100.1 138.8 98.5 137 L 103.5 133 L 103 134.5 L 96 153.5 L 96 158 Q 93.3 156.9 94 159.5 L 92 163.5 L 95 165 L 95.5 167 L 97 163.5 L 96.5 162 Q 99.8 160.9 99 163.5 Q 96.3 164.6 97 168 Q 92.7 168.7 91.5 165 L 90 169.5 L 93 168.5 L 95 171.5 Q 94.3 173.8 90.5 173 L 87 176.5 L 87.5 179 L 93 174.5 L 81 185.5 L 84.5 179 L 85.5 181 Q 88.8 179.3 85 177.5 L 80 162.5 L 81.5 163 Q 84.9 163.9 83 158.5 L 81 155.5 L 81 153.5 L 82 147.5 L 80 144.5 L 81 142 L 77.5 141 L 77 143.5 L 77 145.5 L 78 148.5 L 76 147.5 Q 76 140.5 73 136.5 L 73 131.5 L 74 128.5 L 73 128.5 L 72.5 130 L 72.5 125 Z " /><path fill="rgb(10,8,17)" stroke="rgb(10,8,17)" stroke-width="1" opacity="1" d="M 85.5 127 L 86 130.5 L 85 130.5 L 85.5 127 Z " /><path fill="rgb(10,8,17)" stroke="rgb(10,8,17)" stroke-width="1" opacity="1" d="M 38.5 130 L 40.5 133 L 43 134.5 L 41.5 137 L 41 135.5 L 41.5 134 L 38 131.5 L 38.5 130 Z " /><path fill="rgb(10,8,17)" stroke="rgb(10,8,17)" stroke-width="1" opacity="1" d="M 151.5 130 L 157 131.5 Q 155.6 134.3 151 133 L 151.5 130 Z " /><path fill="rgb(10,8,17)" stroke="rgb(10,8,17)" stroke-width="1" opacity="1" d="M 122.5 135 L 122.5 138 Q 119.5 136.5 122.5 135 Z " /><path fill="rgb(10,8,17)" stroke="rgb(10,8,17)" stroke-width="1" opacity="1" d="M 148.5 142 L 153 144 L 152 150 L 157 150 L 157 152 Q 154 150.8 155 154.5 L 154 157 L 157 157.5 L 155 163 L 157 163 L 157 167 Q 159.7 165.9 159 168.5 L 164 172.5 L 162 176 L 159 174.5 L 158.5 173 L 157 173.5 L 158 170 L 154 167.5 L 152.5 157 L 148.5 158 L 147 157.5 L 148 159.5 L 146 160.5 L 145 146.5 L 146.5 143 L 147.5 146 L 148.5 142 Z M 148 150 L 147 156 L 152 157 Q 153 154 150 155 L 148 150 Z " /><path fill="rgb(10,8,17)" stroke="rgb(10,8,17)" stroke-width="1" opacity="1" d="M 63 150 Q 66.3 148.9 65 153 L 68 153 L 68 157 L 69.5 157 Q 70.7 154.8 72 157.5 L 72 160.5 L 78 172.5 L 80 181.5 L 78.5 184 L 71 179.5 L 70 174 Q 67 175.3 68 171.5 L 65 166.5 L 65 162 L 63 161.5 Q 65.8 159.8 64 153.5 L 63 150 Z M 71 164 L 69 166 Q 68 168 71 167 L 70 169 L 72 169 L 71 164 Z M 73 169 L 72 173 L 73 173 L 73 169 Z " /><path fill="rgb(10,8,17)" stroke="rgb(10,8,17)" stroke-width="1" opacity="1" d="M 98.5 160 L 102 160.5 L 98.5 161 L 98.5 160 Z " /><path fill="rgb(10,8,17)" stroke="rgb(10,8,17)" stroke-width="1" opacity="1" d="M 151.5 160 L 152 162.5 L 151 162.5 L 151.5 160 Z " /><path fill="rgb(10,8,17)" stroke="rgb(10,8,17)" stroke-width="1" opacity="1" d="M 44.5 161 L 40 166.5 L 40.5 168 L 32 166 Q 30.9 163.3 33.5 164 L 37.5 165 L 39.5 164 L 41 164.5 Q 40.3 162.3 42.5 163 L 44.5 161 Z " /><path fill="rgb(10,8,17)" stroke="rgb(10,8,17)" stroke-width="1" opacity="1" d="M 103.5 161 L 101.5 164 L 103.5 161 Z " /><path fill="rgb(10,8,17)" stroke="rgb(10,8,17)" stroke-width="1" opacity="1" d="M 48.5 162 Q 51.5 163.5 48.5 165 L 46.5 166 Q 43.5 164.5 46.5 163 L 48.5 162 Z " /><path fill="rgb(10,8,17)" stroke="rgb(10,8,17)" stroke-width="1" opacity="1" d="M 60.5 162 L 65.5 173 Q 68.9 172.1 67 177.5 L 68 180.5 L 67 184.5 Q 68.8 188.7 70.5 186 Q 72.8 185.3 72 187.5 L 73 190.5 L 72.5 192 L 75.5 191 L 75 192.5 L 74 198 L 70.5 197 L 65 198 L 63 193.5 L 62 168.5 L 60.5 162 Z " /><path fill="rgb(10,8,17)" stroke="rgb(10,8,17)" stroke-width="1" opacity="1" d="M 147 162 L 149 162.5 L 149 164.5 L 153 177.5 L 167 192.5 L 170 198 Q 161.8 199.5 159 194.5 L 157 189 L 152.5 186 L 151.5 191 L 149 186.5 L 149 172.5 L 147 162 Z M 153 181 L 153 183 L 156 183 L 153 181 Z M 157 183 L 156 186 L 157 186 L 157 183 Z M 164 194 Q 162 197 165 196 L 164 194 Z " /><path fill="rgb(10,8,17)" stroke="rgb(10,8,17)" stroke-width="1" opacity="1" d="M 99.5 166 L 98.5 168 L 99.5 166 Z " /><path fill="rgb(10,8,17)" stroke="rgb(10,8,17)" stroke-width="1" opacity="1" d="M 75 186 Q 78 185 77 188 Q 74 189 75 186 Z " /><path fill="rgb(10,8,17)" stroke="rgb(10,8,17)" stroke-width="1" opacity="1" d="M 144.5 190 L 145 195.5 L 144 195.5 L 143 191.5 L 144.5 190 Z " /><path fill="rgb(10,8,17)" stroke="rgb(10,8,17)" stroke-width="1" opacity="1" d="M 152.5 192 L 157 197.5 L 153 194.5 L 152.5 192 Z " /><path fill="rgb(13,11,21)" stroke="rgb(13,11,21)" stroke-width="1" opacity="1" d="M 96.5 25 L 97 26.5 L 95 27.5 L 96.5 25 Z " /><path fill="rgb(13,11,21)" stroke="rgb(13,11,21)" stroke-width="1" opacity="1" d="M 88.5 29 L 90.5 30 L 92 29.5 Q 90.8 32.3 89.5 30 L 86.5 31 L 86.5 30 L 88.5 29 Z " /><path fill="rgb(13,11,21)" stroke="rgb(13,11,21)" stroke-width="1" opacity="1" d="M 85.5 104 L 84.5 106 L 85.5 104 Z " /><path fill="rgb(13,11,21)" stroke="rgb(13,11,21)" stroke-width="1" opacity="1" d="M 78.5 106 L 77.5 108 L 73 111.5 Q 73.7 114.1 71 113 L 71 108 L 72.5 108 L 74.5 108 L 78.5 106 Z " /><path fill="rgb(13,11,21)" stroke="rgb(13,11,21)" stroke-width="1" opacity="1" d="M 82.5 111 L 85 112.5 Q 83.8 115.2 82.5 113 L 79 112.5 L 82.5 111 Z " /><path fill="rgb(13,11,21)" stroke="rgb(13,11,21)" stroke-width="1" opacity="1" d="M 75.5 113 L 77 113.5 L 75 114 L 74 118.5 L 76 119.5 L 79.5 115 L 81.5 114 L 81 115.5 L 79.5 118 Q 77.3 117.3 78 119.5 L 74 124.5 L 76 125 L 77.5 128 L 79.5 127 Q 81 129.5 82.5 126 L 86 125 L 85 127.5 L 85 145.5 L 83.5 147 L 84 145.5 L 83 143.5 L 84 142.5 L 84 133.5 L 82.5 131 L 81.5 133 L 81 131.5 L 81.5 130 L 79.5 129 L 77.5 129 L 73 127 L 72 121.5 L 75.5 113 Z " /><path fill="rgb(13,11,21)" stroke="rgb(13,11,21)" stroke-width="1" opacity="1" d="M 130.5 113 L 133 114.5 L 130 115 L 130.5 113 Z " /><path fill="rgb(13,11,21)" stroke="rgb(13,11,21)" stroke-width="1" opacity="1" d="M 71.5 114 L 72 119.5 L 71 119.5 L 71.5 114 Z " /><path fill="rgb(13,11,21)" stroke="rgb(13,11,21)" stroke-width="1" opacity="1" d="M 56.5 115 L 58 119 Q 54.2 120.2 56.5 115 Z " /><path fill="rgb(13,11,21)" stroke="rgb(13,11,21)" stroke-width="1" opacity="1" d="M 155.5 119 L 155 120.5 L 153 125 Q 157.7 124 159 127.5 L 160 134.5 L 159 135.5 L 159 145 Q 163.9 144.9 166 148.5 L 164 149.5 Q 165.1 146.2 162.5 147 L 160 148 L 166 157.5 L 165 159.5 L 165 161.5 L 168 164.5 Q 169.8 170.6 162.5 168 L 163.5 170 Q 165.8 169.3 165 171.5 L 170 181.5 L 170 183.5 L 168.5 189 L 162.5 182 L 160 180.5 L 156.5 176 Q 153.9 175.2 155 178.5 L 167 191.5 L 155 180.5 L 148 163.5 L 148.5 162 Q 146.3 162.8 147 160.5 L 147 158.5 L 147.5 157 L 151.5 158 L 151.5 157 L 147 156 L 147.5 150 L 149.5 155 Q 152.8 153.9 152 156.5 L 154 167.5 L 156.5 170 Q 159.1 169.2 158 172.5 L 160.5 176 Q 162.8 176.8 162 174.5 Q 166.3 172.3 161.5 170 L 159 168.5 Q 159.7 165.9 157 167 L 157 163 Q 154 164.3 155 160.5 L 157 157.5 L 154 157 L 155 152 Q 158 153 157 150 L 152 150 L 152 146.5 L 153 144 L 148.5 142 L 147.5 146 L 146 141.5 L 148.5 135 L 149 136.5 L 148 140.5 L 152 137.5 L 152 134 Q 147.9 135.7 149 131.5 L 153 125.5 L 151.5 125 L 148.5 129 L 144 128.5 L 147 127.5 L 143.5 123 L 143 132.5 L 146 134 Q 147.1 136.7 144.5 136 L 143 135.5 L 144 138.5 L 141.5 144 L 140.5 141 Q 138.3 140.3 139 142.5 L 140.5 146 L 142 145.5 L 140.5 150 Q 137.8 148.8 140 147.5 L 139.5 146 L 137 153 Q 139.7 151.9 139 154.5 L 137 160 L 134 161.5 L 133 168.5 L 131.5 170 Q 127.8 169 129 172 L 126 172 L 127 168.5 L 125.5 168 L 124 168.5 L 124 166.5 Q 125.1 163.2 122.5 164 L 123 162.5 Q 123.7 159.9 121 161 L 120.5 165 L 116 164 Q 117.7 168.1 113.5 167 L 110.5 168 L 109.5 166 L 111 166 L 111 161 L 115.5 161 L 117 158.5 L 116 155 L 113.5 156 L 111 154.5 L 116.5 148 Q 118.8 148.8 118 146.5 L 119 143 L 134.5 143 L 137.5 145 L 138 143.5 L 136.5 142 L 121 140.5 L 126.5 132 L 127.5 133 L 132 128.5 L 132.5 127 L 135 128 Q 134 124.2 136.5 123 L 138.5 124 L 140 121.5 L 139.5 120 Q 144 119 145 121.5 Q 144.3 123.8 146.5 123 L 146.5 121 L 150.5 124 L 153 123 L 155.5 119 Z M 152 130 L 151 133 Q 156 134 157 132 L 152 130 Z M 137 135 L 138 137 Q 139 134 137 135 Z M 135 149 L 136 151 L 137 151 L 135 149 Z M 119 151 L 119 154 Q 122 153 119 151 Z M 121 153 L 121 161 L 123 157 L 123 161 L 125 160 L 121 153 Z M 152 160 L 151 163 L 152 163 L 152 160 Z M 126 165 Q 124 168 127 167 L 126 165 Z " /><path fill="rgb(13,11,21)" stroke="rgb(13,11,21)" stroke-width="1" opacity="1" d="M 106.5 127 L 107 128.5 L 105 133 L 103 133.5 L 104 135.5 L 103 135.5 L 102.5 134 L 99 136.5 L 104 130.5 L 103.5 129 L 105 129.5 L 106.5 127 Z " /><path fill="rgb(13,11,21)" stroke="rgb(13,11,21)" stroke-width="1" opacity="1" d="M 73.5 128 L 74 130.5 L 73 130.5 L 73.5 128 Z " /><path fill="rgb(13,11,21)" stroke="rgb(13,11,21)" stroke-width="1" opacity="1" d="M 38.5 129 L 38 130.5 L 40.5 134 L 42.5 133 L 41 135.5 L 38 143 L 35 144.5 L 32 154.5 L 32 156.5 L 33 158.5 L 31.5 158 L 28 158.5 L 31.5 163 L 36.5 162 L 36.5 163 L 32 164 Q 33.3 167 29.5 166 L 27 163.5 L 27 159.5 L 28 156.5 L 27 155.5 L 27 144.5 L 28 144.5 L 28 147 L 33 147 L 35 141.5 Q 32.5 140 34 134.5 L 36.5 130 L 38.5 129 Z " /><path fill="rgb(13,11,21)" stroke="rgb(13,11,21)" stroke-width="1" opacity="1" d="M 128.5 129 L 127.5 131 L 128.5 129 Z " /><path fill="rgb(13,11,21)" stroke="rgb(13,11,21)" stroke-width="1" opacity="1" d="M 87.5 135 L 88 137.5 L 87 137.5 L 87.5 135 Z " /><path fill="rgb(13,11,21)" stroke="rgb(13,11,21)" stroke-width="1" opacity="1" d="M 45.5 138 L 44.5 140 L 40.5 142 L 42.5 139 L 45.5 138 Z " /><path fill="rgb(13,11,21)" stroke="rgb(13,11,21)" stroke-width="1" opacity="1" d="M 96 138 L 99 138.5 L 97 141.5 Q 99.8 143.3 95.5 145 L 96.5 142 L 94 141.5 L 96 141 L 96 138 Z " /><path fill="rgb(13,11,21)" stroke="rgb(13,11,21)" stroke-width="1" opacity="1" d="M 106.5 139 L 106 140.5 L 106.5 142 L 108.5 142 L 113 143 Q 113.6 147.6 110 149.5 L 111 151.5 L 106 159 Q 103.3 157.9 104 160.5 L 98 169 L 96 169 Q 97.1 171.7 94.5 171 L 93 171.5 L 93 169.5 L 92.5 168 L 88 171.5 L 91.5 165 Q 92.8 168.8 97 168 L 99 162 L 96 162.5 L 96 164.5 L 95.5 167 L 95 165 L 92 163.5 L 94 158 Q 97.7 159.3 96 153.5 L 98 147 L 100.5 147 L 105 142.5 L 106.5 139 Z M 107 143 L 107 144 L 109 144 L 107 143 Z M 99 160 L 99 161 L 102 161 L 99 160 Z " /><path fill="rgb(13,11,21)" stroke="rgb(13,11,21)" stroke-width="1" opacity="1" d="M 31.5 142 L 32 144.5 L 31 144.5 L 31.5 142 Z " /><path fill="rgb(13,11,21)" stroke="rgb(13,11,21)" stroke-width="1" opacity="1" d="M 92.5 143 L 93 145 L 90 144.5 L 92.5 143 Z " /><path fill="rgb(13,11,21)" stroke="rgb(13,11,21)" stroke-width="1" opacity="1" d="M 168.5 150 L 169.5 152 L 168.5 150 Z " /><path fill="rgb(13,11,21)" stroke="rgb(13,11,21)" stroke-width="1" opacity="1" d="M 35 153 L 38 153.5 L 35.5 155 L 35 153 Z " /><path fill="rgb(13,11,21)" stroke="rgb(13,11,21)" stroke-width="1" opacity="1" d="M 40.5 164 L 39.5 166 L 40.5 164 Z " /><path fill="rgb(13,11,21)" stroke="rgb(13,11,21)" stroke-width="1" opacity="1" d="M 70.5 164 L 73 172.5 L 72 172.5 Q 73.5 168.1 70.5 169 L 70.5 167 Q 68.3 167.8 69 165.5 L 70.5 164 Z " /><path fill="rgb(13,11,21)" stroke="rgb(13,11,21)" stroke-width="1" opacity="1" d="M 124.5 171 L 125 175.5 L 124 175.5 L 124.5 171 Z " /><path fill="rgb(13,11,21)" stroke="rgb(13,11,21)" stroke-width="1" opacity="1" d="M 90.5 173 L 93 173.5 L 83 182.5 L 85.5 178 L 87 178.5 Q 86.5 173.5 90.5 173 Z " /><path fill="rgb(13,11,21)" stroke="rgb(13,11,21)" stroke-width="1" opacity="1" d="M 122.5 173 L 123 175.5 L 123 177.5 Q 124.1 180.8 121.5 180 L 119 178.5 L 122 177.5 L 118 175.5 L 118.5 174 L 119 176 L 122 174.5 L 122.5 173 Z " /><path fill="rgb(13,11,21)" stroke="rgb(13,11,21)" stroke-width="1" opacity="1" d="M 127.5 183 L 128.5 186 L 130.5 183 L 131 186 L 127.5 188 L 126 186.5 L 127.5 183 Z " /><path fill="rgb(13,11,21)" stroke="rgb(13,11,21)" stroke-width="1" opacity="1" d="M 124.5 184 L 126 188.5 L 124 189 L 124.5 184 Z " /><path fill="rgb(13,11,21)" stroke="rgb(13,11,21)" stroke-width="1" opacity="1" d="M 62.5 186 L 63 189.5 L 62 189.5 L 62.5 186 Z " /><path fill="rgb(13,11,21)" stroke="rgb(13,11,21)" stroke-width="1" opacity="1" d="M 82.5 186 L 81.5 188 L 82.5 186 Z " /><path fill="rgb(13,11,21)" stroke="rgb(13,11,21)" stroke-width="1" opacity="1" d="M 152.5 186 L 157 189 L 160.5 196 L 163 197.5 L 161.5 198 L 157.5 196 L 156 196.5 L 152 191.5 L 152.5 186 Z " /><path fill="rgb(13,11,21)" stroke="rgb(13,11,21)" stroke-width="1" opacity="1" d="M 124 191 Q 127 190 126 193 Q 123 194 124 191 Z " /><path fill="rgb(13,11,21)" stroke="rgb(13,11,21)" stroke-width="1" opacity="1" d="M 62.5 192 L 65 198 Q 62.3 199.1 63 196.5 L 62.5 192 Z " /><path fill="rgb(13,11,21)" stroke="rgb(13,11,21)" stroke-width="1" opacity="1" d="M 79 193 Q 82 191.8 81 195.5 L 80 198 Q 77.3 199.1 78 196.5 L 79 193 Z " /><path fill="rgb(13,11,21)" stroke="rgb(13,11,21)" stroke-width="1" opacity="1" d="M 167.5 193 L 169.5 196 L 167.5 193 Z " /></svg>