<svg viewBox="0 -0.5 11 10" fill="none" xmlns="http://www.w3.org/2000/svg">
<path d="M10.8541 8.3017C10.9006 8.33971 10.9374 8.38484 10.9626 8.4345C10.9877 8.48416 11.0007 8.53738 11.0007 8.59114C11.0007 8.64489 10.9877 8.69812 10.9626 8.74778C10.9374 8.79744 10.9006 8.84256 10.8541 8.88057C10.8077 8.91858 10.7525 8.94873 10.6918 8.9693C10.6311 8.98987 10.5661 9.00046 10.5004 9.00046C10.4347 9.00046 10.3696 8.98987 10.3089 8.9693C10.2482 8.94873 10.1931 8.91858 10.1466 8.88057L5.14664 4.78966C5.10015 4.75167 5.06328 4.70655 5.03811 4.65688C5.01295 4.60722 5 4.55399 5 4.50023C5 4.44647 5.01295 4.39323 5.03811 4.34357C5.06328 4.29391 5.10015 4.24879 5.14664 4.2108L10.1466 0.119887C10.2405 0.0431245 10.3677 -2.13994e-09 10.5004 0C10.6331 2.13994e-09 10.7603 0.0431245 10.8541 0.119887C10.948 0.196649 11.0007 0.30076 11.0007 0.409318C11.0007 0.517876 10.948 0.621988 10.8541 0.69875L6.20727 4.50023L10.8541 8.3017ZM1.20727 4.50023L5.85414 0.69875C5.94796 0.621988 6.00067 0.517876 6.00067 0.409318C6.00067 0.30076 5.94796 0.196649 5.85414 0.119887C5.76032 0.0431245 5.63308 8.0882e-10 5.50039 0C5.36771 -8.0882e-10 5.24046 0.0431245 5.14664 0.119887L0.146643 4.2108C0.100155 4.24879 0.0632756 4.29391 0.0381135 4.34357C0.0129513 4.39323 0 4.44647 0 4.50023C0 4.55399 0.0129513 4.60722 0.0381135 4.65688C0.0632756 4.70655 0.100155 4.75167 0.146643 4.78966L5.14664 8.88057C5.1931 8.91858 5.24825 8.94873 5.30895 8.9693C5.36964 8.98987 5.4347 9.00046 5.50039 9.00046C5.56609 9.00046 5.63115 8.98987 5.69184 8.9693C5.75254 8.94873 5.80769 8.91858 5.85414 8.88057C5.9006 8.84256 5.93745 8.79744 5.96259 8.74778C5.98773 8.69812 6.00067 8.64489 6.00067 8.59114C6.00067 8.53738 5.98773 8.48416 5.96259 8.4345C5.93745 8.38484 5.9006 8.33971 5.85414 8.3017L1.20727 4.50023Z" fill="#3E3737"/>
</svg>
