<svg viewBox="0.5 -0.5 11 10" fill="none" xmlns="http://www.w3.org/2000/svg">
<path d="M5.85403 4.78966L0.854028 8.88057C0.760208 8.95733 0.63296 9.00046 0.500278 9.00046C0.367596 9.00046 0.240348 8.95733 0.146528 8.88057C0.0527077 8.80381 2.61548e-09 8.69969 0 8.59114C-2.61548e-09 8.48258 0.0527077 8.37847 0.146528 8.3017L4.7934 4.50023L0.146528 0.69875C0.0527077 0.621988 0 0.517876 0 0.409318C0 0.30076 0.0527077 0.196649 0.146528 0.119887C0.240348 0.0431245 0.367596 0 0.500278 0C0.63296 0 0.760208 0.0431245 0.854028 0.119887L5.85403 4.2108C5.90052 4.24879 5.9374 4.29391 5.96256 4.34357C5.98772 4.39323 6.00067 4.44647 6.00067 4.50023C6.00067 4.55399 5.98772 4.60722 5.96256 4.65688C5.9374 4.70655 5.90052 4.75167 5.85403 4.78966ZM10.854 4.2108L5.85403 0.119887C5.76021 0.0431245 5.63296 0 5.50028 0C5.3676 0 5.24035 0.0431245 5.14653 0.119887C5.05271 0.196649 5 0.30076 5 0.409318C5 0.517876 5.05271 0.621988 5.14653 0.69875L9.7934 4.50023L5.14653 8.3017C5.05271 8.37847 5 8.48258 5 8.59114C5 8.69969 5.05271 8.80381 5.14653 8.88057C5.24035 8.95733 5.3676 9.00046 5.50028 9.00046C5.63296 9.00046 5.76021 8.95733 5.85403 8.88057L10.854 4.78966C10.9005 4.75167 10.9374 4.70655 10.9626 4.65688C10.9877 4.60722 11.0007 4.55399 11.0007 4.50023C11.0007 4.44647 10.9877 4.39323 10.9626 4.34357C10.9374 4.29391 10.9005 4.24879 10.854 4.2108Z" fill="#3E3737"/>
</svg>
