<svg width="16" height="14" viewBox="0 0 16 14" fill="none" xmlns="http://www.w3.org/2000/svg">
<path d="M12.8538 10.3471C12.9002 10.3851 12.9371 10.4302 12.9622 10.4799C12.9874 10.5296 13.0003 10.5828 13.0003 10.6365C13.0003 10.6903 12.9874 10.7435 12.9622 10.7932C12.9371 10.8428 12.9002 10.888 12.8538 10.926C12.8073 10.964 12.7522 10.9941 12.6915 11.0147C12.6308 11.0353 12.5657 11.0459 12.5 11.0459C12.4343 11.0459 12.3693 11.0353 12.3086 11.0147C12.2479 10.9941 12.1927 10.964 12.1463 10.926L7.14628 6.83507C7.09979 6.79708 7.06291 6.75196 7.03775 6.70229C7.01259 6.65263 6.99963 6.5994 6.99963 6.54564C6.99963 6.49188 7.01259 6.43864 7.03775 6.38898C7.06291 6.33932 7.09979 6.2942 7.14628 6.25621L12.1463 2.1653C12.2401 2.08853 12.3673 2.04541 12.5 2.04541C12.6327 2.04541 12.76 2.08853 12.8538 2.1653C12.9476 2.24206 13.0003 2.34617 13.0003 2.45473C13.0003 2.56329 12.9476 2.6674 12.8538 2.74416L8.2069 6.54564L12.8538 10.3471ZM3.2069 6.54564L7.85378 2.74416C7.9476 2.6674 8.00031 2.56329 8.00031 2.45473C8.00031 2.34617 7.9476 2.24206 7.85378 2.1653C7.75996 2.08853 7.63271 2.04541 7.50003 2.04541C7.36735 2.04541 7.2401 2.08853 7.14628 2.1653L2.14628 6.25621C2.09979 6.2942 2.06291 6.33932 2.03775 6.38898C2.01259 6.43864 1.99963 6.49188 1.99963 6.54564C1.99963 6.5994 2.01259 6.65263 2.03775 6.70229C2.06291 6.75196 2.09979 6.79708 2.14628 6.83507L7.14628 10.926C7.19273 10.964 7.24788 10.9941 7.30858 11.0147C7.36928 11.0353 7.43433 11.0459 7.50003 11.0459C7.56572 11.0459 7.63078 11.0353 7.69148 11.0147C7.75217 10.9941 7.80732 10.964 7.85378 10.926C7.90023 10.888 7.93708 10.8428 7.96222 10.7932C7.98737 10.7435 8.00031 10.6903 8.00031 10.6365C8.00031 10.5828 7.98737 10.5296 7.96222 10.4799C7.93708 10.4302 7.90023 10.3851 7.85378 10.3471L3.2069 6.54564Z" fill="#3E3737"/>
</svg>
