<svg width="16" height="14" viewBox="0 0 16 14" fill="none" xmlns="http://www.w3.org/2000/svg">
<path d="M10.3538 10.3471C10.4002 10.3851 10.4371 10.4302 10.4622 10.4799C10.4874 10.5296 10.5003 10.5828 10.5003 10.6365C10.5003 10.6903 10.4874 10.7435 10.4622 10.7932C10.4371 10.8428 10.4002 10.888 10.3538 10.926C10.3073 10.964 10.2522 10.9941 10.1915 11.0147C10.1308 11.0353 10.0657 11.0459 10 11.0459C9.93433 11.0459 9.86928 11.0353 9.80858 11.0147C9.74788 10.9941 9.69273 10.964 9.64628 10.926L4.64628 6.83507C4.59979 6.79708 4.56291 6.75196 4.53775 6.70229C4.51259 6.65263 4.49963 6.5994 4.49963 6.54564C4.49963 6.49188 4.51259 6.43864 4.53775 6.38898C4.56291 6.33932 4.59979 6.2942 4.64628 6.25621L9.64628 2.1653C9.7401 2.08853 9.86735 2.04541 10 2.04541C10.1327 2.04541 10.26 2.08853 10.3538 2.1653C10.4476 2.24206 10.5003 2.34617 10.5003 2.45473C10.5003 2.56329 10.4476 2.6674 10.3538 2.74416L5.7069 6.54564L10.3538 10.3471Z" fill="#3E3737"/>
</svg>
