<svg viewBox="0 -0.5 6 10" fill="none" xmlns="http://www.w3.org/2000/svg">
<path d="M5.85414 8.3017C5.9006 8.33971 5.93745 8.38484 5.96259 8.4345C5.98773 8.48416 6.00067 8.53738 6.00067 8.59114C6.00067 8.64489 5.98773 8.69812 5.96259 8.74778C5.93745 8.79744 5.9006 8.84256 5.85414 8.88057C5.80769 8.91858 5.75254 8.94873 5.69184 8.9693C5.63115 8.98987 5.56609 9.00046 5.50039 9.00046C5.4347 9.00046 5.36964 8.98987 5.30895 8.9693C5.24825 8.94873 5.1931 8.91858 5.14664 8.88057L0.146643 4.78966C0.100155 4.75167 0.0632757 4.70655 0.0381136 4.65688C0.0129514 4.60722 0 4.55399 0 4.50023C0 4.44647 0.0129514 4.39323 0.0381136 4.34357C0.0632757 4.29391 0.100155 4.24879 0.146643 4.2108L5.14664 0.119887C5.24046 0.0431245 5.36771 -2.13994e-09 5.50039 0C5.63308 2.13994e-09 5.76032 0.0431245 5.85414 0.119887C5.94796 0.196649 6.00067 0.30076 6.00067 0.409318C6.00067 0.517876 5.94796 0.621988 5.85414 0.69875L1.20727 4.50023L5.85414 8.3017Z" fill="#3E3737"/>
</svg>
