<svg viewBox="0.25 0 5.75 9" fill="none" xmlns="http://www.w3.org/2000/svg">
<path d="M5.85403 4.78966L0.854028 8.88057C0.807573 8.91858 0.752423 8.94873 0.691726 8.9693C0.63103 8.98987 0.565975 9.00046 0.500278 9.00046C0.434581 9.00046 0.369526 8.98987 0.30883 8.9693C0.248133 8.94873 0.192983 8.91858 0.146528 8.88057C0.100073 8.84256 0.0632225 8.79744 0.0380812 8.74778C0.0129398 8.69812 0 8.64489 0 8.59114C0 8.53738 0.0129398 8.48416 0.0380812 8.4345C0.0632225 8.38484 0.100073 8.33971 0.146528 8.3017L4.7934 4.50023L0.146528 0.69875C0.0527074 0.621988 -9.88558e-10 0.517876 0 0.409318C9.88559e-10 0.30076 0.0527074 0.196649 0.146528 0.119887C0.240348 0.0431245 0.367596 8.0882e-10 0.500278 0C0.63296 -8.0882e-10 0.760208 0.0431245 0.854028 0.119887L5.85403 4.2108C5.90052 4.24879 5.9374 4.29391 5.96256 4.34357C5.98772 4.39323 6.00067 4.44647 6.00067 4.50023C6.00067 4.55399 5.98772 4.60722 5.96256 4.65688C5.9374 4.70655 5.90052 4.75167 5.85403 4.78966Z" fill="#3E3737"/>
</svg>
