<svg width="16" height="14" viewBox="0 0 16 14" fill="none" xmlns="http://www.w3.org/2000/svg">
<path d="M11.3538 6.83507L6.35375 10.926C6.3073 10.964 6.25215 10.9941 6.19145 11.0147C6.13076 11.0353 6.0657 11.0459 6 11.0459C5.93431 11.0459 5.86925 11.0353 5.80856 11.0147C5.74786 10.9941 5.69271 10.964 5.64625 10.926C5.5998 10.888 5.56295 10.8428 5.53781 10.7932C5.51267 10.7435 5.49973 10.6903 5.49973 10.6365C5.49973 10.5828 5.51267 10.5296 5.53781 10.4799C5.56295 10.4302 5.5998 10.3851 5.64625 10.3471L10.2931 6.54564L5.64625 2.74416C5.55243 2.6674 5.49973 2.56329 5.49973 2.45473C5.49973 2.34617 5.55243 2.24206 5.64625 2.1653C5.74007 2.08853 5.86732 2.04541 6 2.04541C6.13269 2.04541 6.25993 2.08853 6.35375 2.1653L11.3538 6.25621C11.4002 6.2942 11.4371 6.33932 11.4623 6.38898C11.4874 6.43864 11.5004 6.49188 11.5004 6.54564C11.5004 6.5994 11.4874 6.65263 11.4623 6.70229C11.4371 6.75196 11.4002 6.79708 11.3538 6.83507Z" fill="#3E3737"/>
</svg>
